<?xml version="1.0" encoding="UTF-8" standalone="no"?>
<svg
        xmlns="http://www.w3.org/2000/svg"
        viewBox="514 521 150 402"
        height="500"
        width="300"
        version="1.1">
        <g
                transform="scale(0.084, 0.1)">
            <path
                    style="fill:#d3d2d2;fill-opacity:1;fill-rule:nonzero;stroke:none"
                    d="M 8298.97,5207.44 H 5735.34 c -91.22,0 -165.17,73.95 -165.17,165.17 V 9066.7 c 0,91.22 73.95,165.17 165.17,165.17 h 2563.63 c 91.22,0 165.17,-73.95 165.17,-165.17 V 5372.61 c 0,-91.22 -73.95,-165.17 -165.17,-165.17"/>
            <path
                    style="fill:#253a73;fill-opacity:1;fill-rule:nonzero;stroke:none"
                    d="m 5735.34,5302.43 c -38.7,0 -70.18,31.48 -70.18,70.18 V 9066.7 c 0,38.7 31.48,70.18 70.18,70.18 h 2563.64 c 38.69,0 70.17,-31.48 70.17,-70.18 V 5372.61 c 0,-38.7 -31.48,-70.18 -70.17,-70.18 H 5735.34"/>
            <path
                    style="fill:#ffffff;fill-opacity:1;fill-rule:nonzero;stroke:none"
                    d="m 8156.74,5395.01 c 26.2,-1.69 92,-9.91 141.73,-48.88 -0.2,-3.48 -0.51,-6.92 -0.51,-10.45 0,-11.36 1.07,-22.43 2.93,-33.15 7.75,0.21 15.17,1.69 22.09,4.22 -1.04,6.04 -1.84,12.18 -2.25,18.42 4.08,-4.64 7.79,-9.5 11.28,-14.44 6.68,3.58 12.69,8.24 17.86,13.7 -6.05,8.45 -12.82,16.61 -20.47,24.27 -2.5,2.49 -5.14,4.72 -7.74,7.04 5.56,45.57 28.65,85.7 47.49,111.82 v 36.19 c -18.45,-21.11 -56.17,-70.38 -67.74,-131.98 -65.02,44.48 -145.75,46.02 -156.39,46.02 -0.01,0 -0.02,0 -0.02,0 l -10.95,-0.11 -0.11,-10.95 c -0.03,-3.06 -0.14,-51.65 19.41,-104.3 h 24.24 c -15.33,37.48 -19.66,74.45 -20.85,92.58"/>
            <path
                    style="fill:#ffffff;fill-opacity:1;fill-rule:nonzero;stroke:none"
                    d="m 5856.77,5302.43 h 24.2 c 19.54,52.65 19.43,101.24 19.41,104.3 l -0.42,11.06 h -11.06 c -10.23,0 -90.95,-1.52 -155.99,-46.02 -11.58,61.61 -49.3,110.88 -67.75,131.98 v -36.11 c 18.85,-26.09 41.95,-66.21 47.5,-111.89 -2.6,-2.32 -5.25,-4.55 -7.75,-7.05 -7.65,-7.66 -14.42,-15.82 -20.47,-24.27 5.17,-5.46 11.17,-10.12 17.86,-13.7 3.5,4.95 7.21,9.8 11.28,14.44 -0.4,-6.24 -1.21,-12.37 -2.26,-18.42 6.93,-2.53 14.35,-4.01 22.1,-4.22 1.86,10.72 2.93,21.79 2.93,33.15 0,3.53 -0.31,6.97 -0.5,10.45 49.67,38.92 115.37,47.17 141.74,48.87 -1.17,-18.12 -5.47,-55.07 -20.82,-92.57"/>
            <path
                    style="fill:#ffffff;fill-opacity:1;fill-rule:nonzero;stroke:none"
                    d="m 5877.58,9044.3 c -26.2,1.68 -92,9.91 -141.73,48.88 0.19,3.48 0.5,6.92 0.5,10.45 0,11.36 -1.07,22.43 -2.93,33.15 -7.75,-0.21 -15.17,-1.69 -22.1,-4.23 1.05,-6.04 1.86,-12.17 2.26,-18.41 -4.07,4.64 -7.79,9.49 -11.28,14.44 -6.69,-3.58 -12.69,-8.24 -17.86,-13.7 6.05,-8.45 12.82,-16.61 20.47,-24.27 2.5,-2.5 5.15,-4.73 7.74,-7.05 -5.56,-45.56 -28.64,-85.69 -47.49,-111.81 v -36.19 c 18.45,21.1 56.17,70.37 67.75,131.98 65.04,-44.5 145.76,-46.02 155.99,-46.02 l 11.37,0.11 0.11,10.95 c 0.02,3.06 0.13,51.65 -19.41,104.3 h -24.24 c 15.32,-37.48 19.66,-74.45 20.85,-92.58"/>
            <path
                    style="fill:#ffffff;fill-opacity:1;fill-rule:nonzero;stroke:none"
                    d="m 7702.24,5523.4 c -17.36,19.8 -58.03,72.22 -65.66,134.75 2.59,2.32 5.24,4.55 7.74,7.05 31.53,31.53 48.59,71.45 57.92,106.13 9.32,-34.68 26.39,-74.6 57.92,-106.13 2.5,-2.5 5.14,-4.73 7.74,-7.05 -7.63,-62.52 -48.3,-114.95 -65.66,-134.75 z m -13.85,292.6 c -4.67,-34.01 -17.55,-87.23 -52.74,-127.28 3.44,53.1 31.99,99.89 52.74,127.28 z m -75,-148.24 c -49.74,-38.96 -115.54,-47.19 -141.74,-48.87 1.73,26.27 10.04,92.13 48.87,141.75 3.48,-0.2 6.92,-0.51 10.45,-0.51 44.59,0 84.88,16.16 116,34.09 -17.93,-31.11 -34.09,-71.41 -34.09,-116 0,-3.54 0.31,-6.98 0.51,-10.46 z m 55.35,167.88 c -27.38,-20.75 -74.17,-49.29 -127.27,-52.74 40.06,35.19 93.23,48.07 127.27,52.74 z m -292.61,13.86 c 19.77,17.37 72.12,58.05 134.79,65.66 2.31,-2.6 4.53,-5.25 7.02,-7.75 31.55,-31.55 71.4,-48.6 106.08,-57.92 -34.68,-9.32 -74.53,-26.38 -106.08,-57.92 -2.49,-2.5 -4.7,-5.15 -7.02,-7.74 -62.54,7.62 -114.99,48.31 -134.79,65.67 z m -151.58,85.9 c 46.22,67.62 46.03,152.34 45.99,156.41 l -0.41,11.06 h -11.07 c -10.22,0 -90.95,-1.52 -155.99,-46.02 -12.19,64.91 -53.46,116.18 -70.58,135.18 17.12,19 58.39,70.27 70.58,135.18 65.04,-44.51 145.77,-46.02 155.99,-46.02 l 11.37,0.11 0.11,10.95 c 0.04,4.07 0.23,88.79 -45.99,156.42 64.89,12.2 116.16,53.45 135.15,70.57 18.99,-17.12 70.26,-58.37 135.15,-70.57 -46.23,-67.63 -46.03,-152.35 -46,-156.42 l 0.11,-10.95 11.37,-0.11 c 10.23,0 90.95,1.51 155.99,46.01 12.2,-64.9 53.46,-116.17 70.58,-135.17 -17.12,-19 -58.38,-70.27 -70.58,-135.18 -65.02,44.48 -145.75,46.02 -156.39,46.02 0,0 -0.01,0 -0.02,0 l -10.95,-0.11 -0.11,-10.95 c -0.03,-4.07 -0.23,-88.79 45.99,-156.41 -64.89,-12.2 -116.15,-53.46 -135.14,-70.57 -18.99,17.11 -70.26,58.37 -135.15,70.57 z m -16.08,-151.57 c -2.31,2.59 -4.53,5.24 -7.02,7.74 -31.54,31.54 -71.38,48.59 -106.1,57.91 34.69,9.32 74.54,26.38 106.1,57.93 2.49,2.5 4.71,5.15 7.02,7.74 62.54,-7.62 114.97,-48.3 134.78,-65.66 -19.81,-17.36 -72.24,-58.04 -134.78,-65.66 z m 39.27,-164.94 c -26.2,1.68 -92,9.91 -141.73,48.88 0.19,3.47 0.51,6.92 0.51,10.45 0,44.59 -16.17,84.89 -34.1,116 31.12,-17.93 71.41,-34.09 116,-34.09 3.53,0 6.97,0.31 10.45,0.51 38.84,-49.62 47.15,-115.48 48.87,-141.75 z m -216.69,197.12 c 20.74,-27.35 49.26,-74.08 52.7,-127.28 -35.11,39.98 -48.01,93.25 -52.7,127.28 z m -13.89,-292.61 c -17.36,19.8 -58.04,72.23 -65.66,134.75 2.59,2.32 5.24,4.55 7.74,7.05 31.53,31.53 48.59,71.45 57.92,106.13 9.32,-34.68 26.38,-74.6 57.92,-106.13 2.5,-2.5 5.14,-4.73 7.74,-7.05 -7.63,-62.52 -48.3,-114.95 -65.66,-134.75 z m -13.86,292.59 c -4.67,-34 -17.55,-87.21 -52.73,-127.26 3.45,53.09 31.99,99.87 52.73,127.26 z m -75,-148.22 c -49.73,-38.97 -115.53,-47.2 -141.73,-48.88 1.73,26.27 10.04,92.13 48.87,141.75 3.48,-0.2 6.92,-0.51 10.44,-0.51 44.6,0 84.9,16.16 116.01,34.1 -17.93,-31.12 -34.09,-71.42 -34.09,-116.01 0,-3.53 0.31,-6.97 0.5,-10.45 z m -237.26,181.73 c 19.77,17.37 72.13,58.05 134.8,65.66 2.32,-2.6 4.53,-5.25 7.03,-7.75 31.54,-31.55 71.39,-48.6 106.06,-57.92 -34.67,-9.32 -74.52,-26.37 -106.06,-57.92 -2.5,-2.5 -4.71,-5.15 -7.03,-7.74 -62.54,7.62 -114.99,48.31 -134.8,65.67 z m -151.57,85.9 c 46.22,67.62 46.02,152.34 45.98,156.41 l -0.41,11.06 h -11.06 c -10.22,0 -90.95,-1.52 -155.99,-46.02 -12.2,64.91 -53.46,116.18 -70.58,135.18 17.12,19 58.38,70.27 70.57,135.18 65.05,-44.51 145.78,-46.02 156,-46.02 l 11.37,0.11 0.1,10.95 c 0.04,4.07 0.24,88.79 -45.98,156.42 64.89,12.2 116.15,53.45 135.14,70.57 19,-17.12 70.26,-58.37 135.15,-70.57 -46.22,-67.63 -46.02,-152.35 -45.99,-156.42 l 0.11,-10.95 11.37,-0.11 c 10.22,0 90.95,1.51 155.99,46.02 12.2,-64.91 53.46,-116.18 70.58,-135.18 -17.12,-19 -58.39,-70.27 -70.58,-135.18 -65.02,44.48 -145.75,46.02 -156.39,46.02 h -0.02 l -10.95,-0.11 -0.11,-10.95 c -0.03,-4.07 -0.23,-88.79 45.99,-156.41 -64.89,-12.2 -116.15,-53.46 -135.15,-70.57 -18.99,17.11 -70.25,58.37 -135.14,70.57 z m -16.08,-151.58 c -2.32,2.6 -4.53,5.25 -7.03,7.75 -31.54,31.54 -71.37,48.59 -106.09,57.91 34.69,9.32 74.54,26.38 106.09,57.93 2.5,2.5 4.71,5.15 7.03,7.74 62.54,-7.62 114.99,-48.31 134.79,-65.67 -19.77,-17.37 -72.12,-58.05 -134.79,-65.66 z m -157.83,51.82 c 33.97,-4.65 87.19,-17.52 127.27,-52.74 -53.1,3.45 -99.89,32 -127.27,52.74 z m 197.1,-216.75 c -26.21,1.68 -92,9.91 -141.74,48.88 0.2,3.48 0.51,6.92 0.51,10.45 0,44.59 -16.16,84.89 -34.09,116.01 31.11,-17.94 71.41,-34.1 116,-34.1 3.53,0 6.97,0.31 10.45,0.51 38.83,-49.62 47.14,-115.48 48.87,-141.75 z m -216.7,197.12 c 20.74,-27.35 49.26,-74.08 52.7,-127.28 -35.1,39.98 -48,93.25 -52.7,127.28 z m -13.89,-292.61 c -17.36,19.8 -58.03,72.23 -65.66,134.75 2.6,2.32 5.24,4.55 7.74,7.05 31.53,31.53 48.6,71.45 57.92,106.13 9.33,-34.68 26.39,-74.6 57.92,-106.13 2.5,-2.5 5.15,-4.73 7.74,-7.05 -7.63,-62.52 -48.3,-114.95 -65.66,-134.75 z m -13.9,292.53 c -4.7,-34.03 -17.6,-87.25 -52.69,-127.2 3.45,53.05 31.95,99.81 52.69,127.2 z m -74.95,-148.16 c -49.74,-38.98 -115.56,-47.2 -141.75,-48.89 1.7,26.25 9.94,92.05 48.88,141.76 3.48,-0.2 6.92,-0.51 10.46,-0.51 44.59,0 84.88,16.16 116,34.09 -17.93,-31.11 -34.1,-71.41 -34.1,-116 0,-3.53 0.31,-6.98 0.51,-10.45 z m 55.36,167.87 c -27.39,-20.75 -74.17,-49.29 -127.27,-52.74 40.05,35.19 93.23,48.07 127.27,52.74 z m -292.6,13.85 c 19.81,17.36 72.24,58.04 134.78,65.66 2.31,-2.59 4.53,-5.24 7.02,-7.74 31.55,-31.55 71.39,-48.6 106.07,-57.92 -34.68,-9.32 -74.52,-26.38 -106.07,-57.92 -2.49,-2.5 -4.71,-5.15 -7.02,-7.74 -62.54,7.62 -114.97,48.3 -134.78,65.66 z m 292.61,13.84 c -33.98,4.66 -87.2,17.53 -127.28,52.75 53.1,-3.45 99.9,-32 127.28,-52.75 z m -197.1,216.76 c 26.2,-1.68 92,-9.91 141.73,-48.88 -0.2,-3.48 -0.51,-6.92 -0.51,-10.45 0,-44.59 16.16,-84.88 34.09,-116 -31.11,17.93 -71.4,34.09 -115.99,34.09 -3.54,0 -6.98,-0.31 -10.45,-0.51 -38.84,49.62 -47.15,115.48 -48.87,141.75 z m 216.68,-197.04 c -20.74,27.39 -49.24,74.14 -52.69,127.2 35.08,-39.96 47.99,-93.17 52.69,-127.2 z m 27.76,-0.06 c 4.67,34 17.55,87.21 52.73,127.26 -3.45,-53.09 -31.99,-99.88 -52.73,-127.26 z m 146.9,33.09 c -40.11,-35.25 -93.38,-48.11 -127.35,-52.76 27.33,20.75 74.11,49.32 127.35,52.76 z m -71.91,115.13 c 49.67,38.92 115.36,47.17 141.74,48.88 -1.73,-26.28 -10.04,-92.13 -48.87,-141.75 -3.48,0.2 -6.92,0.51 -10.45,0.51 -44.59,0 -84.88,-16.16 -116,-34.1 17.93,31.12 34.09,71.42 34.09,116.01 0,3.53 -0.31,6.97 -0.51,10.45 z m -88.85,144.37 c 17.36,-19.8 58.03,-72.23 65.66,-134.75 -2.59,-2.32 -5.24,-4.55 -7.74,-7.05 -31.53,-31.53 -48.59,-71.45 -57.92,-106.13 -9.32,34.68 -26.39,74.6 -57.92,106.13 -2.5,2.5 -5.14,4.73 -7.74,7.05 7.63,62.52 48.3,114.95 65.66,134.75 z m -65.66,167.65 c 2.6,2.32 5.24,4.55 7.74,7.05 31.53,31.53 48.6,71.45 57.92,106.13 9.33,-34.68 26.39,-74.6 57.92,-106.13 2.5,-2.5 5.15,-4.73 7.74,-7.05 -7.63,-62.53 -48.31,-114.96 -65.67,-134.77 -17.36,19.77 -58.04,72.11 -65.65,134.77 z m 51.81,157.85 c -4.67,-34.01 -17.55,-87.22 -52.74,-127.27 3.45,53.09 31.99,99.88 52.74,127.27 z m -75,-148.23 c -49.74,-38.98 -115.56,-47.2 -141.75,-48.89 1.7,26.25 9.94,92.06 48.88,141.76 3.48,-0.19 6.92,-0.5 10.46,-0.5 44.59,0 84.88,16.16 116,34.09 -17.93,-31.12 -34.1,-71.41 -34.1,-116.01 0,-3.53 0.31,-6.97 0.51,-10.45 z m 55.36,167.87 c -27.39,-20.74 -74.17,-49.29 -127.27,-52.74 40.06,35.2 93.23,48.08 127.27,52.74 z m -292.6,13.85 c 19.81,17.37 72.24,58.04 134.77,65.67 2.32,-2.6 4.53,-5.25 7.03,-7.75 31.55,-31.55 71.39,-48.6 106.07,-57.92 -34.68,-9.32 -74.52,-26.37 -106.07,-57.92 -2.49,-2.49 -4.71,-5.14 -7.02,-7.74 -62.54,7.62 -114.97,48.3 -134.78,65.66 z m 292.61,13.85 c -33.98,4.66 -87.2,17.53 -127.28,52.74 53.1,-3.44 99.9,-32 127.28,-52.74 z m -197.1,216.76 c 26.2,-1.69 92,-9.91 141.73,-48.88 -0.2,-3.48 -0.51,-6.93 -0.51,-10.46 0,-44.59 16.16,-84.88 34.09,-116 -31.11,17.93 -71.4,34.09 -115.99,34.09 -3.54,0 -6.98,-0.31 -10.45,-0.5 -38.84,49.62 -47.15,115.48 -48.87,141.75 z m 216.68,-197.05 c -20.74,27.39 -49.24,74.15 -52.69,127.2 35.08,-39.95 47.99,-93.17 52.69,-127.2 z m 13.91,292.55 c 17.37,-19.77 58.04,-72.11 65.66,-134.76 -2.6,-2.32 -5.25,-4.55 -7.75,-7.05 -31.53,-31.54 -48.59,-71.46 -57.92,-106.14 -9.32,34.68 -26.39,74.6 -57.92,106.14 -2.5,2.49 -5.14,4.72 -7.74,7.04 7.63,62.53 48.32,114.97 65.67,134.77 z m -65.67,167.63 c 2.6,2.33 5.24,4.55 7.74,7.05 31.53,31.54 48.6,71.45 57.92,106.14 9.33,-34.69 26.39,-74.6 57.92,-106.14 2.5,-2.5 5.15,-4.72 7.74,-7.04 -7.63,-62.53 -48.3,-114.95 -65.66,-134.76 -17.36,19.81 -58.03,72.23 -65.66,134.75 z m 51.81,157.85 c -4.67,-34.01 -17.55,-87.21 -52.74,-127.27 3.45,53.1 31.99,99.88 52.74,127.27 z m -75,-148.23 c -49.73,-38.97 -115.53,-47.19 -141.73,-48.88 1.72,26.27 10.03,92.13 48.87,141.75 3.47,-0.19 6.91,-0.5 10.45,-0.5 44.59,0 84.88,16.15 115.99,34.08 -17.93,-31.11 -34.09,-71.41 -34.09,-116 0,-3.53 0.31,-6.97 0.51,-10.45 z m 55.36,167.87 c -27.39,-20.74 -74.17,-49.29 -127.27,-52.73 40.05,35.19 93.23,48.07 127.27,52.73 z m -292.6,13.85 c 19.81,17.37 72.24,58.04 134.78,65.67 2.31,-2.6 4.53,-5.25 7.02,-7.74 31.55,-31.55 71.39,-48.6 106.07,-57.93 -34.68,-9.32 -74.52,-26.37 -106.07,-57.92 -2.49,-2.49 -4.71,-5.14 -7.02,-7.74 -62.54,7.62 -114.97,48.3 -134.78,65.66 z m 292.61,13.85 c -33.98,4.66 -87.2,17.53 -127.28,52.74 53.1,-3.44 99.9,-32 127.28,-52.74 z m -197.1,216.76 c 26.2,-1.69 92,-9.91 141.73,-48.88 -0.2,-3.48 -0.51,-6.92 -0.51,-10.45 0,-44.6 16.17,-84.89 34.1,-116.01 -31.12,17.93 -71.41,34.09 -116,34.09 -3.54,0 -6.98,-0.31 -10.45,-0.5 -38.84,49.62 -47.15,115.48 -48.87,141.75 z m 216.69,-197.12 c -20.74,27.34 -49.26,74.08 -52.7,127.28 35.11,-39.99 48.01,-93.25 52.7,-127.28 z m 13.89,292.6 c 17.36,-19.8 58.03,-72.22 65.66,-134.75 -2.59,-2.32 -5.24,-4.55 -7.74,-7.04 -31.53,-31.54 -48.59,-71.45 -57.92,-106.14 -9.32,34.69 -26.39,74.6 -57.92,106.14 -2.5,2.49 -5.14,4.72 -7.74,7.04 7.63,62.53 48.3,114.95 65.66,134.75 z m -65.66,167.65 c 2.6,2.33 5.24,4.56 7.74,7.06 31.53,31.53 48.6,71.45 57.92,106.13 9.33,-34.68 26.39,-74.6 57.92,-106.13 2.5,-2.5 5.15,-4.73 7.74,-7.05 -7.63,-62.54 -48.31,-114.97 -65.67,-134.77 -17.36,19.76 -58.04,72.11 -65.65,134.76 z m 51.76,157.79 c -4.7,-34.03 -17.6,-87.25 -52.69,-127.2 3.45,53.05 31.95,99.81 52.69,127.2 z m -74.95,-148.16 c -49.74,-38.98 -115.56,-47.2 -141.75,-48.89 1.7,26.25 9.94,92.05 48.88,141.76 3.48,-0.2 6.92,-0.51 10.46,-0.51 44.59,0 84.88,16.16 116,34.09 -17.93,-31.12 -34.1,-71.41 -34.1,-116 0,-3.54 0.31,-6.98 0.51,-10.45 z m 55.36,167.86 c -27.39,-20.74 -74.17,-49.28 -127.27,-52.73 40.05,35.19 93.23,48.07 127.27,52.73 z m -292.6,13.86 c 19.81,17.36 72.24,58.04 134.78,65.66 2.31,-2.59 4.53,-5.24 7.02,-7.74 31.55,-31.55 71.39,-48.6 106.07,-57.92 -34.68,-9.32 -74.52,-26.38 -106.07,-57.92 -2.49,-2.5 -4.71,-5.15 -7.02,-7.74 -62.54,7.62 -114.97,48.3 -134.78,65.66 z m 292.61,13.84 c -33.98,4.66 -87.2,17.53 -127.28,52.75 53.1,-3.45 99.9,-32 127.28,-52.75 z m -197.1,216.76 c 26.2,-1.68 92,-9.91 141.73,-48.88 -0.2,-3.48 -0.51,-6.92 -0.51,-10.45 0,-44.59 16.16,-84.89 34.09,-116 -31.11,17.93 -71.4,34.09 -115.99,34.09 -3.54,0 -6.98,-0.31 -10.45,-0.51 -38.84,49.62 -47.15,115.48 -48.87,141.75 z m 216.68,-197.04 c -20.74,27.39 -49.24,74.14 -52.69,127.2 35.08,-39.96 47.99,-93.17 52.69,-127.2 z m 13.9,292.53 c 17.36,-19.8 58.03,-72.23 65.66,-134.75 -2.59,-2.32 -5.24,-4.55 -7.74,-7.05 -31.53,-31.53 -48.59,-71.45 -57.92,-106.13 -9.32,34.68 -26.39,74.6 -57.92,106.13 -2.5,2.5 -5.14,4.73 -7.74,7.05 7.63,62.52 48.3,114.95 65.66,134.75 z m -65.66,167.65 c 2.6,2.32 5.24,4.55 7.74,7.05 31.53,31.53 48.6,71.45 57.92,106.13 9.33,-34.68 26.39,-74.6 57.92,-106.13 2.5,-2.5 5.15,-4.73 7.74,-7.05 -7.63,-62.53 -48.31,-114.97 -65.67,-134.77 -17.36,19.77 -58.04,72.11 -65.65,134.77 z m 51.76,157.78 c -4.7,-34.03 -17.6,-87.25 -52.69,-127.2 3.45,53.06 31.95,99.81 52.69,127.2 z m -74.95,-148.16 c -49.74,-38.99 -115.56,-47.21 -141.75,-48.89 1.7,26.25 9.94,92.05 48.88,141.75 3.48,-0.19 6.92,-0.5 10.46,-0.5 44.59,0 84.88,16.16 115.99,34.09 -17.93,-31.12 -34.09,-71.41 -34.09,-116 0,-3.53 0.31,-6.98 0.51,-10.45 z m 55.36,167.86 c -27.39,-20.74 -74.18,-49.29 -127.28,-52.73 40.06,35.19 93.24,48.07 127.28,52.73 z m -292.6,13.86 c 19.81,17.36 72.24,58.04 134.78,65.66 2.31,-2.59 4.53,-5.25 7.02,-7.74 31.55,-31.55 71.39,-48.6 106.07,-57.92 -34.68,-9.32 -74.52,-26.37 -106.07,-57.92 -2.5,-2.5 -4.71,-5.15 -7.03,-7.74 -62.53,7.62 -114.96,48.29 -134.77,65.66 z m 292.61,13.84 c -33.98,4.66 -87.2,17.53 -127.28,52.75 53.1,-3.45 99.9,-32 127.28,-52.75 z m -197.1,216.77 c 26.2,-1.69 92,-9.91 141.73,-48.89 -0.2,-3.47 -0.51,-6.92 -0.51,-10.45 0,-44.59 16.17,-84.89 34.1,-116 -31.12,17.93 -71.41,34.09 -116,34.09 -3.54,0 -6.98,-0.32 -10.45,-0.51 -38.84,49.62 -47.15,115.49 -48.87,141.76 z m 216.69,-197.13 c -20.74,27.35 -49.26,74.08 -52.7,127.28 35.11,-39.98 48.01,-93.25 52.7,-127.28 z m 13.9,292.63 c 17.37,-19.77 58.04,-72.11 65.66,-134.76 -2.6,-2.33 -5.25,-4.56 -7.75,-7.06 -31.53,-31.53 -48.59,-71.45 -57.92,-106.13 -9.32,34.68 -26.39,74.6 -57.92,106.13 -2.5,2.5 -5.14,4.73 -7.74,7.05 7.63,62.54 48.32,114.97 65.67,134.77 z m 13.85,-292.61 c 4.67,34 17.55,87.21 52.73,127.26 -3.45,-53.09 -31.99,-99.87 -52.73,-127.26 z m 74.99,148.22 c 49.68,38.93 115.38,47.18 141.75,48.88 -1.69,-26.25 -9.94,-92.05 -48.88,-141.75 -3.47,0.19 -6.91,0.51 -10.45,0.51 -44.59,0 -84.89,-16.17 -116,-34.1 17.93,31.12 34.09,71.41 34.09,116.01 0,3.53 -0.31,6.98 -0.51,10.45 z m 237.26,-181.73 c -19.77,-17.37 -72.11,-58.05 -134.78,-65.66 -2.32,2.6 -4.54,5.25 -7.04,7.75 -31.54,31.54 -71.37,48.59 -106.09,57.91 34.69,9.32 74.54,26.37 106.09,57.93 2.5,2.49 4.71,5.15 7.03,7.74 62.54,-7.62 114.99,-48.32 134.79,-65.67 z m -292.7,13.84 c 27.33,20.74 74.11,49.31 127.35,52.76 -40.11,-35.25 -93.38,-48.11 -127.35,-52.76 z m 33.18,-174.59 c -35.08,39.95 -47.98,93.17 -52.69,127.2 20.74,-27.39 49.25,-74.15 52.69,-127.2 z m -33.1,146.91 c 33.98,-4.65 87.2,-17.53 127.28,-52.74 -53.1,3.45 -99.9,32 -127.28,52.74 z m 21.78,-41.42 c 31.12,-17.93 71.41,-34.09 116,-34.09 3.53,0 6.97,0.31 10.45,0.5 38.83,-49.62 47.14,-115.47 48.87,-141.74 -26.21,1.68 -92,9.9 -141.74,48.88 0.2,3.47 0.51,6.92 0.51,10.45 0,44.59 -16.16,84.89 -34.09,116 z m 422.42,-30.64 c -46.22,-67.63 -46.02,-152.34 -45.99,-156.42 l 0.11,-10.95 11.37,-0.1 c 10.22,0 90.95,1.51 155.99,46.02 12.2,-64.91 53.46,-116.18 70.58,-135.18 -17.12,-19 -58.38,-70.27 -70.58,-135.18 -65.02,44.48 -145.75,46.02 -156.39,46.02 h -0.02 l -10.95,-0.11 -0.11,-10.95 c -0.03,-4.07 -0.23,-88.79 45.99,-156.42 -64.89,-12.2 -116.15,-53.45 -135.15,-70.56 -18.99,17.11 -70.25,58.36 -135.14,70.56 46.22,67.63 46.02,152.35 45.98,156.42 l -0.41,11.06 h -11.06 c -10.22,0 -90.95,-1.52 -156,-46.02 -12.19,64.91 -53.45,116.18 -70.57,135.18 17.12,19 58.38,70.27 70.57,135.18 65.05,-44.51 145.78,-46.02 156,-46.02 l 11.37,0.1 0.1,10.95 c 0.04,4.08 0.24,88.79 -45.98,156.42 64.89,12.2 116.15,53.45 135.14,70.57 19,-17.12 70.26,-58.37 135.15,-70.57 z m 16.08,151.57 c 2.32,-2.59 4.53,-5.24 7.03,-7.74 31.54,-31.55 71.38,-48.6 106.06,-57.92 -34.68,-9.32 -74.52,-26.37 -106.06,-57.92 -2.5,-2.5 -4.71,-5.15 -7.03,-7.75 -62.55,7.63 -114.99,48.32 -134.8,65.68 19.77,17.36 72.13,58.05 134.8,65.65 z m 157.83,-51.82 c -33.98,4.66 -87.19,17.53 -127.27,52.75 53.09,-3.45 99.89,-32 127.27,-52.75 z m -197.1,216.77 c 26.2,-1.69 92,-9.91 141.73,-48.89 -0.19,-3.47 -0.5,-6.92 -0.5,-10.45 0,-44.6 16.16,-84.89 34.09,-116.01 -31.11,17.93 -71.41,34.1 -116.01,34.1 -3.52,0 -6.96,-0.32 -10.44,-0.51 -38.83,49.62 -47.14,115.49 -48.87,141.76 z m 216.7,-197.13 c -20.74,27.35 -49.26,74.08 -52.7,127.28 35.1,-39.98 48,-93.25 52.7,-127.28 z m 13.9,292.63 c 17.36,-19.77 58.04,-72.11 65.65,-134.76 -2.6,-2.33 -5.24,-4.56 -7.74,-7.06 -31.54,-31.53 -48.6,-71.45 -57.92,-106.13 -9.33,34.68 -26.39,74.6 -57.92,106.13 -2.5,2.5 -5.15,4.73 -7.74,7.05 7.63,62.54 48.31,114.97 65.67,134.77 z m 13.89,-292.55 c 4.7,34.03 17.61,87.25 52.69,127.2 -3.45,-53.05 -31.95,-99.81 -52.69,-127.2 z m 74.95,148.17 c 49.66,38.91 115.35,47.16 141.73,48.87 -1.73,-26.28 -10.04,-92.13 -48.87,-141.75 -3.48,0.19 -6.92,0.51 -10.45,0.51 -44.59,0 -84.88,-16.16 -116,-34.09 17.93,31.11 34.1,71.41 34.1,116 0,3.53 -0.32,6.98 -0.51,10.46 z m -55.37,-167.89 c 27.38,20.75 74.18,49.3 127.28,52.75 -40.08,-35.22 -93.3,-48.09 -127.28,-52.75 z m 292.61,-13.84 c -19.81,-17.37 -72.24,-58.04 -134.77,-65.66 -2.32,2.59 -4.54,5.24 -7.03,7.74 -31.54,31.54 -71.38,48.59 -106.1,57.91 34.69,9.32 74.54,26.37 106.1,57.93 2.49,2.49 4.71,5.15 7.02,7.74 62.54,-7.62 114.97,-48.3 134.78,-65.66 z m 151.59,-85.91 c -46.22,-67.62 -46.02,-152.34 -45.99,-156.42 l 0.11,-10.95 11.37,-0.1 c 10.23,0 90.95,1.51 155.99,46.01 12.2,-64.9 53.46,-116.17 70.58,-135.17 -17.12,-19 -58.38,-70.27 -70.58,-135.18 -65.02,44.48 -145.75,46.02 -156.39,46.02 0,0 -0.01,0 -0.02,0 l -10.95,-0.11 -0.11,-10.95 c -0.03,-4.07 -0.23,-88.79 45.99,-156.42 -64.89,-12.2 -116.15,-53.45 -135.14,-70.57 -18.99,17.12 -70.26,58.37 -135.15,70.57 46.22,67.63 46.03,152.35 45.99,156.42 l -0.41,11.06 h -11.07 c -10.22,0 -90.95,-1.52 -155.99,-46.02 -12.19,64.91 -53.46,116.18 -70.58,135.18 17.12,19 58.39,70.27 70.58,135.17 65.04,-44.5 145.77,-46.01 155.99,-46.01 l 11.37,0.1 0.11,10.95 c 0.04,4.08 0.23,88.8 -45.99,156.42 64.89,12.2 116.16,53.46 135.15,70.57 18.99,-17.11 70.25,-58.37 135.14,-70.57 z m 16.08,151.57 c 2.32,-2.59 4.53,-5.24 7.02,-7.74 31.55,-31.55 71.4,-48.6 106.08,-57.92 -34.68,-9.32 -74.53,-26.37 -106.08,-57.92 -2.49,-2.5 -4.71,-5.15 -7.02,-7.74 -62.54,7.62 -114.99,48.31 -134.79,65.67 19.77,17.36 72.12,58.05 134.79,65.65 z m -39.27,164.95 c 26.2,-1.69 92,-9.91 141.74,-48.88 -0.2,-3.48 -0.51,-6.93 -0.51,-10.46 0,-44.59 16.16,-84.89 34.09,-116 -31.12,17.93 -71.41,34.09 -116,34.09 -3.53,0 -6.97,-0.32 -10.45,-0.51 -38.83,49.62 -47.14,115.49 -48.87,141.76 z m 216.7,-197.13 c -20.74,27.35 -49.27,74.08 -52.7,127.29 35.11,-39.99 48,-93.26 52.7,-127.29 z m 13.9,292.63 c 17.36,-19.77 58.04,-72.11 65.65,-134.76 -2.6,-2.33 -5.24,-4.56 -7.74,-7.06 -31.53,-31.53 -48.6,-71.45 -57.92,-106.13 -9.33,34.68 -26.39,74.6 -57.92,106.13 -2.5,2.5 -5.15,4.73 -7.74,7.06 7.63,62.53 48.31,114.96 65.67,134.76 z m 13.84,-292.61 c 4.67,34 17.55,87.21 52.73,127.26 -3.44,-53.09 -31.98,-99.87 -52.73,-127.26 z m 75,148.22 c 49.67,38.93 115.38,47.18 141.75,48.88 -1.69,-26.25 -9.94,-92.05 -48.88,-141.75 -3.48,0.19 -6.92,0.51 -10.45,0.51 -44.6,0 -84.89,-16.17 -116.01,-34.1 17.93,31.12 34.09,71.41 34.09,116.01 0,3.53 -0.31,6.98 -0.5,10.45 z m 237.26,-181.73 c -19.77,-17.37 -72.12,-58.05 -134.78,-65.66 -2.32,2.6 -4.54,5.25 -7.04,7.75 -31.54,31.54 -71.37,48.59 -106.09,57.91 34.68,9.32 74.54,26.37 106.09,57.93 2.5,2.49 4.71,5.15 7.03,7.74 62.54,-7.62 114.98,-48.32 134.79,-65.67 z m -292.63,-13.84 c 33.98,-4.65 87.2,-17.53 127.29,-52.74 -53.11,3.45 -99.9,32 -127.29,52.74 z m 197.11,-216.75 c -26.21,1.68 -92.01,9.9 -141.74,48.88 0.19,3.47 0.5,6.92 0.5,10.45 0,44.59 -16.16,84.89 -34.09,116 31.12,-17.93 71.42,-34.09 116.01,-34.09 3.53,0 6.97,0.31 10.45,0.5 38.83,-49.62 47.14,-115.47 48.87,-141.74 z m -197.19,244.43 c 27.34,20.74 74.11,49.32 127.36,52.76 -40.11,-35.25 -93.38,-48.11 -127.36,-52.76 z m -19.5,-47.39 c 20.74,-27.39 49.24,-74.15 52.68,-127.2 -35.07,39.95 -47.98,93.17 -52.68,127.2 z m -174.67,100.15 c 53.11,-3.45 99.9,-32 127.28,-52.75 -33.98,4.66 -87.19,17.53 -127.28,52.75 z m 146.92,-100.09 c -4.67,-34 -17.55,-87.21 -52.74,-127.27 3.44,53.1 31.99,99.89 52.74,127.27 z m -146.92,-33.09 c 40.05,35.19 93.23,48.07 127.27,52.73 -27.38,-20.74 -74.17,-49.29 -127.27,-52.73 z m 71.92,-115.14 c -49.75,-38.98 -115.56,-47.2 -141.76,-48.88 1.7,26.25 9.94,92.05 48.88,141.75 3.48,-0.19 6.93,-0.5 10.46,-0.5 44.59,0 84.88,16.16 116,34.09 -17.93,-31.12 -34.09,-71.41 -34.09,-116 0,-3.53 0.31,-6.98 0.51,-10.46 z m 88.84,-144.38 c -17.37,19.77 -58.04,72.11 -65.66,134.76 2.6,2.32 5.25,4.56 7.75,7.06 31.53,31.53 48.59,71.45 57.92,106.13 9.32,-34.68 26.39,-74.6 57.92,-106.13 2.5,-2.5 5.14,-4.73 7.74,-7.05 -7.64,-62.53 -48.32,-114.97 -65.67,-134.77 z m 65.67,-167.63 c -2.6,-2.32 -5.24,-4.55 -7.74,-7.05 -31.53,-31.53 -48.6,-71.45 -57.92,-106.13 -9.33,34.68 -26.39,74.6 -57.92,106.13 -2.5,2.5 -5.15,4.73 -7.74,7.05 7.63,62.52 48.3,114.95 65.66,134.75 17.36,-19.8 58.03,-72.23 65.66,-134.75 z m -51.76,-157.78 c 4.7,34.03 17.61,87.24 52.68,127.2 -3.44,-53.06 -31.94,-99.81 -52.68,-127.2 z m 74.95,148.16 c 49.67,38.93 115.38,47.18 141.75,48.87 -1.69,-26.25 -9.95,-92.04 -48.88,-141.74 -3.48,0.2 -6.92,0.51 -10.45,0.51 -44.59,0 -84.89,-16.16 -116.01,-34.1 17.93,31.12 34.09,71.41 34.09,116.01 0,3.53 -0.31,6.97 -0.5,10.45 z m 237.26,-181.73 c -19.77,-17.37 -72.12,-58.05 -134.79,-65.66 -2.32,2.6 -4.53,5.25 -7.03,7.75 -31.54,31.54 -71.38,48.59 -106.09,57.91 34.68,9.32 74.54,26.37 106.09,57.93 2.5,2.5 4.71,5.15 7.03,7.74 62.54,-7.62 114.98,-48.31 134.79,-65.67 z m -292.63,-13.84 c 33.98,-4.65 87.2,-17.52 127.28,-52.74 -53.1,3.45 -99.89,32 -127.28,52.74 z m 197.11,-216.75 c -26.21,1.68 -92.01,9.9 -141.74,48.88 0.19,3.47 0.5,6.91 0.5,10.45 0,44.59 -16.16,84.89 -34.09,116.01 31.12,-17.94 71.41,-34.1 116.01,-34.1 3.53,0 6.97,0.31 10.44,0.51 38.84,-49.63 47.15,-115.48 48.88,-141.75 z m -197.19,244.43 c 27.34,20.75 74.12,49.32 127.36,52.76 -40.11,-35.25 -93.38,-48.11 -127.36,-52.76 z m -19.51,-47.31 c 20.74,-27.35 49.26,-74.08 52.7,-127.28 -35.11,39.98 -48.01,93.25 -52.7,127.28 z m -13.9,-292.63 c -17.37,19.76 -58.04,72.1 -65.66,134.76 2.6,2.32 5.25,4.56 7.75,7.06 31.53,31.53 48.59,71.44 57.92,106.13 9.32,-34.69 26.39,-74.6 57.92,-106.13 2.5,-2.5 5.14,-4.73 7.74,-7.05 -7.63,-62.54 -48.32,-114.97 -65.67,-134.77 z m 65.67,-167.64 c -2.6,-2.32 -5.24,-4.55 -7.74,-7.04 -31.53,-31.54 -48.6,-71.45 -57.92,-106.13 -9.33,34.68 -26.39,74.59 -57.92,106.13 -2.5,2.49 -5.15,4.73 -7.74,7.05 7.63,62.52 48.3,114.94 65.66,134.74 17.36,-19.8 58.03,-72.22 65.66,-134.75 z m -51.76,-157.78 c 4.7,34.04 17.61,87.25 52.68,127.2 -3.44,-53.05 -31.94,-99.8 -52.68,-127.2 z m 74.95,148.17 c 49.67,38.92 115.38,47.17 141.75,48.87 -1.69,-26.25 -9.95,-92.05 -48.88,-141.74 -3.48,0.19 -6.92,0.5 -10.45,0.5 -44.6,0 -84.89,-16.16 -116.01,-34.09 17.93,31.11 34.09,71.41 34.09,116.01 0,3.53 -0.31,6.97 -0.5,10.45 z m 237.26,-181.74 c -19.77,-17.36 -72.12,-58.05 -134.79,-65.65 -2.32,2.59 -4.53,5.25 -7.03,7.74 -31.54,31.54 -71.37,48.59 -106.09,57.92 34.68,9.32 74.54,26.37 106.09,57.93 2.5,2.49 4.71,5.14 7.03,7.74 62.54,-7.63 114.98,-48.32 134.79,-65.68 z m -292.63,-13.83 c 33.98,-4.66 87.2,-17.53 127.28,-52.74 -53.1,3.44 -99.89,31.99 -127.28,52.74 z m 197.11,-216.76 c -26.21,1.69 -92.01,9.91 -141.74,48.88 0.19,3.48 0.5,6.92 0.5,10.45 0,44.6 -16.16,84.89 -34.09,116.01 31.12,-17.93 71.41,-34.09 116.01,-34.09 3.53,0 6.97,0.31 10.45,0.5 38.83,-49.62 47.14,-115.48 48.87,-141.75 z m -197.19,244.44 c 27.34,20.75 74.12,49.31 127.36,52.75 -40.11,-35.24 -93.38,-48.1 -127.36,-52.75 z m -19.5,-47.39 c 20.74,-27.39 49.24,-74.15 52.68,-127.21 -35.07,39.96 -47.98,93.17 -52.68,127.21 z m -13.9,-292.54 c -17.36,19.81 -58.03,72.23 -65.66,134.75 2.59,2.32 5.24,4.55 7.74,7.05 31.53,31.54 48.59,71.45 57.92,106.13 9.32,-34.68 26.39,-74.59 57.92,-106.13 2.5,-2.5 5.14,-4.72 7.74,-7.04 -7.63,-62.53 -48.3,-114.95 -65.66,-134.76 z m 65.66,-167.64 c -2.6,-2.32 -5.24,-4.55 -7.74,-7.05 -31.53,-31.54 -48.6,-71.45 -57.92,-106.13 -9.33,34.68 -26.39,74.59 -57.92,106.13 -2.5,2.49 -5.15,4.73 -7.74,7.05 7.63,62.53 48.31,114.96 65.67,134.76 17.36,-19.77 58.04,-72.11 65.65,-134.76 z m -51.81,-157.85 c 4.67,34.01 17.55,87.21 52.73,127.27 -3.44,-53.1 -31.98,-99.88 -52.73,-127.27 z m 75,148.23 c 49.67,38.92 115.38,47.17 141.75,48.87 -1.69,-26.25 -9.94,-92.04 -48.88,-141.74 -3.47,0.19 -6.92,0.5 -10.45,0.5 -44.59,0 -84.89,-16.16 -116.01,-34.09 17.93,31.12 34.09,71.41 34.09,116 0,3.53 -0.31,6.98 -0.5,10.46 z m 237.26,-181.74 c -19.77,-17.36 -72.12,-58.04 -134.79,-65.65 -2.32,2.59 -4.53,5.25 -7.03,7.74 -31.54,31.54 -71.38,48.59 -106.09,57.92 34.68,9.32 74.54,26.37 106.09,57.92 2.5,2.5 4.71,5.15 7.03,7.75 62.54,-7.63 114.98,-48.32 134.79,-65.68 z m -292.63,-13.83 c 33.98,-4.66 87.2,-17.53 127.28,-52.75 -53.1,3.45 -99.89,32 -127.28,52.75 z m 197.11,-216.76 c -26.21,1.68 -92.01,9.91 -141.74,48.88 0.19,3.48 0.5,6.92 0.5,10.45 0,44.6 -16.16,84.89 -34.09,116.01 31.12,-17.93 71.41,-34.09 116.01,-34.09 3.53,0 6.97,0.31 10.44,0.5 38.84,-49.62 47.15,-115.48 48.88,-141.75 z m -197.19,244.44 c 27.34,20.74 74.12,49.31 127.37,52.75 -40.12,-35.24 -93.39,-48.11 -127.37,-52.75 z m -19.52,-47.32 c 20.75,-27.35 49.27,-74.08 52.71,-127.28 -35.11,39.98 -48.01,93.25 -52.71,127.28 z m -27.78,-0.07 c -4.71,-34.04 -17.61,-87.26 -52.69,-127.22 3.44,53.06 31.94,99.82 52.69,127.22 z m -19.6,19.7 c -27.38,-20.74 -74.17,-49.29 -127.27,-52.74 40.06,35.2 93.23,48.07 127.27,52.74 z m -157.83,79.52 c 2.32,-2.6 4.54,-5.25 7.03,-7.75 31.55,-31.55 71.4,-48.6 106.08,-57.92 -34.68,-9.32 -74.53,-26.37 -106.08,-57.92 -2.49,-2.49 -4.7,-5.14 -7.02,-7.74 -62.54,7.63 -114.99,48.32 -134.79,65.67 19.77,17.37 72.12,58.05 134.78,65.66 z m 124.74,95.1 c 35.08,-39.96 47.98,-93.17 52.69,-127.21 -20.75,27.39 -49.25,74.15 -52.69,127.21 z m 33.1,-146.92 c -33.98,4.66 -87.2,17.53 -127.28,52.74 53.1,-3.44 99.9,-32 127.28,-52.74 z m -21.78,41.42 c -31.12,17.93 -71.41,34.09 -116,34.09 -3.53,0 -6.97,-0.31 -10.45,-0.5 -38.83,49.62 -47.14,115.48 -48.87,141.75 26.2,-1.69 92,-9.91 141.74,-48.88 -0.2,-3.48 -0.51,-6.93 -0.51,-10.46 0,-44.59 16.16,-84.88 34.09,-116 z m -422.42,30.64 c 46.22,67.63 46.03,152.34 45.99,156.42 l -0.41,11.06 h -11.07 c -10.22,0 -90.95,-1.52 -155.99,-46.02 -12.19,64.9 -53.46,116.18 -70.58,135.17 17.12,19 58.39,70.27 70.58,135.18 65.04,-44.5 145.77,-46.02 155.99,-46.02 l 11.37,0.1 0.11,10.96 c 0.04,4.08 0.23,88.79 -45.99,156.42 64.89,12.2 116.16,53.45 135.15,70.57 18.99,-17.12 70.25,-58.37 135.14,-70.57 -46.22,-67.63 -46.02,-152.34 -45.99,-156.42 l 0.11,-10.95 11.37,-0.11 c 10.23,0 90.95,1.52 155.99,46.02 12.2,-64.91 53.46,-116.18 70.58,-135.18 -17.12,-18.99 -58.38,-70.27 -70.58,-135.17 -65.02,44.48 -145.75,46.02 -156.39,46.02 0,0 -0.01,0 -0.02,0 l -10.95,-0.11 -0.11,-10.95 c -0.03,-4.08 -0.23,-88.79 45.99,-156.42 -64.89,-12.2 -116.15,-53.45 -135.14,-70.57 -18.99,17.12 -70.26,58.37 -135.15,70.57 z m -23.1,-143.83 c -31.54,31.54 -71.38,48.59 -106.09,57.92 34.68,9.32 74.54,26.37 106.09,57.92 2.49,2.5 4.71,5.15 7.03,7.75 62.53,-7.63 114.96,-48.3 134.77,-65.67 -19.81,-17.36 -72.24,-58.04 -134.78,-65.66 -2.31,2.6 -4.53,5.25 -7.02,7.74 z m -150.81,44.08 c 33.98,-4.66 87.2,-17.53 127.28,-52.75 -53.1,3.45 -99.9,32.01 -127.28,52.75 z m -19.59,-19.64 c 20.74,-27.35 49.26,-74.08 52.7,-127.28 -35.11,39.98 -48.01,93.25 -52.7,127.28 z m -27.8,-0.08 c -4.7,-34.03 -17.61,-87.25 -52.68,-127.2 3.44,53.05 31.94,99.81 52.68,127.2 z m -177.42,99.23 c 2.32,-2.6 4.54,-5.25 7.04,-7.75 31.54,-31.55 71.38,-48.6 106.06,-57.92 -34.68,-9.32 -74.52,-26.37 -106.06,-57.92 -2.5,-2.49 -4.71,-5.14 -7.03,-7.74 -62.54,7.62 -114.99,48.32 -134.8,65.67 19.77,17.37 72.12,58.05 134.79,65.66 z m -427.17,458.65 c -35.08,39.96 -47.98,93.17 -52.69,127.21 20.74,-27.39 49.24,-74.15 52.69,-127.21 z m -52.69,194.32 c 4.71,34.04 17.61,87.25 52.69,127.2 -3.45,-53.05 -31.95,-99.8 -52.69,-127.2 z m 170.39,-91.48 c -31.54,31.54 -71.37,48.59 -106.09,57.92 34.69,9.32 74.54,26.37 106.09,57.93 2.5,2.49 4.71,5.14 7.03,7.74 62.54,-7.63 114.99,-48.32 134.79,-65.68 -19.77,-17.36 -72.12,-58.05 -134.79,-65.65 -2.32,2.59 -4.53,5.25 -7.03,7.74 z m -150.8,44.08 c 33.98,-4.66 87.19,-17.53 127.27,-52.74 -53.09,3.44 -99.89,31.99 -127.27,52.74 z m 127.27,80.43 c -40.11,-35.24 -93.37,-48.1 -127.35,-52.75 27.34,20.74 74.11,49.31 127.35,52.75 z m -71.91,115.14 c 49.68,38.92 115.38,47.17 141.75,48.87 -1.69,-26.25 -9.94,-92.04 -48.88,-141.74 -3.47,0.19 -6.91,0.5 -10.45,0.5 -44.59,0 -84.89,-16.16 -116,-34.09 17.93,31.11 34.09,71.41 34.09,116.01 0,3.53 -0.31,6.97 -0.51,10.45 z m -33.58,-236.99 c 31.12,-17.93 71.41,-34.09 116,-34.09 3.53,0 6.97,0.31 10.45,0.5 38.83,-49.62 47.14,-115.48 48.87,-141.75 -26.21,1.69 -92,9.91 -141.74,48.88 0.2,3.48 0.51,6.92 0.51,10.45 0,44.6 -16.16,84.89 -34.09,116.01 z m 445.53,798.27 c 31.54,-31.55 71.39,-48.6 106.06,-57.92 -34.67,-9.32 -74.52,-26.37 -106.06,-57.92 -2.5,-2.5 -4.71,-5.15 -7.03,-7.74 -62.54,7.62 -114.99,48.31 -134.8,65.67 19.77,17.37 72.13,58.05 134.8,65.65 2.32,-2.59 4.53,-5.24 7.03,-7.74 z m 150.8,-44.08 c -33.98,4.66 -87.2,17.53 -127.28,52.75 53.1,-3.45 99.9,-32 127.28,-52.75 z m 19.59,19.72 c -20.74,27.39 -49.25,74.14 -52.69,127.2 35.08,-39.96 47.98,-93.17 52.69,-127.2 z m 27.8,0 c 4.7,34.03 17.61,87.24 52.69,127.2 -3.45,-53.06 -31.95,-99.81 -52.69,-127.2 z m 19.58,-19.72 c 27.38,20.75 74.18,49.3 127.28,52.75 -40.08,-35.22 -93.3,-48.09 -127.28,-52.75 z m 157.83,-79.5 c -2.31,2.59 -4.53,5.24 -7.02,7.74 -31.54,31.54 -71.38,48.59 -106.1,57.91 34.69,9.32 74.54,26.37 106.1,57.93 2.49,2.5 4.71,5.15 7.02,7.74 62.54,-7.62 114.97,-48.3 134.78,-65.66 -19.81,-17.36 -72.24,-58.04 -134.78,-65.66 z m -5.08,-679.48 c 6.1,18.93 9.47,39.09 9.47,60.06 0,20.96 -3.37,41.11 -9.47,60.05 1.71,1.86 3.4,3.73 5.08,5.61 62.54,-7.63 114.97,-48.3 134.78,-65.67 -19.81,-17.36 -72.24,-58.04 -134.78,-65.66 -1.68,1.88 -3.37,3.75 -5.08,5.61 z m -97.01,-113.99 c 36.4,18.7 66.12,48.42 84.82,84.82 2.56,0.1 5.12,0.23 7.67,0.37 38.84,-49.62 47.15,-115.48 48.87,-141.75 -26.2,1.69 -92,9.91 -141.73,48.88 0.14,2.56 0.27,5.11 0.37,7.68 z m -275.45,234.1 c -6.11,-18.93 -9.48,-39.09 -9.48,-60.05 0,-20.97 3.37,-41.13 9.48,-60.06 -1.72,-1.86 -3.41,-3.73 -5.09,-5.61 -62.55,7.62 -114.99,48.32 -134.8,65.67 19.77,17.37 72.13,58.05 134.8,65.66 1.68,-1.88 3.37,-3.75 5.09,-5.61 z m 97,113.99 c -36.4,-18.7 -66.12,-48.42 -84.82,-84.82 -2.56,-0.1 -5.11,-0.23 -7.67,-0.37 -38.83,49.62 -47.14,115.48 -48.87,141.75 26.2,-1.69 92,-9.91 141.73,-48.89 -0.14,-2.55 -0.27,-5.1 -0.37,-7.67 z m 178.08,7.68 c 49.67,38.92 115.38,47.17 141.75,48.87 -1.7,-26.25 -9.95,-92.05 -48.88,-141.74 -2.56,0.14 -5.11,0.27 -7.68,0.37 -18.7,36.4 -48.42,66.12 -84.82,84.82 -0.1,2.57 -0.23,5.12 -0.37,7.68 z m -22.26,342.6 c -35.11,39.98 -48.01,93.25 -52.7,127.28 20.74,-27.35 49.26,-74.08 52.7,-127.28 z m -33.11,146.91 c 33.98,-4.65 87.2,-17.52 127.28,-52.74 -53.1,3.45 -99.9,32 -127.28,52.74 z m 21.78,-41.42 c 31.12,-17.93 71.41,-34.09 116,-34.09 3.53,0 6.97,0.31 10.45,0.51 38.84,-49.63 47.15,-115.48 48.87,-141.75 -26.2,1.68 -92,9.9 -141.73,48.88 0.19,3.47 0.51,6.91 0.51,10.45 0,44.59 -16.17,84.88 -34.1,116 z m -113.18,-129.02 c 31.53,31.53 48.59,71.45 57.92,106.13 9.32,-34.68 26.38,-74.6 57.92,-106.13 2.5,-2.5 5.14,-4.73 7.74,-7.05 -7.63,-62.53 -48.32,-114.97 -65.67,-134.77 -17.37,19.76 -58.04,72.11 -65.66,134.77 2.6,2.32 5.25,4.55 7.75,7.05 z m 44.06,150.79 c -4.67,-34 -17.55,-87.21 -52.73,-127.26 3.45,53.09 31.99,99.87 52.73,127.26 z m -146.91,-33.09 c 40.08,35.22 93.31,48.09 127.35,52.75 -27.34,-20.75 -74.11,-49.31 -127.35,-52.75 z m 71.91,-115.13 c -49.73,-38.98 -115.53,-47.2 -141.73,-48.88 1.73,26.27 10.04,92.12 48.87,141.75 3.48,-0.2 6.92,-0.51 10.44,-0.51 44.6,0 84.9,16.16 116.01,34.1 -17.93,-31.12 -34.09,-71.42 -34.09,-116.01 0,-3.54 0.31,-6.98 0.5,-10.45 z m 23.2,-312.03 c 7.62,62.53 48.3,114.95 65.66,134.75 17.36,-19.8 58.03,-72.22 65.66,-134.75 -1.88,-1.68 -3.75,-3.38 -5.61,-5.1 -18.93,6.1 -39.09,9.47 -60.05,9.47 -20.97,0 -41.12,-3.37 -60.06,-9.47 -1.85,1.72 -3.72,3.42 -5.6,5.1 z m -23.2,-373.06 c -49.73,-38.97 -115.53,-47.19 -141.73,-48.88 1.73,26.27 10.04,92.13 48.87,141.75 2.55,-0.14 5.11,-0.27 7.67,-0.37 18.7,-36.4 48.42,-66.12 84.82,-84.82 0.1,-2.57 0.23,-5.12 0.37,-7.68 z m 55.44,-517.2 c -27.34,-20.74 -74.11,-49.3 -127.35,-52.75 40.08,35.22 93.31,48.09 127.35,52.75 z m -33.17,174.6 c 35.08,-39.95 47.98,-93.17 52.69,-127.2 -20.74,27.39 -49.25,74.15 -52.69,127.2 z m 33.1,-146.91 c -33.98,4.66 -87.2,17.53 -127.28,52.74 53.1,-3.44 99.9,-32 127.28,-52.74 z m -21.78,41.42 c -31.12,17.93 -71.41,34.09 -116.01,34.09 -3.53,0 -6.97,-0.31 -10.44,-0.5 -38.83,49.62 -47.14,115.48 -48.87,141.75 26.2,-1.69 92,-9.91 141.73,-48.88 -0.19,-3.48 -0.5,-6.93 -0.5,-10.46 0,-44.59 16.16,-84.88 34.09,-116 z m 113.19,129.03 c -31.54,-31.54 -48.6,-71.46 -57.92,-106.14 -9.33,34.68 -26.39,74.6 -57.92,106.14 -2.5,2.49 -5.15,4.72 -7.74,7.04 7.63,62.53 48.31,114.97 65.67,134.77 17.36,-19.77 58.04,-72.11 65.65,-134.76 -2.6,-2.32 -5.24,-4.55 -7.74,-7.05 z m -44.07,-150.8 c 4.67,34 17.55,87.21 52.74,127.27 -3.45,-53.1 -32,-99.89 -52.74,-127.27 z m 146.91,33.09 c -40.08,-35.22 -93.3,-48.09 -127.28,-52.74 27.38,20.74 74.18,49.3 127.28,52.74 z m -71.91,115.14 c 49.66,38.91 115.35,47.17 141.73,48.87 -1.73,-26.28 -10.04,-92.13 -48.87,-141.74 -3.47,0.19 -6.91,0.5 -10.45,0.5 -44.59,0 -84.88,-16.16 -115.99,-34.09 17.93,31.12 34.09,71.41 34.09,116 0,3.53 -0.32,6.98 -0.51,10.46 z m -23.19,312.01 c -7.63,-62.52 -48.3,-114.94 -65.66,-134.75 -17.36,19.81 -58.04,72.23 -65.66,134.76 1.88,1.68 3.75,3.38 5.61,5.1 18.93,-6.1 39.08,-9.47 60.05,-9.47 20.96,0 41.11,3.37 60.05,9.47 1.86,-1.72 3.73,-3.42 5.61,-5.11 z m 552.83,352.11 c 35.11,-39.98 48,-93.25 52.7,-127.28 -20.74,27.34 -49.26,74.08 -52.7,127.28 z m 52.69,-194.32 c -4.71,-34.04 -17.61,-87.25 -52.69,-127.21 3.44,53.06 31.95,99.82 52.69,127.21 z m -19.6,19.7 c -27.38,-20.74 -74.17,-49.29 -127.27,-52.73 40.06,35.19 93.23,48.06 127.27,52.73 z m -150.8,71.78 c 31.55,-31.55 71.4,-48.6 106.08,-57.93 -34.68,-9.32 -74.53,-26.37 -106.08,-57.92 -2.49,-2.49 -4.7,-5.14 -7.02,-7.74 -62.54,7.62 -114.99,48.32 -134.79,65.67 19.77,17.37 72.12,58.05 134.79,65.66 2.32,-2.59 4.53,-5.25 7.02,-7.74 z m 150.81,-44.08 c -33.98,4.66 -87.19,17.53 -127.28,52.74 53.11,-3.44 99.9,-32 127.28,-52.74 z m -21.78,41.42 c -31.12,17.93 -71.41,34.09 -116,34.09 -3.53,0 -6.97,-0.31 -10.45,-0.5 -38.83,49.62 -47.14,115.48 -48.87,141.75 26.2,-1.69 92,-9.91 141.74,-48.88 -0.2,-3.48 -0.51,-6.92 -0.51,-10.45 0,-44.6 16.16,-84.89 34.09,-116.01 z m -33.58,-236.99 c -49.74,-38.97 -115.54,-47.19 -141.74,-48.88 1.73,26.27 10.04,92.13 48.87,141.75 3.48,-0.19 6.92,-0.5 10.45,-0.5 44.59,0 84.88,16.15 116,34.08 -17.93,-31.11 -34.09,-71.41 -34.09,-116 0,-3.53 0.31,-6.97 0.51,-10.45 z m -118.54,780.9 c -46.23,-67.62 -46.03,-152.34 -46,-156.41 l 0.11,-10.96 11.37,-0.1 c 10.23,0 90.95,1.51 155.99,46.01 12.2,-64.9 53.46,-116.18 70.58,-135.18 -17.12,-18.99 -58.38,-70.27 -70.58,-135.17 -65.02,44.48 -145.75,46.02 -156.39,46.02 0,0 -0.01,0 -0.02,0 l -10.95,-0.11 -0.11,-10.95 c -0.03,-4.08 -0.23,-88.79 46,-156.42 -64.89,-12.2 -116.16,-53.45 -135.15,-70.57 -18.99,17.12 -70.26,58.37 -135.15,70.57 46.22,67.63 46.03,152.34 45.99,156.42 l -0.42,11.06 h -11.06 c -10.22,0 -90.95,-1.52 -155.99,-46.02 -12.19,64.9 -53.46,116.18 -70.58,135.17 17.12,19 58.39,70.28 70.58,135.18 65.04,-44.5 145.77,-46.01 155.99,-46.01 l 11.37,0.1 0.11,10.96 c 0.04,4.07 0.23,88.79 -45.99,156.41 64.89,12.2 116.16,53.46 135.15,70.57 18.99,-17.11 70.26,-58.37 135.15,-70.57 z m 23.09,143.83 c 31.55,-31.55 71.4,-48.6 106.08,-57.92 -34.68,-9.32 -74.53,-26.38 -106.08,-57.92 -2.49,-2.5 -4.7,-5.15 -7.02,-7.74 -62.54,7.62 -114.99,48.31 -134.79,65.67 19.77,17.37 72.12,58.05 134.79,65.65 2.31,-2.59 4.53,-5.24 7.02,-7.74 z m 117.71,102.84 c 35.08,-39.95 47.98,-93.17 52.69,-127.2 -20.75,27.39 -49.25,74.15 -52.69,127.2 z m -94.18,-94.17 c 53.11,-3.45 99.9,-32 127.28,-52.75 -33.98,4.66 -87.19,17.53 -127.28,52.75 z m 146.92,-100.09 c -4.67,-34 -17.55,-87.22 -52.74,-127.27 3.44,53.1 31.99,99.89 52.74,127.27 z m -146.92,-33.09 c 40.06,35.19 93.23,48.07 127.27,52.73 -27.38,-20.74 -74.17,-49.28 -127.27,-52.73 z m 71.92,-115.14 c -49.74,-38.97 -115.54,-47.19 -141.74,-48.87 1.73,26.27 10.04,92.12 48.87,141.75 3.48,-0.2 6.92,-0.51 10.45,-0.51 44.59,0 84.88,16.16 116,34.09 -17.93,-31.12 -34.09,-71.41 -34.09,-116 0,-3.54 0.31,-6.98 0.51,-10.46 z m 33.58,237 c -31.12,17.93 -71.41,34.09 -116,34.09 -3.53,0 -6.97,-0.31 -10.45,-0.51 -38.83,49.62 -47.14,115.48 -48.87,141.75 26.2,-1.68 92,-9.91 141.74,-48.88 -0.2,-3.48 -0.51,-6.92 -0.51,-10.45 0,-44.59 16.16,-84.89 34.09,-116 z m -540.96,126.45 c 49.67,38.93 115.38,47.18 141.75,48.87 -1.7,-26.25 -9.95,-92.04 -48.88,-141.74 -3.48,0.2 -6.92,0.51 -10.46,0.51 -44.59,0 -84.88,-16.16 -115.99,-34.09 17.93,31.11 34.09,71.41 34.09,116 0,3.53 -0.32,6.97 -0.51,10.45 z m -88.85,144.37 c 17.36,-19.8 58.03,-72.23 65.66,-134.75 -2.6,-2.32 -5.24,-4.55 -7.74,-7.05 -31.54,-31.53 -48.6,-71.45 -57.92,-106.13 -9.33,34.68 -26.39,74.6 -57.92,106.13 -2.5,2.5 -5.15,4.73 -7.74,7.05 7.63,62.52 48.3,114.95 65.66,134.75 z m 66.59,198.23 c -35.08,39.95 -47.99,93.17 -52.69,127.2 20.74,-27.39 49.24,-74.15 52.69,-127.2 z m -33.11,146.91 c 33.98,-4.65 87.2,-17.53 127.28,-52.74 -53.1,3.45 -99.9,32 -127.28,52.74 z m 21.79,-41.42 c 31.11,-17.93 71.4,-34.09 115.99,-34.09 3.54,0 6.98,0.31 10.45,0.5 38.84,-49.62 47.15,-115.47 48.87,-141.74 -26.2,1.68 -92,9.9 -141.73,48.88 0.19,3.47 0.51,6.92 0.51,10.45 0,44.59 -16.16,84.88 -34.09,116 z m -113.19,-129.02 c 31.53,31.53 48.59,71.45 57.92,106.13 9.32,-34.68 26.38,-74.6 57.92,-106.13 2.5,-2.5 5.14,-4.73 7.74,-7.05 -7.63,-62.53 -48.32,-114.97 -65.67,-134.77 -17.37,19.77 -58.04,72.11 -65.66,134.77 2.6,2.32 5.25,4.55 7.75,7.05 z m 44.01,150.73 c -4.7,-34.04 -17.61,-87.25 -52.68,-127.2 3.44,53.05 31.95,99.8 52.68,127.2 z m -146.86,-33.03 c 40.08,35.22 93.31,48.09 127.35,52.74 -27.34,-20.74 -74.11,-49.3 -127.35,-52.74 z m 71.91,-115.13 c -49.73,-38.98 -115.53,-47.2 -141.73,-48.88 1.73,26.27 10.04,92.12 48.87,141.74 3.47,-0.19 6.91,-0.5 10.44,-0.5 44.6,0 84.89,16.16 116.01,34.09 -17.93,-31.11 -34.09,-71.41 -34.09,-116 0,-3.53 0.31,-6.98 0.5,-10.45 z m 33.59,-448.1 c -31.12,17.94 -71.41,34.1 -116.01,34.1 -3.52,0 -6.96,-0.31 -10.44,-0.51 -38.83,49.62 -47.14,115.48 -48.87,141.75 26.2,-1.68 92,-9.91 141.73,-48.88 -0.19,-3.48 -0.5,-6.92 -0.5,-10.45 0,-44.6 16.16,-84.89 34.09,-116.01 z m -543.9,-262.63 c 65.04,-44.5 145.76,-46.01 155.98,-46.01 l 11.38,0.1 0.1,10.96 c 0.04,4.07 0.24,88.79 -45.98,156.41 64.89,12.2 116.15,53.45 135.14,70.57 19,-17.12 70.26,-58.37 135.15,-70.57 -46.22,-67.62 -46.02,-152.34 -45.99,-156.41 l 0.11,-10.96 11.37,-0.1 c 10.23,0 90.95,1.51 155.99,46.01 12.2,-64.9 53.46,-116.18 70.58,-135.18 -17.12,-18.99 -58.39,-70.27 -70.58,-135.17 -65.02,44.48 -145.75,46.02 -156.39,46.02 h -0.02 l -10.95,-0.11 -0.11,-10.95 c -0.03,-4.08 -0.23,-88.79 45.99,-156.42 -64.89,-12.2 -116.15,-53.45 -135.15,-70.57 -18.99,17.12 -70.25,58.37 -135.14,70.57 46.22,67.63 46.02,152.34 45.98,156.42 l -0.41,11.06 h -11.07 c -10.22,0 -90.94,-1.52 -155.98,-46.02 -12.2,64.9 -53.46,116.18 -70.58,135.17 17.12,19 58.38,70.28 70.58,135.18 z m -19.33,46.61 c -35.1,39.98 -48,93.25 -52.7,127.28 20.74,-27.35 49.26,-74.08 52.7,-127.28 z m -52.73,194.26 c 4.67,34 17.55,87.21 52.73,127.26 -3.45,-53.09 -31.99,-99.88 -52.73,-127.26 z m 19.55,-19.67 c 27.33,20.75 74.11,49.31 127.35,52.76 -40.11,-35.25 -93.38,-48.11 -127.35,-52.76 z m 150.88,-71.75 c -31.54,31.54 -71.37,48.59 -106.09,57.91 34.69,9.32 74.54,26.37 106.09,57.93 2.5,2.5 4.71,5.15 7.03,7.74 62.54,-7.62 114.99,-48.31 134.79,-65.67 -19.77,-17.37 -72.12,-58.05 -134.79,-65.66 -2.32,2.6 -4.53,5.25 -7.03,7.75 z m -150.8,44.07 c 33.97,-4.65 87.19,-17.52 127.27,-52.74 -53.1,3.45 -99.89,32 -127.27,52.74 z m 21.78,-41.41 c 31.11,-17.94 71.41,-34.1 116,-34.1 3.53,0 6.97,0.31 10.45,0.51 38.83,-49.63 47.14,-115.48 48.87,-141.75 -26.21,1.68 -92,9.9 -141.74,48.88 0.2,3.47 0.51,6.91 0.51,10.45 0,44.59 -16.16,84.89 -34.09,116.01 z m 33.58,236.98 c 49.67,38.92 115.36,47.17 141.74,48.87 -1.73,-26.27 -10.04,-92.13 -48.87,-141.74 -3.48,0.2 -6.92,0.51 -10.45,0.51 -44.59,0 -84.88,-16.16 -116,-34.1 17.93,31.12 34.09,71.41 34.09,116.01 0,3.53 -0.31,6.97 -0.51,10.45 z m 118.55,-1465.98 c 46.22,67.63 46.02,152.34 45.98,156.42 l -0.41,11.06 h -11.06 c -10.22,0 -90.95,-1.52 -156,-46.02 -12.19,64.9 -53.45,116.18 -70.57,135.17 17.12,19 58.38,70.27 70.58,135.18 65.04,-44.5 145.77,-46.02 155.99,-46.02 l 11.37,0.1 0.1,10.96 c 0.04,4.08 0.24,88.79 -45.98,156.42 64.89,12.2 116.15,53.45 135.14,70.57 19,-17.12 70.26,-58.37 135.15,-70.57 -46.22,-67.63 -46.02,-152.34 -45.99,-156.42 l 0.11,-10.95 11.37,-0.11 c 10.22,0 90.95,1.52 155.99,46.02 12.2,-64.91 53.46,-116.18 70.58,-135.18 -17.12,-18.99 -58.38,-70.27 -70.58,-135.17 -65.02,44.48 -145.75,46.02 -156.39,46.02 h -0.02 l -10.95,-0.11 -0.11,-10.95 c -0.03,-4.08 -0.23,-88.79 45.99,-156.42 -64.89,-12.2 -116.15,-53.45 -135.15,-70.57 -18.99,17.12 -70.25,58.37 -135.14,70.57 z m -23.11,-143.83 c -31.54,31.54 -71.37,48.59 -106.09,57.92 34.69,9.32 74.54,26.37 106.09,57.92 2.5,2.5 4.71,5.15 7.03,7.75 62.54,-7.63 114.99,-48.32 134.79,-65.68 -19.77,-17.36 -72.12,-58.05 -134.79,-65.65 -2.32,2.59 -4.53,5.25 -7.03,7.74 z m -150.8,44.08 c 33.97,-4.66 87.19,-17.53 127.27,-52.75 -53.1,3.45 -99.89,32.01 -127.27,52.75 z m 33.1,-146.92 c -35.1,39.98 -48,93.25 -52.7,127.28 20.74,-27.35 49.26,-74.08 52.7,-127.28 z m -52.73,194.26 c 4.67,34.01 17.55,87.21 52.73,127.27 -3.45,-53.1 -31.99,-99.88 -52.73,-127.27 z m 146.91,33.09 c -40.11,-35.25 -93.39,-48.11 -127.36,-52.76 27.33,20.75 74.11,49.32 127.36,52.76 z m -71.92,115.14 c 49.68,38.92 115.38,47.17 141.75,48.87 -1.69,-26.25 -9.94,-92.04 -48.87,-141.74 -3.48,0.19 -6.92,0.5 -10.46,0.5 -44.59,0 -84.88,-16.16 -116,-34.09 17.93,31.12 34.09,71.41 34.09,116 0,3.53 -0.31,6.98 -0.51,10.46 z m -33.58,-236.99 c 31.11,-17.93 71.41,-34.09 116,-34.09 3.53,0 6.97,0.31 10.44,0.5 38.84,-49.62 47.15,-115.48 48.88,-141.75 -26.21,1.68 -92,9.91 -141.74,48.88 0.2,3.48 0.51,6.92 0.51,10.45 0,44.6 -16.16,84.89 -34.09,116.01 z m 540.96,-126.46 c -49.73,-38.97 -115.53,-47.2 -141.73,-48.88 1.73,26.27 10.04,92.13 48.87,141.75 3.48,-0.19 6.92,-0.5 10.44,-0.5 44.6,0 84.9,16.16 116.01,34.09 -17.93,-31.12 -34.09,-71.41 -34.09,-116.01 0,-3.53 0.31,-6.97 0.5,-10.45 z m 88.85,-144.39 c -17.37,19.77 -58.04,72.11 -65.66,134.77 2.6,2.32 5.25,4.55 7.75,7.05 31.53,31.53 48.59,71.45 57.92,106.13 9.32,-34.68 26.38,-74.6 57.92,-106.13 2.5,-2.5 5.14,-4.73 7.74,-7.05 -7.63,-62.53 -48.32,-114.96 -65.67,-134.77 z m -33.41,-372.81 c -27.34,-20.75 -74.11,-49.31 -127.35,-52.75 40.08,35.22 93.31,48.09 127.35,52.75 z m -33.17,174.6 c 35.08,-39.96 47.98,-93.17 52.69,-127.2 -20.74,27.39 -49.24,74.14 -52.69,127.2 z m 33.1,-146.92 c -33.98,4.66 -87.2,17.53 -127.28,52.75 53.1,-3.45 99.9,-32 127.28,-52.75 z m -21.78,41.42 c -31.12,17.94 -71.41,34.1 -116.01,34.1 -3.52,0 -6.96,-0.31 -10.44,-0.51 -38.83,49.62 -47.14,115.48 -48.87,141.75 26.2,-1.68 92,-9.91 141.73,-48.88 -0.19,-3.48 -0.5,-6.92 -0.5,-10.45 0,-44.59 16.16,-84.89 34.09,-116.01 z m 113.19,129.03 c -31.54,-31.53 -48.6,-71.45 -57.92,-106.13 -9.33,34.68 -26.39,74.6 -57.92,106.13 -2.5,2.5 -5.15,4.73 -7.74,7.05 7.62,62.52 48.3,114.95 65.66,134.75 17.36,-19.8 58.03,-72.23 65.66,-134.75 -2.6,-2.32 -5.24,-4.55 -7.74,-7.05 z m 102.84,-250.88 c -53.1,3.45 -99.9,32 -127.28,52.74 33.98,-4.65 87.2,-17.52 127.28,-52.74 z m -146.86,100.15 c 4.7,34.03 17.61,87.24 52.69,127.2 -3.45,-53.06 -31.95,-99.81 -52.69,-127.2 z m 146.86,33.03 c -40.08,-35.22 -93.3,-48.09 -127.28,-52.75 27.38,20.75 74.18,49.3 127.28,52.75 z m -71.91,115.13 c 49.67,38.93 115.38,47.18 141.75,48.88 -1.7,-26.26 -9.95,-92.05 -48.88,-141.75 -3.48,0.2 -6.92,0.51 -10.46,0.51 -44.59,0 -84.88,-16.16 -115.99,-34.09 17.93,31.12 34.09,71.41 34.09,116 0,3.53 -0.32,6.98 -0.51,10.45 z m -33.59,448.1 c 31.12,-17.93 71.41,-34.09 116,-34.09 3.53,0 6.97,0.31 10.45,0.5 38.84,-49.62 47.15,-115.48 48.87,-141.75 -26.2,1.68 -92,9.91 -141.73,48.88 0.19,3.48 0.51,6.92 0.51,10.45 0,44.6 -16.17,84.89 -34.1,116.01 z m 540.97,-126.47 c -49.75,-38.97 -115.56,-47.19 -141.76,-48.88 1.7,26.25 9.94,92.06 48.89,141.76 3.47,-0.19 6.92,-0.5 10.45,-0.5 44.59,0 84.88,16.16 116,34.09 -17.93,-31.12 -34.09,-71.41 -34.09,-116.01 0,-3.53 0.31,-6.98 0.51,-10.46 z m 88.84,-144.38 c -17.37,19.77 -58.04,72.11 -65.66,134.76 2.6,2.33 5.25,4.56 7.75,7.06 31.53,31.53 48.59,71.45 57.92,106.13 9.32,-34.68 26.39,-74.6 57.92,-106.13 2.5,-2.5 5.14,-4.73 7.74,-7.05 -7.64,-62.53 -48.32,-114.96 -65.67,-134.77 z m -66.58,-198.2 c 35.08,-39.96 47.98,-93.18 52.69,-127.21 -20.74,27.39 -49.25,74.14 -52.69,127.21 z m 33.1,-146.93 c -33.98,4.66 -87.19,17.53 -127.28,52.75 53.11,-3.45 99.9,-32 127.28,-52.75 z m -21.78,41.43 c -31.12,17.93 -71.41,34.09 -116,34.09 -3.53,0 -6.97,-0.31 -10.45,-0.51 -38.83,49.62 -47.14,115.48 -48.87,141.75 26.2,-1.68 92,-9.91 141.74,-48.87 -0.2,-3.48 -0.51,-6.92 -0.51,-10.46 0,-44.59 16.16,-84.88 34.09,-116 z m 120.93,136.07 c -2.6,-2.32 -5.24,-4.55 -7.74,-7.05 -31.53,-31.53 -48.6,-71.45 -57.92,-106.13 -9.33,34.68 -26.39,74.6 -57.92,106.13 -2.5,2.5 -5.15,4.73 -7.74,7.05 7.63,62.52 48.3,114.95 65.66,134.75 17.36,-19.8 58.03,-72.23 65.66,-134.75 z m -51.76,-157.78 c 4.7,34.03 17.61,87.24 52.68,127.2 -3.44,-53.06 -31.94,-99.81 -52.68,-127.2 z m 74.95,148.16 c 49.67,38.93 115.38,47.18 141.75,48.88 -1.69,-26.26 -9.95,-92.05 -48.88,-141.75 -3.48,0.2 -6.92,0.51 -10.45,0.51 -44.6,0 -84.89,-16.16 -116.01,-34.1 17.93,31.12 34.09,71.42 34.09,116.01 0,3.53 -0.31,6.97 -0.5,10.45 z m 237.26,-181.73 c -19.77,-17.37 -72.12,-58.05 -134.79,-65.66 -2.32,2.6 -4.53,5.25 -7.03,7.75 -31.54,31.54 -71.38,48.59 -106.09,57.91 34.68,9.32 74.54,26.38 106.09,57.93 2.5,2.5 4.71,5.15 7.03,7.74 62.54,-7.62 114.98,-48.31 134.79,-65.67 z m -292.63,-13.84 c 33.98,-4.65 87.2,-17.52 127.28,-52.74 -53.1,3.45 -99.89,32 -127.28,52.74 z m 197.11,-216.75 c -26.21,1.68 -92.01,9.91 -141.74,48.88 0.19,3.48 0.5,6.92 0.5,10.45 0,44.59 -16.16,84.89 -34.09,116.01 31.12,-17.94 71.41,-34.1 116.01,-34.1 3.53,0 6.97,0.31 10.44,0.51 38.84,-49.62 47.15,-115.48 48.88,-141.75 z m -197.19,244.43 c 27.34,20.75 74.12,49.32 127.36,52.76 -40.11,-35.25 -93.38,-48.11 -127.36,-52.76 z m 33.19,-174.59 c -35.11,39.98 -48.01,93.25 -52.7,127.28 20.74,-27.35 49.26,-74.08 52.7,-127.28 z m -1930.52,95.09 c -2.32,2.6 -4.53,5.25 -7.03,7.75 -31.54,31.54 -71.38,48.59 -106.09,57.91 34.68,9.32 74.54,26.38 106.09,57.93 2.5,2.5 4.71,5.15 7.03,7.74 62.54,-7.62 114.98,-48.31 134.79,-65.67 -19.77,-17.37 -72.12,-58.05 -134.79,-65.66 z m -157.83,51.82 c 33.98,-4.65 87.19,-17.52 127.27,-52.74 -53.1,3.45 -99.89,32 -127.27,52.74 z m 197.1,-216.75 c -26.2,1.68 -92,9.91 -141.73,48.87 0.19,3.48 0.5,6.92 0.5,10.46 0,44.59 -16.16,84.89 -34.09,116 31.12,-17.93 71.41,-34.09 116,-34.09 3.53,0 6.97,0.31 10.45,0.51 38.83,-49.62 47.14,-115.48 48.87,-141.75 z m -69.83,297.19 c -40.08,-35.22 -93.3,-48.09 -127.28,-52.75 27.38,20.75 74.18,49.3 127.28,52.75 z m -71.4,104.68 c 0,3.54 -0.31,6.98 -0.5,10.46 49.67,38.92 115.37,47.17 141.74,48.87 -1.69,-26.26 -9.94,-92.05 -48.88,-141.75 -3.47,0.2 -6.92,0.51 -10.45,0.51 -44.59,0 -84.88,-16.16 -116,-34.09 17.93,31.12 34.09,71.41 34.09,116 z m 101.96,448.15 c -2.32,2.59 -4.53,5.25 -7.03,7.74 -31.54,31.54 -71.37,48.59 -106.09,57.92 34.68,9.32 74.54,26.37 106.09,57.92 2.5,2.5 4.71,5.15 7.03,7.75 62.54,-7.63 114.98,-48.32 134.79,-65.68 -19.77,-17.36 -72.12,-58.04 -134.79,-65.65 z m 39.27,-164.94 c -26.2,1.68 -92,9.9 -141.73,48.87 0.19,3.48 0.5,6.93 0.5,10.46 0,44.6 -16.16,84.89 -34.09,116.01 31.12,-17.93 71.41,-34.09 116,-34.09 3.53,0 6.97,0.31 10.45,0.5 38.83,-49.62 47.14,-115.48 48.87,-141.75 z m -69.83,164.01 c -53.1,3.45 -99.89,32.01 -127.27,52.75 33.98,-4.66 87.19,-17.53 127.27,-52.75 z m 0.01,133.18 c -40.08,-35.21 -93.3,-48.08 -127.28,-52.74 27.38,20.74 74.17,49.3 127.28,52.74 z m -71.41,104.68 c 0,3.53 -0.31,6.98 -0.5,10.46 49.67,38.92 115.37,47.17 141.74,48.87 -1.69,-26.25 -9.94,-92.04 -48.87,-141.74 -3.48,0.19 -6.93,0.5 -10.46,0.5 -44.59,0 -84.88,-16.16 -116,-34.09 17.93,31.12 34.09,71.41 34.09,116 z m 101.96,448.15 c -2.32,2.59 -4.53,5.25 -7.03,7.74 -31.54,31.54 -71.38,48.59 -106.09,57.92 34.68,9.32 74.54,26.37 106.09,57.93 2.5,2.49 4.71,5.14 7.03,7.74 62.54,-7.63 114.98,-48.32 134.79,-65.68 -19.77,-17.36 -72.12,-58.05 -134.79,-65.65 z m 39.27,-164.94 c -26.2,1.69 -92,9.91 -141.73,48.88 0.19,3.48 0.5,6.92 0.5,10.45 0,44.59 -16.16,84.89 -34.09,116 31.12,-17.93 71.41,-34.08 116,-34.08 3.53,0 6.97,0.31 10.45,0.5 38.83,-49.62 47.14,-115.48 48.87,-141.75 z m -69.83,164.02 c -53.1,3.44 -99.89,31.99 -127.27,52.74 33.98,-4.66 87.19,-17.53 127.27,-52.74 z m 0,133.17 c -40.08,-35.21 -93.29,-48.08 -127.27,-52.74 27.38,20.74 74.17,49.3 127.27,52.74 z m -71.4,104.69 c 0,3.53 -0.31,6.97 -0.5,10.45 49.67,38.92 115.37,47.17 141.74,48.87 -1.69,-26.25 -9.94,-92.05 -48.88,-141.74 -3.47,0.19 -6.92,0.5 -10.45,0.5 -44.59,0 -84.88,-16.16 -116,-34.09 17.93,31.12 34.09,71.41 34.09,116.01 z m 101.96,448.14 c -2.32,2.6 -4.53,5.25 -7.03,7.75 -31.54,31.54 -71.38,48.59 -106.09,57.91 34.68,9.32 74.54,26.37 106.09,57.93 2.5,2.5 4.71,5.15 7.03,7.74 62.54,-7.62 114.98,-48.31 134.79,-65.67 -19.77,-17.37 -72.12,-58.05 -134.79,-65.66 z m -157.83,51.82 c 33.98,-4.65 87.19,-17.52 127.27,-52.74 -53.1,3.45 -99.89,32 -127.27,52.74 z m 197.1,-216.75 c -26.2,1.68 -92,9.9 -141.73,48.87 0.19,3.48 0.5,6.92 0.5,10.46 0,44.59 -16.16,84.88 -34.09,116 31.12,-17.93 71.41,-34.09 116,-34.09 3.53,0 6.97,0.31 10.45,0.51 38.83,-49.63 47.14,-115.48 48.87,-141.75 z m -69.83,297.19 c -40.08,-35.22 -93.3,-48.09 -127.28,-52.75 27.38,20.75 74.18,49.3 127.28,52.75 z m -71.4,104.68 c 0,3.53 -0.31,6.97 -0.5,10.45 49.67,38.93 115.37,47.18 141.74,48.87 -1.69,-26.25 -9.94,-92.04 -48.88,-141.74 -3.47,0.2 -6.92,0.51 -10.45,0.51 -44.59,0 -84.88,-16.16 -116,-34.09 17.93,31.11 34.09,71.41 34.09,116 z m 101.97,448.14 c -2.32,2.6 -4.54,5.25 -7.04,7.75 -31.54,31.54 -71.37,48.59 -106.09,57.91 34.68,9.32 74.54,26.37 106.09,57.93 2.5,2.49 4.71,5.15 7.03,7.74 62.54,-7.62 114.98,-48.32 134.79,-65.67 -19.77,-17.37 -72.12,-58.05 -134.78,-65.66 z m -157.84,51.82 c 33.98,-4.65 87.2,-17.53 127.28,-52.74 -53.11,3.45 -99.9,32 -127.28,52.74 z m 197.1,-216.75 c -26.2,1.68 -92,9.9 -141.73,48.87 0.19,3.48 0.5,6.93 0.5,10.46 0,44.59 -16.16,84.88 -34.09,116 31.12,-17.93 71.41,-34.09 116,-34.09 3.53,0 6.97,0.31 10.45,0.5 38.83,-49.62 47.14,-115.47 48.87,-141.74 z m -69.83,297.19 c -40.08,-35.22 -93.3,-48.09 -127.28,-52.75 27.38,20.74 74.18,49.3 127.28,52.75 z m -71.4,104.68 c 0,3.53 -0.31,6.98 -0.5,10.46 49.67,38.92 115.37,47.17 141.74,48.87 -1.69,-26.25 -9.94,-92.05 -48.88,-141.75 -3.47,0.19 -6.92,0.51 -10.45,0.51 -44.59,0 -84.88,-16.16 -116,-34.09 17.93,31.11 34.09,71.41 34.09,116 z M 8196,8655.48 c 2.32,-2.59 4.53,-5.25 7.03,-7.74 31.55,-31.55 71.39,-48.6 106.07,-57.92 -34.68,-9.32 -74.52,-26.37 -106.07,-57.92 -2.5,-2.5 -4.71,-5.15 -7.03,-7.75 -62.53,7.63 -114.96,48.3 -134.77,65.67 19.81,17.36 72.24,58.04 134.77,65.66 z m -39.26,164.95 c 26.2,-1.69 91.99,-9.91 141.73,-48.89 -0.2,-3.47 -0.51,-6.92 -0.51,-10.45 0,-44.59 16.16,-84.89 34.1,-116.01 -31.12,17.94 -71.42,34.1 -116.01,34.1 -3.53,0 -6.97,-0.32 -10.44,-0.51 -38.84,49.62 -47.15,115.49 -48.87,141.76 z m 69.82,-164.02 c 53.1,-3.45 99.9,-32 127.28,-52.75 -33.98,4.66 -87.2,17.53 -127.28,52.75 z m -0.01,-133.18 c 40.06,35.19 93.24,48.07 127.28,52.73 -27.39,-20.74 -74.18,-49.28 -127.28,-52.73 z m 71.41,-104.68 c 0,-3.53 0.31,-6.98 0.51,-10.45 -49.74,-38.99 -115.56,-47.21 -141.75,-48.89 1.7,26.25 9.94,92.05 48.88,141.75 3.47,-0.19 6.92,-0.5 10.45,-0.5 44.59,0 84.88,16.16 116,34.09 -17.93,-31.12 -34.09,-71.41 -34.09,-116 z M 8196,7970.4 c 2.32,-2.59 4.53,-5.24 7.03,-7.74 31.55,-31.55 71.39,-48.6 106.07,-57.92 -34.68,-9.32 -74.52,-26.38 -106.07,-57.92 -2.5,-2.5 -4.71,-5.15 -7.03,-7.74 -62.53,7.62 -114.96,48.3 -134.77,65.66 19.81,17.36 72.24,58.04 134.77,65.66 z m -39.26,164.94 c 26.2,-1.68 91.99,-9.91 141.73,-48.88 -0.2,-3.48 -0.51,-6.92 -0.51,-10.45 0,-44.59 16.16,-84.89 34.09,-116 -31.12,17.93 -71.41,34.09 -116,34.09 -3.53,0 -6.97,-0.31 -10.44,-0.51 -38.84,49.62 -47.15,115.48 -48.87,141.75 z m 69.82,-164.01 c 53.1,-3.45 99.9,-32 127.28,-52.75 -33.98,4.66 -87.2,17.53 -127.28,52.75 z m 0,-133.18 c 40.05,35.19 93.23,48.07 127.26,52.73 -27.38,-20.74 -74.16,-49.28 -127.26,-52.73 z m 71.4,-104.68 c 0,-3.54 0.31,-6.98 0.51,-10.45 -49.74,-38.98 -115.56,-47.2 -141.75,-48.89 1.7,26.25 9.94,92.05 48.88,141.76 3.48,-0.2 6.92,-0.51 10.45,-0.51 44.59,0 84.89,16.16 116.01,34.09 -17.94,-31.12 -34.1,-71.41 -34.1,-116 z M 8196,7285.32 c 2.32,-2.6 4.53,-5.25 7.03,-7.74 31.55,-31.55 71.39,-48.6 106.07,-57.93 -34.68,-9.32 -74.52,-26.37 -106.07,-57.92 -2.5,-2.49 -4.71,-5.14 -7.03,-7.74 -62.53,7.62 -114.96,48.3 -134.77,65.66 19.81,17.37 72.24,58.05 134.77,65.67 z m -39.26,164.94 c 26.2,-1.69 92,-9.91 141.73,-48.88 -0.2,-3.48 -0.51,-6.92 -0.51,-10.45 0,-44.6 16.16,-84.89 34.1,-116.01 -31.12,17.93 -71.42,34.09 -116.01,34.09 -3.53,0 -6.97,-0.31 -10.44,-0.5 -38.84,49.62 -47.15,115.48 -48.87,141.75 z m 69.82,-164.02 c 53.1,-3.45 99.9,-32 127.28,-52.74 -33.98,4.66 -87.2,17.53 -127.28,52.74 z m 0,-133.17 c 40.05,35.19 93.23,48.07 127.27,52.73 -27.39,-20.74 -74.17,-49.29 -127.27,-52.73 z m 71.4,-104.69 c 0,-3.53 0.31,-6.97 0.51,-10.45 -49.74,-38.97 -115.53,-47.19 -141.73,-48.88 1.72,26.27 10.03,92.13 48.87,141.75 3.47,-0.19 6.91,-0.5 10.44,-0.5 44.59,0 84.88,16.15 116,34.08 -17.93,-31.11 -34.09,-71.41 -34.09,-116 z M 8196,6600.24 c 2.32,-2.6 4.53,-5.25 7.03,-7.75 31.55,-31.55 71.39,-48.6 106.07,-57.92 -34.68,-9.32 -74.52,-26.37 -106.07,-57.92 -2.5,-2.49 -4.71,-5.14 -7.03,-7.74 -62.53,7.62 -114.96,48.3 -134.77,65.66 19.81,17.37 72.24,58.04 134.77,65.67 z m -39.26,164.94 c 26.2,-1.69 91.99,-9.91 141.73,-48.88 -0.2,-3.48 -0.51,-6.93 -0.51,-10.46 0,-44.59 16.16,-84.88 34.09,-116 -31.12,17.93 -71.41,34.09 -116,34.09 -3.53,0 -6.97,-0.31 -10.45,-0.5 -38.83,49.62 -47.14,115.48 -48.86,141.75 z m 69.81,-164.02 c 53.11,-3.44 99.91,-32 127.29,-52.74 -33.98,4.66 -87.2,17.53 -127.29,52.74 z m 0.01,-133.18 c 40.05,35.2 93.23,48.08 127.27,52.74 -27.39,-20.74 -74.17,-49.29 -127.27,-52.74 z m 71.4,-104.68 c 0,-3.53 0.31,-6.97 0.51,-10.45 -49.74,-38.98 -115.56,-47.2 -141.75,-48.89 1.7,26.25 9.94,92.05 48.88,141.76 3.48,-0.19 6.92,-0.5 10.45,-0.5 44.59,0 84.89,16.16 116.01,34.09 -17.94,-31.12 -34.1,-71.41 -34.1,-116.01 z M 8196,5915.15 c 2.32,-2.59 4.53,-5.24 7.03,-7.74 31.55,-31.55 71.39,-48.6 106.07,-57.92 -34.68,-9.32 -74.52,-26.38 -106.07,-57.92 -2.5,-2.5 -4.71,-5.15 -7.03,-7.74 -62.53,7.62 -114.96,48.3 -134.77,65.66 19.81,17.36 72.24,58.04 134.77,65.66 z m -39.26,164.94 c 26.2,-1.68 91.99,-9.91 141.73,-48.88 -0.2,-3.48 -0.51,-6.92 -0.51,-10.45 0,-44.59 16.16,-84.88 34.09,-116 -31.12,17.93 -71.41,34.09 -116,34.09 -3.53,0 -6.97,-0.31 -10.44,-0.51 -38.84,49.62 -47.15,115.48 -48.87,141.75 z m 69.82,-164.01 c 53.1,-3.45 99.9,-32 127.28,-52.75 -33.98,4.66 -87.2,17.53 -127.28,52.75 z m 0,-133.18 c 40.05,35.19 93.23,48.07 127.26,52.74 -27.38,-20.75 -74.16,-49.29 -127.26,-52.74 z m 71.4,-104.68 c 0,-3.53 0.31,-6.98 0.51,-10.45 -49.74,-38.98 -115.56,-47.2 -141.75,-48.89 1.7,26.25 9.94,92.05 48.88,141.76 3.48,-0.2 6.92,-0.51 10.45,-0.51 44.59,0 84.89,16.16 116.01,34.09 -17.94,-31.11 -34.1,-71.41 -34.1,-116 z m -385.94,-375.79 h 24.19 c 19.55,52.65 19.44,101.24 19.42,104.3 l -0.43,11.06 h -11.06 c -10.22,0 -90.95,-1.52 -155.99,-46.02 -12.19,64.91 -53.46,116.18 -70.58,135.18 17.12,18.99 58.39,70.27 70.58,135.18 65.04,-44.51 145.77,-46.02 155.99,-46.02 l 11.38,0.11 0.11,10.95 c 0.03,4.07 0.23,88.79 -46,156.41 64.89,12.2 116.15,53.46 135.15,70.57 18.99,-17.11 70.26,-58.37 135.15,-70.57 -46.22,-67.62 -46.03,-152.34 -45.99,-156.41 l 0.11,-10.95 11.37,-0.11 c 10.22,0 90.95,1.51 155.99,46.01 11.57,-61.6 49.29,-110.87 67.74,-131.97 v 36.18 c -18.84,26.13 -41.93,66.26 -47.49,111.82 2.6,2.32 5.24,4.55 7.74,7.05 17.26,17.25 30.06,37.03 39.75,57.07 v 69.95 c -6.91,-32.14 -20.68,-71.9 -48.42,-103.49 3.22,49.55 28.23,93.39 48.42,121.31 v 78.9 c -20.19,27.92 -45.2,71.76 -48.42,121.31 27.75,-31.6 41.51,-71.36 48.42,-103.5 v 69.96 c -9.69,20.04 -22.49,39.81 -39.75,57.07 -2.5,2.5 -5.14,4.73 -7.74,7.05 5.56,45.56 28.65,85.69 47.49,111.81 v 36.19 c -18.45,-21.1 -56.17,-70.37 -67.74,-131.98 -65.03,44.49 -145.76,46.02 -156.39,46.02 -0.01,0 -0.02,0 -0.02,0 l -10.95,-0.11 -0.11,-10.95 c -0.04,-4.07 -0.23,-88.79 45.99,-156.41 -64.89,-12.2 -116.16,-53.46 -135.15,-70.57 -18.99,17.11 -70.26,58.37 -135.14,70.57 46.22,67.62 46.02,152.34 45.99,156.41 l -0.42,11.06 h -11.06 c -10.23,0 -90.95,-1.52 -156,-46.02 -12.19,64.91 -53.46,116.18 -70.58,135.18 17.12,19 58.39,70.27 70.58,135.18 65.05,-44.51 145.77,-46.02 156,-46.02 l 11.37,0.11 0.11,10.95 c 0.03,4.07 0.23,88.79 -46,156.42 64.89,12.2 116.15,53.45 135.15,70.57 18.99,-17.12 70.26,-58.37 135.15,-70.57 -46.22,-67.63 -46.03,-152.35 -45.99,-156.42 l 0.11,-10.95 11.36,-0.11 c 10.23,0 90.96,1.51 156,46.02 11.57,-61.61 49.29,-110.87 67.74,-131.98 v 36.11 c -18.85,26.09 -41.94,66.21 -47.49,111.89 2.59,2.32 5.24,4.55 7.74,7.05 17.26,17.25 30.06,37.03 39.75,57.07 v 69.72 c -6.92,-32.07 -20.68,-71.69 -48.42,-103.26 3.22,49.55 28.23,93.39 48.42,121.31 v 78.91 c -20.19,27.91 -45.2,71.75 -48.42,121.3 27.74,-31.6 41.51,-71.36 48.42,-103.49 v 69.95 c -9.69,20.05 -22.49,39.82 -39.75,57.08 -2.5,2.49 -5.14,4.72 -7.74,7.04 5.56,45.56 28.65,85.69 47.49,111.82 v 36.18 c -18.45,-21.1 -56.17,-70.37 -67.74,-131.97 -65.02,44.48 -145.76,46.02 -156.39,46.02 -0.01,0 -0.02,0 -0.02,0 l -10.95,-0.11 -0.11,-10.95 c -0.04,-4.08 -0.23,-88.79 45.99,-156.42 -64.9,-12.2 -116.16,-53.45 -135.15,-70.57 -18.99,17.12 -70.25,58.37 -135.14,70.57 46.22,67.63 46.02,152.34 45.99,156.42 l -0.42,11.06 h -11.06 c -10.23,0 -90.95,-1.52 -156,-46.02 -12.19,64.9 -53.46,116.18 -70.58,135.17 17.12,19 58.39,70.27 70.58,135.18 65.05,-44.5 145.77,-46.02 156,-46.02 l 11.37,0.1 0.11,10.96 c 0.03,4.08 0.23,88.79 -45.99,156.42 64.88,12.2 116.15,53.45 135.14,70.57 18.99,-17.12 70.26,-58.37 135.15,-70.57 -46.22,-67.63 -46.03,-152.34 -45.99,-156.42 l 0.11,-10.95 11.36,-0.11 c 10.23,0 90.96,1.52 156,46.02 11.57,-61.6 49.29,-110.87 67.74,-131.97 v 36.18 c -18.84,26.12 -41.93,66.25 -47.49,111.81 2.6,2.33 5.24,4.55 7.74,7.05 17.26,17.26 30.06,37.03 39.75,57.08 v 69.71 c -6.92,-32.07 -20.68,-71.69 -48.42,-103.26 3.22,49.56 28.23,93.4 48.42,121.31 v 78.84 c -20.19,27.88 -45.21,71.7 -48.42,121.38 27.74,-31.6 41.51,-71.36 48.42,-103.5 v 69.95 c -9.69,20.05 -22.49,39.82 -39.75,57.08 -2.5,2.49 -5.14,4.72 -7.74,7.04 5.56,45.57 28.65,85.7 47.49,111.82 v 36.18 c -18.45,-21.1 -56.17,-70.37 -67.74,-131.97 -65.02,44.48 -145.75,46.02 -156.39,46.02 -0.01,0 -0.02,0 -0.02,0 l -10.95,-0.11 -0.11,-10.95 c -0.04,-4.08 -0.23,-88.79 45.99,-156.42 -64.89,-12.2 -116.16,-53.45 -135.15,-70.57 -19,17.12 -70.26,58.37 -135.15,70.57 46.23,67.63 46.03,152.34 46,156.42 l -0.43,11.06 h -11.06 c -10.22,0 -90.95,-1.52 -155.99,-46.02 -12.19,64.9 -53.46,116.18 -70.58,135.17 17.12,19 58.39,70.28 70.58,135.19 65.04,-44.51 145.77,-46.02 155.99,-46.02 l 11.38,0.1 0.11,10.96 c 0.03,4.07 0.23,88.79 -46,156.41 64.89,12.2 116.15,53.46 135.15,70.57 18.99,-17.11 70.26,-58.37 135.15,-70.57 -46.22,-67.62 -46.03,-152.34 -45.99,-156.41 l 0.11,-10.96 11.37,-0.1 c 10.22,0 90.95,1.51 155.99,46.01 11.57,-61.6 49.29,-110.87 67.74,-131.97 v 36.11 c -18.85,26.09 -41.94,66.21 -47.49,111.88 2.59,2.33 5.24,4.56 7.74,7.06 17.26,17.25 30.06,37.03 39.75,57.07 v 69.95 c -6.91,-32.14 -20.68,-71.9 -48.42,-103.49 3.22,49.55 28.23,93.38 48.42,121.3 v 78.91 c -20.19,27.92 -45.2,71.76 -48.42,121.31 27.74,-31.6 41.51,-71.36 48.42,-103.5 v 69.95 c -9.69,20.05 -22.49,39.82 -39.75,57.08 -2.5,2.5 -5.14,4.73 -7.74,7.05 5.56,45.56 28.65,85.69 47.49,111.81 v 36.19 c -18.45,-21.1 -56.17,-70.37 -67.74,-131.98 -65.02,44.48 -145.76,46.02 -156.39,46.02 -0.01,0 -0.02,0 -0.02,0 l -10.95,-0.11 -0.11,-10.95 c -0.04,-4.07 -0.23,-88.79 45.99,-156.42 -64.89,-12.19 -116.16,-53.45 -135.15,-70.57 -18.99,17.12 -70.26,58.37 -135.14,70.57 46.22,67.63 46.02,152.35 45.99,156.42 l -0.42,11.06 h -11.06 c -10.23,0 -90.95,-1.52 -156,-46.02 -12.19,64.91 -53.46,116.18 -70.58,135.18 17.12,19 58.39,70.27 70.58,135.18 65.05,-44.51 145.77,-46.02 156,-46.02 l 11.37,0.1 0.11,10.95 c 0.03,4.08 0.23,88.8 -45.99,156.42 64.89,12.2 116.15,53.46 135.14,70.57 18.99,-17.11 70.25,-58.37 135.15,-70.57 -46.22,-67.63 -46.03,-152.34 -45.99,-156.42 l 0.11,-10.95 11.36,-0.1 c 10.23,0 90.96,1.51 156,46.01 11.57,-61.6 49.29,-110.87 67.74,-131.97 v 36.11 c -18.85,26.09 -41.94,66.21 -47.49,111.89 2.59,2.32 5.24,4.55 7.74,7.05 17.26,17.25 30.06,37.03 39.75,57.07 v 69.95 c -6.91,-32.14 -20.68,-71.9 -48.42,-103.49 3.22,49.55 28.23,93.39 48.42,121.31 v 78.83 c -20.19,27.88 -45.21,71.7 -48.42,121.38 27.74,-31.6 41.51,-71.36 48.42,-103.49 v 69.95 c -9.69,20.04 -22.49,39.82 -39.75,57.07 -2.5,2.5 -5.14,4.73 -7.74,7.05 5.56,45.56 28.65,85.7 47.49,111.82 v 36.18 c -18.45,-21.11 -56.17,-70.37 -67.74,-131.98 -65.02,44.49 -145.76,46.03 -156.39,46.03 -0.01,0 -0.02,0 -0.02,0 l -10.95,-0.11 -0.11,-10.96 c -0.04,-4.07 -0.23,-88.79 45.99,-156.42 -64.89,-12.19 -116.16,-53.45 -135.15,-70.57 -19,17.12 -70.26,58.37 -135.15,70.57 46.23,67.63 46.03,152.35 46,156.42 l -0.42,11.07 h -11.06 c -10.23,0 -90.95,-1.52 -156,-46.03 -12.19,64.91 -53.46,116.18 -70.58,135.18 17.12,19 58.39,70.27 70.58,135.18 65.05,-44.5 145.77,-46.02 156,-46.02 l 11.37,0.11 0.11,10.95 c 0.02,3.06 0.13,51.65 -19.42,104.3 h -24.23 c 15.32,-37.48 19.65,-74.45 20.85,-92.58 -26.21,1.68 -92.01,9.91 -141.74,48.88 0.19,3.48 0.5,6.92 0.5,10.45 0,11.39 -1.07,22.5 -2.94,33.25 h -22.96 c 1.47,-7.43 2.63,-14.99 3.13,-22.74 -6.3,7.19 -11.67,14.89 -16.62,22.74 H 7726 c 8.92,-16.28 20.02,-32.13 34.16,-46.27 2.5,-2.5 5.14,-4.73 7.74,-7.04 -7.63,-62.53 -48.3,-114.95 -65.66,-134.76 -17.36,19.81 -58.03,72.23 -65.66,134.75 2.59,2.32 5.24,4.55 7.74,7.05 14.14,14.14 25.23,29.99 34.16,46.27 h -26.2 c -4.96,-7.86 -10.32,-15.56 -16.63,-22.74 0.5,7.75 1.66,15.3 3.13,22.74 h -22.95 c -1.87,-10.75 -2.95,-21.86 -2.95,-33.25 0,-3.53 0.31,-6.97 0.51,-10.45 -49.74,-38.97 -115.54,-47.2 -141.74,-48.88 1.19,18.13 5.53,55.1 20.85,92.58 h -24.24 c -19.54,-52.65 -19.44,-101.24 -19.41,-104.3 l 0.11,-10.95 11.37,-0.11 c 10.23,0 90.95,1.52 155.99,46.02 12.2,-64.91 53.46,-116.18 70.58,-135.18 -17.12,-19 -58.38,-70.27 -70.58,-135.17 -65.02,44.48 -145.75,46.02 -156.39,46.02 0,0 -0.01,0 -0.02,0 l -10.95,-0.11 -0.11,-10.96 c -0.03,-4.07 -0.23,-88.79 46,-156.42 -64.89,-12.2 -116.16,-53.45 -135.15,-70.57 -18.99,17.12 -70.26,58.37 -135.15,70.57 46.22,67.63 46.03,152.35 45.99,156.42 l -0.41,11.07 h -11.07 c -10.22,0 -90.95,-1.52 -155.99,-46.02 -12.19,64.9 -53.46,116.17 -70.58,135.17 17.12,19 58.39,70.27 70.58,135.18 65.04,-44.5 145.77,-46.02 155.99,-46.02 l 11.37,0.11 0.11,10.95 c 0.03,3.06 0.14,51.65 -19.41,104.3 h -24.24 c 15.33,-37.48 19.66,-74.45 20.85,-92.58 -26.2,1.68 -92,9.91 -141.73,48.88 0.19,3.48 0.51,6.92 0.51,10.45 0,11.39 -1.08,22.5 -2.95,33.25 h -22.96 c 1.47,-7.43 2.63,-14.99 3.14,-22.74 -6.31,7.19 -11.68,14.89 -16.63,22.74 h -26.2 c 8.92,-16.28 20.02,-32.13 34.16,-46.27 2.5,-2.5 5.14,-4.73 7.74,-7.05 -7.63,-62.52 -48.3,-114.94 -65.66,-134.75 -17.36,19.81 -58.04,72.23 -65.66,134.76 2.59,2.31 5.24,4.54 7.74,7.04 14.13,14.14 25.23,29.99 34.16,46.27 h -26.19 c -4.96,-7.85 -10.33,-15.55 -16.64,-22.74 0.5,7.75 1.66,15.3 3.13,22.74 h -22.95 c -1.87,-10.75 -2.95,-21.86 -2.95,-33.25 0,-3.53 0.31,-6.97 0.5,-10.45 -49.73,-38.97 -115.53,-47.2 -141.73,-48.88 1.19,18.13 5.53,55.1 20.85,92.58 h -24.24 c -19.54,-52.65 -19.43,-101.24 -19.41,-104.3 l 0.11,-10.95 11.37,-0.11 c 10.22,0 90.95,1.52 155.99,46.02 12.2,-64.91 53.46,-116.18 70.58,-135.18 -17.12,-19 -58.38,-70.27 -70.58,-135.18 -65.02,44.49 -145.75,46.03 -156.39,46.03 h -0.02 l -10.95,-0.11 -0.11,-10.96 c -0.03,-4.07 -0.23,-88.79 45.99,-156.42 -64.89,-12.19 -116.15,-53.45 -135.15,-70.56 -18.99,17.11 -70.25,58.37 -135.14,70.56 46.22,67.63 46.02,152.35 45.98,156.42 l -0.41,11.07 h -11.06 c -10.22,0 -90.95,-1.52 -156,-46.03 -12.19,64.91 -53.45,116.18 -70.57,135.18 17.12,19 58.38,70.27 70.58,135.18 65.04,-44.5 145.77,-46.02 155.99,-46.02 l 11.37,0.11 0.1,10.95 c 0.03,3.06 0.14,51.65 -19.4,104.3 h -24.24 c 15.32,-37.48 19.66,-74.45 20.85,-92.58 -26.21,1.68 -92,9.91 -141.74,48.88 0.2,3.48 0.51,6.92 0.51,10.45 0,11.39 -1.08,22.5 -2.95,33.25 h -22.96 c 1.47,-7.43 2.64,-14.99 3.14,-22.74 -6.31,7.19 -11.67,14.89 -16.63,22.74 h -26.2 c 8.93,-16.28 20.03,-32.13 34.16,-46.27 2.5,-2.5 5.15,-4.73 7.74,-7.04 -7.63,-62.53 -48.3,-114.95 -65.66,-134.76 -17.36,19.81 -58.03,72.23 -65.66,134.75 2.6,2.32 5.24,4.55 7.74,7.05 14.14,14.14 25.24,29.99 34.16,46.27 h -26.18 c -4.96,-7.85 -10.33,-15.55 -16.65,-22.74 0.51,7.75 1.67,15.3 3.14,22.74 h -22.96 c -1.87,-10.75 -2.95,-21.86 -2.95,-33.25 0,-3.53 0.31,-6.97 0.51,-10.45 -49.73,-38.97 -115.53,-47.2 -141.73,-48.88 1.19,18.13 5.52,55.1 20.85,92.58 h -24.24 c -19.55,-52.65 -19.44,-101.24 -19.41,-104.3 l 0.11,-10.95 11.36,-0.11 c 10.23,0 90.96,1.52 156,46.02 12.19,-64.91 53.46,-116.18 70.58,-135.18 -17.12,-19 -58.39,-70.27 -70.58,-135.18 -65.02,44.49 -145.75,46.03 -156.39,46.03 -0.01,0 -0.01,0 -0.02,0 l -10.95,-0.11 -0.11,-10.96 c -0.04,-4.07 -0.23,-88.79 45.99,-156.42 -64.89,-12.2 -116.16,-53.45 -135.15,-70.57 -18.99,17.12 -70.26,58.37 -135.15,70.57 46.23,67.63 46.03,152.35 46,156.42 l -0.42,11.07 h -11.06 c -10.23,0 -90.95,-1.52 -156,-46.02 -11.57,61.6 -49.29,110.87 -67.74,131.97 v -36.11 c 18.85,-26.09 41.95,-66.21 47.5,-111.88 -2.6,-2.32 -5.25,-4.56 -7.75,-7.06 -17.25,-17.25 -30.06,-37.03 -39.75,-57.07 v -69.72 c 6.92,32.08 20.68,71.7 48.42,103.27 -3.21,-49.55 -28.22,-93.4 -48.42,-121.32 v -78.9 c 20.2,-27.92 45.21,-71.76 48.42,-121.32 -27.74,31.6 -41.5,71.36 -48.42,103.5 v -69.95 c 9.69,-20.04 22.5,-39.82 39.75,-57.07 2.5,-2.5 5.14,-4.73 7.74,-7.05 -5.56,-45.56 -28.65,-85.69 -47.49,-111.82 v -36.18 c 18.45,21.1 56.17,70.37 67.74,131.97 65.05,-44.5 145.77,-46.01 156,-46.01 l 11.37,0.1 0.11,10.95 c 0.03,4.08 0.23,88.8 -45.99,156.42 64.89,12.2 116.15,53.46 135.14,70.57 18.99,-17.11 70.25,-58.37 135.15,-70.57 -46.22,-67.62 -46.03,-152.34 -45.99,-156.42 l 0.11,-10.95 11.36,-0.1 c 10.23,0 90.96,1.51 156,46.01 12.19,-64.9 53.46,-116.17 70.58,-135.17 -17.12,-19 -58.39,-70.27 -70.58,-135.18 -65.02,44.48 -145.75,46.02 -156.39,46.02 -0.01,0 -0.01,0 -0.02,0 l -10.95,-0.11 -0.11,-10.95 c -0.04,-4.07 -0.23,-88.79 45.99,-156.42 -64.89,-12.2 -116.16,-53.45 -135.15,-70.57 -18.99,17.12 -70.25,58.37 -135.14,70.57 46.22,67.63 46.02,152.35 45.99,156.42 l -0.42,11.06 h -11.06 c -10.23,0 -90.95,-1.52 -156,-46.02 -11.57,61.61 -49.29,110.88 -67.74,131.98 v -36.18 c 18.84,-26.12 41.93,-66.25 47.49,-111.82 -2.6,-2.32 -5.24,-4.55 -7.74,-7.05 -17.25,-17.26 -30.06,-37.03 -39.75,-57.07 v -69.71 c 6.92,32.07 20.69,71.68 48.42,103.26 -3.21,-49.56 -28.22,-93.4 -48.42,-121.32 v -78.83 c 20.2,-27.88 45.21,-71.71 48.42,-121.39 -27.74,31.6 -41.5,71.36 -48.42,103.5 v -69.95 c 9.69,-20.05 22.5,-39.82 39.75,-57.07 2.5,-2.5 5.15,-4.73 7.74,-7.05 -5.56,-45.57 -28.64,-85.7 -47.49,-111.82 v -36.18 c 18.45,21.1 56.17,70.37 67.75,131.97 65.04,-44.5 145.76,-46.01 155.99,-46.01 l 11.37,0.1 0.11,10.96 c 0.03,4.07 0.23,88.79 -46,156.41 64.89,12.2 116.16,53.46 135.15,70.57 18.99,-17.11 70.26,-58.37 135.15,-70.57 -46.22,-67.62 -46.03,-152.34 -45.99,-156.41 l 0.11,-10.96 11.37,-0.1 c 10.22,0 90.95,1.51 155.99,46.01 12.19,-64.9 53.46,-116.18 70.58,-135.18 -17.12,-18.99 -58.39,-70.27 -70.58,-135.17 -65.02,44.48 -145.75,46.02 -156.39,46.02 -0.01,0 -0.01,0 -0.02,0 l -10.95,-0.11 -0.11,-10.95 c -0.04,-4.08 -0.23,-88.79 45.99,-156.42 -64.89,-12.2 -116.16,-53.45 -135.15,-70.57 -18.99,17.12 -70.26,58.37 -135.15,70.57 46.23,67.63 46.03,152.34 46,156.42 l -0.42,11.06 h -11.06 c -10.23,0 -90.95,-1.52 -155.99,-46.02 -11.58,61.61 -49.3,110.88 -67.75,131.97 v -36.18 c 18.85,-26.12 41.93,-66.25 47.49,-111.81 -2.59,-2.32 -5.24,-4.56 -7.74,-7.05 -17.25,-17.26 -30.06,-37.03 -39.75,-57.08 v -69.95 c 6.92,32.14 20.68,71.9 48.42,103.5 -3.22,-49.55 -28.23,-93.39 -48.42,-121.31 v -78.91 c 20.19,-27.91 45.2,-71.75 48.42,-121.31 -27.74,31.6 -41.5,71.36 -48.42,103.5 v -69.96 c 9.69,-20.04 22.5,-39.81 39.75,-57.07 2.5,-2.5 5.15,-4.73 7.74,-7.05 -5.56,-45.56 -28.64,-85.69 -47.49,-111.81 v -36.19 c 18.45,21.1 56.17,70.37 67.75,131.98 65.04,-44.5 145.76,-46.02 155.99,-46.02 l 11.37,0.1 0.11,10.96 c 0.03,4.08 0.23,88.79 -45.99,156.42 64.89,12.2 116.15,53.45 135.14,70.57 18.99,-17.12 70.26,-58.37 135.15,-70.57 -46.22,-67.63 -46.03,-152.34 -45.99,-156.42 l 0.11,-10.95 11.36,-0.11 c 10.23,0 90.96,1.52 156,46.02 12.19,-64.91 53.46,-116.18 70.58,-135.18 -17.12,-18.99 -58.39,-70.27 -70.58,-135.17 -65.02,44.48 -145.75,46.02 -156.39,46.02 -0.01,0 -0.01,0 -0.02,0 l -10.95,-0.11 -0.11,-10.95 c -0.04,-4.08 -0.23,-88.79 45.99,-156.42 -64.9,-12.2 -116.16,-53.45 -135.15,-70.57 -18.99,17.12 -70.25,58.37 -135.14,70.57 46.22,67.63 46.02,152.34 45.99,156.42 l -0.42,11.06 h -11.06 c -10.23,0 -90.95,-1.52 -156,-46.02 -11.57,61.6 -49.29,110.87 -67.74,131.97 v -36.11 c 18.85,-26.09 41.95,-66.21 47.5,-111.88 -2.6,-2.32 -5.25,-4.55 -7.75,-7.05 -17.25,-17.26 -30.06,-37.03 -39.75,-57.08 v -69.95 c 6.92,32.14 20.68,71.9 48.42,103.5 -3.21,-49.55 -28.22,-93.4 -48.42,-121.32 v -78.83 c 20.2,-27.88 45.21,-71.7 48.42,-121.39 -27.74,31.6 -41.5,71.36 -48.42,103.5 v -69.95 c 9.69,-20.04 22.5,-39.82 39.75,-57.07 2.5,-2.5 5.14,-4.73 7.74,-7.05 -5.56,-45.56 -28.65,-85.69 -47.49,-111.82 v -36.18 c 18.45,21.1 56.17,70.37 67.74,131.97 65.05,-44.5 145.77,-46.01 156,-46.01 l 11.37,0.11 0.11,10.95 c 0.03,4.07 0.23,88.79 -46,156.42 64.89,12.2 116.16,53.45 135.15,70.57 18.99,-17.12 70.26,-58.37 135.15,-70.57 -46.22,-67.63 -46.03,-152.35 -45.99,-156.42 l 0.11,-10.95 11.36,-0.11 c 10.23,0 90.96,1.51 156,46.02 12.19,-64.91 53.46,-116.18 70.58,-135.18 -17.12,-19 -58.39,-70.27 -70.58,-135.18 -65.03,44.49 -145.75,46.02 -156.39,46.02 -0.01,0 -0.01,0 -0.02,0 l -10.95,-0.11 -0.11,-10.95 c -0.04,-4.07 -0.23,-88.79 45.99,-156.41 -64.89,-12.2 -116.16,-53.46 -135.15,-70.57 -18.99,17.11 -70.25,58.37 -135.14,70.57 46.22,67.62 46.02,152.34 45.99,156.41 l -0.42,11.06 h -11.06 c -10.23,0 -90.95,-1.52 -155.99,-46.01 -11.58,61.6 -49.3,110.87 -67.75,131.97 v -36.18 c 18.85,-26.12 41.93,-66.25 47.49,-111.82 -2.59,-2.32 -5.24,-4.55 -7.74,-7.05 -17.25,-17.25 -30.06,-37.03 -39.75,-57.07 V 5907 c 6.92,32.07 20.69,71.68 48.42,103.26 -3.22,-49.56 -28.22,-93.4 -48.42,-121.32 v -78.83 c 20.2,-27.88 45.21,-71.71 48.42,-121.39 -27.74,31.6 -41.5,71.36 -48.42,103.5 v -69.95 c 9.69,-20.04 22.5,-39.82 39.75,-57.07 2.5,-2.5 5.15,-4.73 7.74,-7.05 -5.56,-45.57 -28.64,-85.7 -47.49,-111.82 v -36.18 c 18.45,21.1 56.17,70.37 67.75,131.97 65.04,-44.5 145.76,-46.01 155.99,-46.01 l 11.37,0.11 0.11,10.95 c 0.03,4.07 0.23,88.79 -46,156.41 64.89,12.2 116.16,53.46 135.15,70.57 18.99,-17.11 70.26,-58.37 135.15,-70.57 -46.22,-67.62 -46.03,-152.34 -45.99,-156.41 l 0.11,-10.95 11.37,-0.11 c 10.22,0 90.95,1.51 155.99,46.01 12.19,-64.9 53.46,-116.18 70.58,-135.17 -17.12,-19 -58.39,-70.27 -70.58,-135.18 -65.02,44.48 -145.75,46.02 -156.39,46.02 -0.01,0 -0.01,0 -0.02,0 l -10.95,-0.11 -0.11,-10.95 c -0.03,-3.06 -0.14,-51.65 19.41,-104.3 h 24.24 c -15.33,37.48 -19.66,74.45 -20.85,92.58 26.2,-1.69 92,-9.91 141.73,-48.88 -0.2,-3.48 -0.51,-6.92 -0.51,-10.45 0,-11.4 1.08,-22.5 2.95,-33.25 h 22.95 c -1.47,7.43 -2.63,14.99 -3.13,22.74 6.31,-7.19 11.67,-14.88 16.63,-22.74 h 26.2 c -8.92,16.28 -20.02,32.13 -34.16,46.27 -2.5,2.49 -5.14,4.72 -7.74,7.04 7.63,62.54 48.32,114.97 65.67,134.78 17.37,-19.77 58.04,-72.11 65.66,-134.77 -2.6,-2.32 -5.25,-4.55 -7.75,-7.05 -14.13,-14.14 -25.23,-29.99 -34.16,-46.27 h 26.2 c 4.96,7.85 10.32,15.55 16.63,22.74 -0.5,-7.75 -1.67,-15.3 -3.14,-22.74 h 22.96 c 1.87,10.75 2.95,21.85 2.95,33.25 0,3.53 -0.31,6.97 -0.51,10.45 49.68,38.92 115.38,47.17 141.75,48.87 -1.17,-18.12 -5.47,-55.07 -20.82,-92.57 h 24.2 c 19.54,52.65 19.43,101.24 19.4,104.3 l -0.41,11.06 h -11.07 c -10.22,0 -90.94,-1.52 -155.98,-46.02 -12.2,64.91 -53.46,116.18 -70.58,135.18 17.12,18.99 58.38,70.27 70.58,135.18 65.04,-44.51 145.76,-46.02 155.98,-46.02 l 11.38,0.11 0.1,10.95 c 0.04,4.07 0.24,88.79 -45.98,156.41 64.89,12.2 116.15,53.46 135.14,70.57 19,-17.11 70.26,-58.37 135.15,-70.57 -46.22,-67.62 -46.02,-152.34 -45.99,-156.41 l 0.11,-10.95 11.37,-0.11 c 10.23,0 90.95,1.51 155.99,46.02 12.2,-64.91 53.46,-116.19 70.58,-135.18 -17.12,-19 -58.39,-70.28 -70.58,-135.18 -65.02,44.48 -145.75,46.02 -156.39,46.02 h -0.02 l -10.95,-0.11 -0.11,-10.95 c -0.02,-3.06 -0.13,-51.65 19.41,-104.3 h 24.24 c -15.32,37.48 -19.66,74.45 -20.85,92.58 26.2,-1.69 92,-9.91 141.73,-48.88 -0.19,-3.48 -0.5,-6.92 -0.5,-10.45 0,-11.4 1.08,-22.5 2.95,-33.25 h 22.94 c -1.46,7.43 -2.62,14.99 -3.12,22.74 6.31,-7.19 11.67,-14.88 16.62,-22.74 h 26.21 c -8.93,16.28 -20.03,32.13 -34.16,46.27 -2.5,2.49 -5.15,4.72 -7.74,7.04 7.63,62.54 48.31,114.97 65.67,134.78 17.36,-19.77 58.04,-72.11 65.65,-134.77 -2.6,-2.32 -5.24,-4.55 -7.74,-7.05 -14.14,-14.14 -25.24,-29.99 -34.16,-46.27 h 26.2 c 4.95,7.85 10.32,15.55 16.63,22.74 -0.51,-7.75 -1.67,-15.3 -3.14,-22.74 h 22.96 c 1.87,10.75 2.95,21.85 2.95,33.25 0,3.53 -0.32,6.97 -0.51,10.45 49.67,38.92 115.38,47.17 141.75,48.87 -1.17,-18.12 -5.48,-55.07 -20.83,-92.57 h 24.2 c 19.55,52.65 19.44,101.24 19.41,104.3 l -0.42,11.06 h -11.06 c -10.22,0 -90.95,-1.52 -155.99,-46.02 -12.19,64.91 -53.46,116.18 -70.58,135.18 17.12,18.99 58.39,70.27 70.58,135.17 65.04,-44.5 145.77,-46.01 155.99,-46.01 l 11.37,0.11 0.11,10.95 c 0.04,4.07 0.23,88.79 -45.99,156.41 64.89,12.2 116.16,53.46 135.15,70.57 18.99,-17.11 70.26,-58.37 135.15,-70.57 -46.23,-67.62 -46.03,-152.34 -46,-156.41 l 0.11,-10.95 11.37,-0.11 c 10.23,0 90.95,1.51 155.99,46.01 12.2,-64.9 53.46,-116.18 70.58,-135.17 -17.12,-19 -58.38,-70.27 -70.58,-135.18 -65.02,44.48 -145.75,46.02 -156.39,46.02 0,0 -0.01,0 -0.02,0 l -10.95,-0.11 -0.11,-10.95 c -0.03,-3.06 -0.13,-51.65 19.41,-104.3 h 24.24 c -15.32,37.48 -19.66,74.45 -20.85,92.58 26.2,-1.69 92,-9.91 141.74,-48.88 -0.2,-3.48 -0.51,-6.92 -0.51,-10.45 0,-11.4 1.08,-22.5 2.95,-33.25 h 22.94 c -1.46,7.44 -2.62,14.99 -3.12,22.74 6.31,-7.18 11.67,-14.88 16.63,-22.74 h 26.2 c -8.93,16.28 -20.02,32.13 -34.16,46.27 -2.5,2.5 -5.15,4.73 -7.74,7.05 7.63,62.53 48.31,114.96 65.67,134.77 17.36,-19.77 58.04,-72.11 65.65,-134.77 -2.6,-2.32 -5.24,-4.55 -7.74,-7.05 -14.14,-14.14 -25.24,-29.99 -34.16,-46.27 h 26.2 c 4.95,7.85 10.32,15.55 16.62,22.74 -0.5,-7.75 -1.66,-15.3 -3.13,-22.74 h 22.96 c 1.87,10.75 2.94,21.85 2.94,33.25 0,3.53 -0.31,6.97 -0.5,10.45 49.67,38.92 115.38,47.17 141.75,48.87 -1.17,-18.12 -5.47,-55.07 -20.82,-92.57"/>
            <path
                    style="fill:#ffffff;fill-opacity:1;fill-rule:nonzero;stroke:none"
                    d="m 8177.59,9136.88 h -24.24 c -19.55,-52.65 -19.44,-101.24 -19.41,-104.3 l 0.11,-10.95 11.36,-0.11 c 10.23,0 90.96,1.52 156,46.02 11.57,-61.61 49.29,-110.88 67.74,-131.97 v 36.18 c -18.84,26.12 -41.93,66.25 -47.49,111.81 2.6,2.32 5.24,4.55 7.74,7.05 7.65,7.66 14.42,15.82 20.47,24.27 -5.17,5.46 -11.17,10.12 -17.85,13.7 -3.5,-4.95 -7.21,-9.8 -11.29,-14.44 0.41,6.24 1.22,12.37 2.26,18.41 -6.93,2.54 -14.35,4.02 -22.1,4.23 -1.86,-10.72 -2.93,-21.79 -2.93,-33.15 0,-3.53 0.31,-6.97 0.51,-10.45 -49.74,-38.97 -115.53,-47.2 -141.73,-48.88 1.19,18.13 5.52,55.1 20.85,92.58"/>
        </g>
</svg>
