<?xml version="1.0" encoding="UTF-8" standalone="no"?>
<svg
        xmlns="http://www.w3.org/2000/svg"
        viewBox="800 57 150 402"
        height="500"
        width="300"
        version="1.1">
    <g
            transform="scale(0.084, 0.1)">
        <path
                style="fill:#d3d2d2;fill-opacity:1;fill-rule:nonzero;stroke:none"
                d="m 11703,568.172 -2563.6,-0.043 c -91.22,0 -165.17,73.953 -165.17,165.172 l -0.05,3694.089 c 0,91.22 73.94,165.17 165.16,165.17 l 2563.66,0.04 c 91.2,0 165.1,-73.95 165.1,-165.17 l 0.1,-3694.09 c 0,-91.219 -73.9,-165.168 -165.2,-165.168"/>
        <path
                style="fill:#1f341f;fill-opacity:1;fill-rule:nonzero;stroke:none"
                d="m 9139.4,663.121 c -38.7,0 -70.18,31.481 -70.18,70.18 l -0.05,3694.089 c 0,38.7 31.48,70.18 70.17,70.18 l 2563.66,0.04 c 38.7,0 70.2,-31.48 70.2,-70.18 V 733.34 c 0,-38.699 -31.5,-70.18 -70.2,-70.18 l -2563.6,-0.039"/>
        <path
                style="fill:#ffffff;fill-opacity:1;fill-rule:nonzero;stroke:none"
                d="m 9173.83,4477.93 v -33.51 h 24.87 c 35.13,0.01 69.15,19.13 96,53.15 h -46.66 c -15.54,-12.62 -32.42,-19.64 -49.34,-19.64 h -24.87"/>
        <path
                style="fill:#ffffff;fill-opacity:1;fill-rule:nonzero;stroke:none"
                d="m 9523.21,4477.94 v -33.51 h 24.88 c 35.12,0 69.14,19.12 95.99,53.15 h -46.66 c -15.54,-12.62 -32.42,-19.64 -49.33,-19.64 h -24.88"/>
        <path
                style="fill:#ffffff;fill-opacity:1;fill-rule:nonzero;stroke:none"
                d="m 9872.59,4477.94 v -33.51 h 24.88 c 35.12,0.01 69.14,19.13 95.99,53.15 h -46.67 c -15.54,-12.62 -32.41,-19.64 -49.32,-19.64 h -24.88"/>
        <path
                style="fill:#ffffff;fill-opacity:1;fill-rule:nonzero;stroke:none"
                d="m 10222,4477.95 v -33.51 h 24.8 c 35.2,0 69.2,19.12 96,53.15 h -46.6 c -15.6,-12.62 -32.4,-19.64 -49.4,-19.64 h -24.8"/>
        <path
                style="fill:#ffffff;fill-opacity:1;fill-rule:nonzero;stroke:none"
                d="m 10571.4,4477.95 v -33.51 h 24.8 c 35.2,0.01 69.2,19.13 96,53.15 h -46.6 c -15.6,-12.62 -32.5,-19.64 -49.4,-19.64 h -24.8"/>
        <path
                style="fill:#ffffff;fill-opacity:1;fill-rule:nonzero;stroke:none"
                d="m 10920.7,4477.96 v -33.51 h 24.9 c 35.1,0 69.1,19.12 96,53.15 h -46.7 c -15.5,-12.63 -32.4,-19.64 -49.3,-19.64 h -24.9"/>
        <path
                style="fill:#ffffff;fill-opacity:1;fill-rule:nonzero;stroke:none"
                d="m 11270.1,4477.96 v -33.51 h 24.9 c 35.1,0 69.1,19.13 96,53.15 h -46.7 c -15.5,-12.62 -32.4,-19.64 -49.3,-19.64 h -24.9"/>
        <path
                style="fill:#ffffff;fill-opacity:1;fill-rule:nonzero;stroke:none"
                d="m 11619.5,4477.97 v -33.51 h 24.9 c 32.5,0 64,16.37 89.8,45.73 -9.4,4.7 -20,7.42 -31.2,7.42 h -9.3 c -15.5,-12.62 -32.4,-19.64 -49.3,-19.64 h -24.9"/>
        <path
                style="fill:#ffffff;fill-opacity:1;fill-rule:nonzero;stroke:none"
                d="m 11561.7,4380.74 c -28.5,47.19 -68.8,74.26 -110.6,74.26 h -22.9 v -33.51 h 22.9 c 29.8,0 59.7,-21.16 81.9,-58.05 28.4,-47.19 68.8,-74.26 110.6,-74.26 h 24.9 v 33.51 h -24.9 c -29.8,0 -59.7,21.16 -81.9,58.05"/>
        <path
                style="fill:#ffffff;fill-opacity:1;fill-rule:nonzero;stroke:none"
                d="m 11212.3,4380.73 c -28.4,47.2 -68.8,74.27 -110.6,74.26 h -22.8 v -33.51 h 22.8 c 29.8,0 59.7,-21.16 81.9,-58.05 28.5,-47.19 68.8,-74.26 110.6,-74.26 h 24.9 v 33.51 h -24.9 c -29.8,0 -59.6,21.16 -81.9,58.05"/>
        <path
                style="fill:#ffffff;fill-opacity:1;fill-rule:nonzero;stroke:none"
                d="m 10862.9,4380.73 c -28.4,47.19 -68.7,74.26 -110.6,74.26 h -22.8 v -33.51 h 22.8 c 29.8,0 59.7,-21.16 81.9,-58.05 28.5,-47.19 68.8,-74.26 110.7,-74.26 h 24.8 v 33.51 h -24.8 c -29.9,0 -59.7,21.16 -82,58.05"/>
        <path
                style="fill:#ffffff;fill-opacity:1;fill-rule:nonzero;stroke:none"
                d="m 10513.6,4380.72 c -28.5,47.2 -68.8,74.27 -110.7,74.26 h -22.8 v -33.51 l 22.8,0.01 c 29.9,0 59.7,-21.17 82,-58.06 28.4,-47.19 68.7,-74.26 110.6,-74.26 h 24.9 v 33.51 h -24.9 c -29.8,0 -59.7,21.16 -81.9,58.05"/>
        <path
                style="fill:#ffffff;fill-opacity:1;fill-rule:nonzero;stroke:none"
                d="m 10164.2,4380.72 c -28.5,47.19 -68.8,74.26 -110.6,74.26 h -22.9 v -33.51 h 22.9 c 29.8,0 59.6,-21.16 81.9,-58.05 28.4,-47.2 68.7,-74.26 110.6,-74.26 h 24.9 v 33.51 h -24.9 c -29.8,0 -59.7,21.16 -81.9,58.05"/>
        <path
                style="fill:#ffffff;fill-opacity:1;fill-rule:nonzero;stroke:none"
                d="m 9814.8,4380.71 c -28.45,47.2 -68.77,74.26 -110.63,74.26 h -22.83 v -33.51 l 22.83,0.01 c 29.82,0 59.69,-21.17 81.93,-58.06 28.45,-47.19 68.76,-74.26 110.62,-74.26 h 24.87 v 33.51 h -24.87 c -29.83,0 -59.69,21.16 -81.92,58.05"/>
        <path
                style="fill:#ffffff;fill-opacity:1;fill-rule:nonzero;stroke:none"
                d="m 9465.41,4380.71 c -28.44,47.19 -68.76,74.26 -110.62,74.26 h -22.83 v -33.51 h 22.83 c 29.83,0 59.69,-21.16 81.92,-58.05 28.46,-47.19 68.78,-74.26 110.63,-74.26 h 24.87 v 33.51 h -24.87 c -29.82,0 -59.69,21.16 -81.93,58.05"/>
        <path
                style="fill:#ffffff;fill-opacity:1;fill-rule:nonzero;stroke:none"
                d="m 9069.17,4388.22 c 6.46,-7.21 12.55,-15.51 18.16,-24.82 28.46,-47.19 68.78,-74.26 110.63,-74.26 h 24.87 v 33.51 h -24.87 c -29.82,0 -59.68,21.16 -81.93,58.05 -13.28,22.04 -29.18,39.63 -46.59,52.18 -0.14,-1.82 -0.27,-3.64 -0.27,-5.49 v -39.17"/>
        <path
                style="fill:#ffffff;fill-opacity:1;fill-rule:nonzero;stroke:none"
                d="m 9280.63,4248.39 c -22.23,-36.89 -52.09,-58.05 -81.92,-58.05 h -24.87 v -33.51 h 24.87 c 41.85,0 82.17,27.07 110.62,74.26 22.24,36.89 52.1,58.06 81.93,58.06 h 22.82 v 33.51 h -22.83 c -41.85,0 -82.17,-27.07 -110.62,-74.27"/>
        <path
                style="fill:#ffffff;fill-opacity:1;fill-rule:nonzero;stroke:none"
                d="m 9630.01,4248.4 c -22.23,-36.89 -52.09,-58.06 -81.92,-58.06 h -24.87 v -33.51 h 24.87 c 41.86,0 82.17,27.07 110.62,74.27 22.24,36.89 52.1,58.05 81.92,58.05 h 22.83 v 33.51 h -22.83 c -41.85,0 -82.17,-27.07 -110.62,-74.26"/>
        <path
                style="fill:#ffffff;fill-opacity:1;fill-rule:nonzero;stroke:none"
                d="m 9979.4,4248.4 c -22.25,-36.89 -52.11,-58.05 -81.93,-58.05 h -24.87 v -33.51 h 24.87 c 41.85,0 82.17,27.07 110.63,74.26 22.2,36.9 52.1,58.06 81.9,58.06 h 22.8 v 33.51 h -22.8 c -41.8,0 -82.2,-27.07 -110.6,-74.27"/>
        <path
                style="fill:#ffffff;fill-opacity:1;fill-rule:nonzero;stroke:none"
                d="m 10328.8,4248.41 c -22.3,-36.89 -52.1,-58.06 -81.9,-58.06 h -24.9 v -33.51 h 24.9 c 41.8,0 82.1,27.07 110.6,74.27 22.2,36.89 52.1,58.05 81.9,58.05 h 22.8 v 33.51 h -22.8 c -41.9,0 -82.2,-27.07 -110.6,-74.26"/>
        <path
                style="fill:#ffffff;fill-opacity:1;fill-rule:nonzero;stroke:none"
                d="m 10678.2,4248.41 c -22.3,-36.89 -52.1,-58.05 -82,-58.05 h -24.8 v -33.51 h 24.8 c 41.9,0 82.2,27.07 110.7,74.26 22.2,36.89 52.1,58.06 81.9,58.06 h 22.8 v 33.51 h -22.8 c -41.9,-0.01 -82.2,-27.07 -110.6,-74.27"/>
        <path
                style="fill:#ffffff;fill-opacity:1;fill-rule:nonzero;stroke:none"
                d="m 11027.5,4248.42 c -22.2,-36.89 -52.1,-58.06 -81.9,-58.06 h -24.9 v -33.51 h 24.9 c 41.9,0 82.2,27.07 110.6,74.27 22.3,36.89 52.1,58.05 82,58.05 h 22.8 v 33.51 h -22.8 c -41.9,0 -82.2,-27.07 -110.7,-74.26"/>
        <path
                style="fill:#ffffff;fill-opacity:1;fill-rule:nonzero;stroke:none"
                d="m 11376.9,4248.42 c -22.2,-36.89 -52.1,-58.05 -81.9,-58.05 h -24.9 v -33.51 h 24.9 c 41.8,0 82.2,27.07 110.6,74.26 22.3,36.9 52.1,58.06 81.9,58.06 h 22.9 v 33.5 h -22.9 c -41.8,0 -82.1,-27.06 -110.6,-74.26"/>
        <path
                style="fill:#ffffff;fill-opacity:1;fill-rule:nonzero;stroke:none"
                d="m 11644.4,4190.37 h -24.9 v -33.51 h 24.9 c 41.8,0 82.1,27.07 110.6,74.27 5.6,9.31 11.7,17.6 18.2,24.82 v 44.85 c -17.6,-12.56 -33.6,-30.22 -46.9,-52.37 -22.2,-36.89 -52.1,-58.06 -81.9,-58.06"/>
        <path
                style="fill:#ffffff;fill-opacity:1;fill-rule:nonzero;stroke:none"
                d="m 11561.7,4093.15 c -28.4,47.19 -68.8,74.26 -110.6,74.26 h -22.8 v -33.51 h 22.8 c 29.8,0 59.7,-21.16 81.9,-58.05 28.4,-47.2 68.8,-74.26 110.6,-74.26 h 24.9 v 33.51 h -24.9 c -29.8,0 -59.7,21.15 -81.9,58.05"/>
        <path
                style="fill:#ffffff;fill-opacity:1;fill-rule:nonzero;stroke:none"
                d="m 11212.3,4093.14 c -28.4,47.2 -68.7,74.26 -110.6,74.26 h -22.8 v -33.51 h 22.8 c 29.8,0.01 59.7,-21.16 81.9,-58.05 28.5,-47.19 68.8,-74.26 110.6,-74.26 h 24.9 v 33.51 h -24.9 c -29.8,0 -59.6,21.16 -81.9,58.05"/>
        <path
                style="fill:#ffffff;fill-opacity:1;fill-rule:nonzero;stroke:none"
                d="m 10862.9,4093.14 c -28.4,47.19 -68.7,74.26 -110.6,74.26 h -22.8 v -33.51 h 22.8 c 29.8,0 59.7,-21.16 81.9,-58.05 28.5,-47.19 68.8,-74.26 110.7,-74.26 h 24.8 v 33.51 h -24.8 c -29.9,0 -59.7,21.16 -82,58.05"/>
        <path
                style="fill:#ffffff;fill-opacity:1;fill-rule:nonzero;stroke:none"
                d="m 10513.6,4093.13 c -28.5,47.2 -68.8,74.26 -110.7,74.26 h -22.8 v -33.51 h 22.8 c 29.9,0.01 59.7,-21.16 82,-58.05 28.4,-47.19 68.7,-74.26 110.6,-74.26 h 24.9 v 33.51 h -24.9 c -29.8,0 -59.7,21.16 -81.9,58.05"/>
        <path
                style="fill:#ffffff;fill-opacity:1;fill-rule:nonzero;stroke:none"
                d="m 10164.2,4093.13 c -28.5,47.19 -68.8,74.26 -110.6,74.26 h -22.9 v -33.51 h 22.9 c 29.8,0 59.6,-21.16 81.9,-58.05 28.4,-47.19 68.7,-74.26 110.6,-74.26 h 24.9 v 33.51 h -24.9 c -29.8,0 -59.7,21.15 -81.9,58.05"/>
        <path
                style="fill:#ffffff;fill-opacity:1;fill-rule:nonzero;stroke:none"
                d="m 9814.8,4093.12 c -28.45,47.2 -68.77,74.26 -110.62,74.26 h -22.83 v -33.51 h 22.83 c 29.82,0.01 59.68,-21.16 81.92,-58.05 28.45,-47.19 68.77,-74.26 110.62,-74.26 h 24.88 v 33.51 h -24.88 c -29.83,0 -59.68,21.16 -81.92,58.05"/>
        <path
                style="fill:#ffffff;fill-opacity:1;fill-rule:nonzero;stroke:none"
                d="m 9465.42,4093.12 c -28.45,47.19 -68.77,74.26 -110.62,74.26 h -22.83 v -33.51 h 22.83 c 29.83,0 59.68,-21.16 81.92,-58.05 28.45,-47.2 68.77,-74.26 110.62,-74.26 h 24.87 v 33.51 h -24.87 c -29.82,0 -59.68,21.16 -81.92,58.05"/>
        <path
                style="fill:#ffffff;fill-opacity:1;fill-rule:nonzero;stroke:none"
                d="m 9116.04,4093.11 c -13.36,22.16 -29.35,39.81 -46.87,52.38 v -44.86 c 6.46,-7.22 12.56,-15.51 18.17,-24.82 28.45,-47.19 68.77,-74.26 110.62,-74.26 h 24.87 v 33.51 h -24.87 c -29.82,0 -59.68,21.16 -81.92,58.05"/>
        <path
                style="fill:#ffffff;fill-opacity:1;fill-rule:nonzero;stroke:none"
                d="m 9280.64,3960.8 c -22.24,-36.89 -52.1,-58.05 -81.93,-58.05 h -24.87 v -33.51 h 24.87 c 41.86,0 82.18,27.07 110.63,74.26 22.24,36.89 52.1,58.06 81.92,58.06 h 22.82 v 33.51 h -22.82 c -41.86,-0.01 -82.18,-27.08 -110.62,-74.27"/>
        <path
                style="fill:#ffffff;fill-opacity:1;fill-rule:nonzero;stroke:none"
                d="m 9630.02,3960.81 c -22.24,-36.9 -52.1,-58.06 -81.92,-58.06 h -24.88 v -33.51 h 24.88 c 41.85,0 82.17,27.07 110.61,74.27 22.25,36.89 52.11,58.05 81.93,58.05 h 22.83 v 33.51 h -22.83 c -41.86,0 -82.18,-27.07 -110.62,-74.26"/>
        <path
                style="fill:#ffffff;fill-opacity:1;fill-rule:nonzero;stroke:none"
                d="m 9979.4,3960.81 c -22.24,-36.89 -52.1,-58.05 -81.92,-58.05 h -24.88 v -33.51 h 24.88 c 41.85,0 82.17,27.07 110.62,74.26 22.2,36.9 52.1,58.05 81.9,58.05 l 22.8,0.01 v 33.51 h -22.8 c -41.8,-0.01 -82.2,-27.08 -110.6,-74.27"/>
        <path
                style="fill:#ffffff;fill-opacity:1;fill-rule:nonzero;stroke:none"
                d="m 10328.8,3960.82 c -22.3,-36.89 -52.1,-58.06 -81.9,-58.06 h -24.9 v -33.51 h 24.9 c 41.8,0 82.1,27.07 110.6,74.27 22.2,36.89 52.1,58.05 81.9,58.05 h 22.8 v 33.51 h -22.8 c -41.9,0 -82.2,-27.07 -110.6,-74.26"/>
        <path
                style="fill:#ffffff;fill-opacity:1;fill-rule:nonzero;stroke:none"
                d="m 10678.2,3960.82 c -22.3,-36.89 -52.1,-58.05 -82,-58.05 h -24.8 v -33.51 h 24.8 c 41.9,0 82.2,27.07 110.7,74.26 22.2,36.89 52.1,58.06 81.9,58.06 h 22.8 v 33.5 h -22.8 c -41.9,0 -82.2,-27.06 -110.6,-74.26"/>
        <path
                style="fill:#ffffff;fill-opacity:1;fill-rule:nonzero;stroke:none"
                d="m 11027.5,3960.83 c -22.2,-36.9 -52.1,-58.06 -81.9,-58.06 h -24.9 v -33.51 h 24.9 c 41.9,0 82.2,27.07 110.6,74.27 22.3,36.89 52.1,58.05 82,58.05 h 22.8 v 33.51 h -22.8 c -41.9,0 -82.2,-27.07 -110.7,-74.26"/>
        <path
                style="fill:#ffffff;fill-opacity:1;fill-rule:nonzero;stroke:none"
                d="m 11376.9,3960.83 c -22.2,-36.89 -52.1,-58.05 -81.9,-58.05 h -24.9 v -33.51 h 24.9 c 41.9,0 82.2,27.07 110.6,74.26 22.3,36.9 52.1,58.06 81.9,58.06 h 22.9 v 33.51 h -22.9 c -41.8,-0.01 -82.1,-27.08 -110.6,-74.27"/>
        <path
                style="fill:#ffffff;fill-opacity:1;fill-rule:nonzero;stroke:none"
                d="m 11726.3,3960.84 c -22.2,-36.89 -52.1,-58.06 -81.9,-58.06 h -24.9 v -33.51 h 24.9 c 41.8,0 82.2,27.07 110.6,74.27 5.6,9.3 11.7,17.6 18.2,24.82 v 44.85 c -17.6,-12.56 -33.5,-30.22 -46.9,-52.37"/>
        <path
                style="fill:#ffffff;fill-opacity:1;fill-rule:nonzero;stroke:none"
                d="m 11561.7,3805.56 c -28.4,47.19 -68.8,74.26 -110.6,74.26 h -22.8 v -33.51 h 22.8 c 29.8,0 59.7,-21.16 81.9,-58.05 28.5,-47.2 68.8,-74.26 110.6,-74.26 h 24.9 v 33.51 h -24.9 c -29.8,0 -59.7,21.15 -81.9,58.05"/>
        <path
                style="fill:#ffffff;fill-opacity:1;fill-rule:nonzero;stroke:none"
                d="m 11212.3,3805.55 c -28.4,47.2 -68.7,74.26 -110.6,74.26 h -22.8 v -33.51 h 22.8 c 29.8,0 59.7,-21.16 81.9,-58.05 28.5,-47.19 68.8,-74.26 110.6,-74.26 h 24.9 v 33.51 h -24.9 c -29.8,0 -59.6,21.16 -81.9,58.05"/>
        <path
                style="fill:#ffffff;fill-opacity:1;fill-rule:nonzero;stroke:none"
                d="m 10862.9,3805.55 c -28.4,47.19 -68.7,74.26 -110.6,74.26 h -22.8 v -33.51 h 22.8 c 29.8,0 59.7,-21.16 81.9,-58.05 28.5,-47.2 68.8,-74.26 110.7,-74.26 h 24.8 v 33.51 h -24.8 c -29.9,0 -59.7,21.16 -82,58.05"/>
        <path
                style="fill:#ffffff;fill-opacity:1;fill-rule:nonzero;stroke:none"
                d="m 10513.6,3805.54 c -28.5,47.2 -68.8,74.26 -110.7,74.26 h -22.8 v -33.51 h 22.8 c 29.9,0 59.7,-21.16 82,-58.05 28.4,-47.19 68.7,-74.26 110.6,-74.26 h 24.9 v 33.51 h -24.9 c -29.8,0 -59.7,21.16 -81.9,58.05"/>
        <path
                style="fill:#ffffff;fill-opacity:1;fill-rule:nonzero;stroke:none"
                d="m 10164.2,3805.54 c -28.5,47.19 -68.8,74.26 -110.6,74.26 h -22.9 v -33.51 h 22.9 c 29.8,0 59.6,-21.16 81.9,-58.05 28.4,-47.2 68.8,-74.26 110.6,-74.26 h 24.9 v 33.51 h -24.9 c -29.8,0 -59.7,21.15 -81.9,58.05"/>
        <path
                style="fill:#ffffff;fill-opacity:1;fill-rule:nonzero;stroke:none"
                d="m 9814.8,3805.53 c -28.45,47.2 -68.77,74.26 -110.62,74.26 h -22.83 v -33.51 h 22.83 c 29.82,0 59.68,-21.16 81.93,-58.05 28.44,-47.19 68.76,-74.26 110.62,-74.26 h 24.87 v 33.51 h -24.87 c -29.83,0 -59.69,21.16 -81.93,58.05"/>
        <path
                style="fill:#ffffff;fill-opacity:1;fill-rule:nonzero;stroke:none"
                d="m 9465.42,3805.53 c -28.45,47.19 -68.76,74.26 -110.62,74.26 h -22.83 v -33.51 h 22.83 c 29.82,0 59.69,-21.16 81.92,-58.05 28.45,-47.2 68.77,-74.26 110.63,-74.26 h 24.87 v 33.51 h -24.87 c -29.83,0 -59.69,21.16 -81.93,58.05"/>
        <path
                style="fill:#ffffff;fill-opacity:1;fill-rule:nonzero;stroke:none"
                d="m 9116.04,3805.52 c -13.35,22.16 -29.35,39.81 -46.87,52.38 v -44.86 c 6.46,-7.22 12.56,-15.51 18.17,-24.82 28.45,-47.19 68.77,-74.26 110.63,-74.26 h 24.87 v 33.51 h -24.87 c -29.83,0 -59.69,21.16 -81.93,58.05"/>
        <path
                style="fill:#ffffff;fill-opacity:1;fill-rule:nonzero;stroke:none"
                d="m 9280.64,3673.21 c -22.24,-36.9 -52.1,-58.05 -81.92,-58.05 h -24.87 v -33.51 h 24.87 c 41.86,0 82.18,27.07 110.62,74.26 22.24,36.89 52.1,58.05 81.92,58.05 h 22.83 v 33.51 h -22.83 c -41.85,0 -82.17,-27.06 -110.62,-74.26"/>
        <path
                style="fill:#ffffff;fill-opacity:1;fill-rule:nonzero;stroke:none"
                d="m 9630.02,3673.22 c -22.24,-36.9 -52.09,-58.06 -81.92,-58.06 h -24.88 l 0.01,-33.51 h 24.87 c 41.86,0 82.18,27.07 110.62,74.27 22.24,36.89 52.1,58.05 81.92,58.05 h 22.83 v 33.51 h -22.83 c -41.85,0 -82.17,-27.07 -110.62,-74.26"/>
        <path
                style="fill:#ffffff;fill-opacity:1;fill-rule:nonzero;stroke:none"
                d="m 9979.4,3673.22 c -22.24,-36.89 -52.1,-58.05 -81.92,-58.05 h -24.88 v -33.51 h 24.88 c 41.85,0 82.18,27.07 110.62,74.26 22.2,36.89 52.1,58.05 81.9,58.06 h 22.9 v 33.51 l -22.9,-0.01 c -41.8,0 -82.1,-27.06 -110.6,-74.26"/>
        <path
                style="fill:#ffffff;fill-opacity:1;fill-rule:nonzero;stroke:none"
                d="m 10328.8,3673.23 c -22.3,-36.9 -52.1,-58.06 -81.9,-58.06 h -24.9 v -33.51 h 24.9 c 41.8,0 82.1,27.07 110.6,74.27 22.2,36.89 52.1,58.05 81.9,58.05 h 22.8 v 33.51 h -22.8 c -41.8,0 -82.2,-27.07 -110.6,-74.26"/>
        <path
                style="fill:#ffffff;fill-opacity:1;fill-rule:nonzero;stroke:none"
                d="m 10678.2,3673.23 c -22.3,-36.89 -52.1,-58.05 -82,-58.05 h -24.8 v -33.51 h 24.8 c 41.9,0 82.2,27.07 110.7,74.26 22.2,36.89 52.1,58.05 81.9,58.05 h 22.8 v 33.52 l -22.8,-0.01 c -41.9,0 -82.2,-27.07 -110.6,-74.26"/>
        <path
                style="fill:#ffffff;fill-opacity:1;fill-rule:nonzero;stroke:none"
                d="m 11027.5,3673.24 c -22.2,-36.9 -52,-58.06 -81.9,-58.06 h -24.9 v -33.51 h 24.9 c 41.9,0 82.2,27.07 110.6,74.27 22.3,36.89 52.1,58.05 82,58.05 h 22.8 v 33.51 h -22.8 c -41.9,0 -82.2,-27.07 -110.7,-74.26"/>
        <path
                style="fill:#ffffff;fill-opacity:1;fill-rule:nonzero;stroke:none"
                d="m 11376.9,3673.24 c -22.2,-36.89 -52.1,-58.05 -81.9,-58.05 h -24.9 v -33.51 h 24.9 c 41.9,0 82.2,27.07 110.6,74.26 22.3,36.89 52.1,58.05 81.9,58.06 h 22.9 v 33.5 h -22.9 c -41.8,0 -82.1,-27.06 -110.6,-74.26"/>
        <path
                style="fill:#ffffff;fill-opacity:1;fill-rule:nonzero;stroke:none"
                d="m 11726.3,3673.25 c -22.2,-36.9 -52.1,-58.06 -81.9,-58.06 h -24.9 v -33.51 h 24.9 c 41.8,0 82.2,27.07 110.6,74.27 5.6,9.3 11.7,17.59 18.2,24.81 v 44.86 c -17.5,-12.57 -33.5,-30.22 -46.9,-52.37"/>
        <path
                style="fill:#ffffff;fill-opacity:1;fill-rule:nonzero;stroke:none"
                d="m 11668.5,3426.4 v 33.51 h -24.9 c -29.8,0 -59.7,21.16 -81.9,58.05 -28.4,47.2 -68.8,74.26 -110.6,74.26 h -22.8 v -33.51 h 22.8 c 29.8,0 59.7,-21.16 81.9,-58.05 28.5,-47.19 68.8,-74.26 110.6,-74.26 h 24.9"/>
        <path
                style="fill:#ffffff;fill-opacity:1;fill-rule:nonzero;stroke:none"
                d="m 11212.3,3517.96 c -28.4,47.19 -68.7,74.26 -110.6,74.26 h -22.8 v -33.51 h 22.8 c 29.8,0 59.7,-21.16 81.9,-58.05 28.5,-47.2 68.8,-74.26 110.7,-74.26 h 24.8 v 33.51 h -24.8 c -29.9,-0.01 -59.7,21.16 -82,58.05"/>
        <path
                style="fill:#ffffff;fill-opacity:1;fill-rule:nonzero;stroke:none"
                d="m 10862.9,3517.95 c -28.4,47.2 -68.7,74.26 -110.6,74.26 h -22.8 v -33.51 h 22.8 c 29.9,0 59.7,-21.15 81.9,-58.05 28.5,-47.19 68.8,-74.26 110.7,-74.26 h 24.8 v 33.51 h -24.8 c -29.9,0 -59.7,21.16 -82,58.05"/>
        <path
                style="fill:#ffffff;fill-opacity:1;fill-rule:nonzero;stroke:none"
                d="m 10513.6,3517.95 c -28.5,47.19 -68.8,74.26 -110.7,74.26 h -22.8 v -33.51 h 22.8 c 29.9,0 59.7,-21.16 82,-58.05 28.4,-47.2 68.7,-74.26 110.6,-74.26 h 24.9 v 33.51 h -24.9 c -29.8,0 -59.7,21.16 -81.9,58.05"/>
        <path
                style="fill:#ffffff;fill-opacity:1;fill-rule:nonzero;stroke:none"
                d="m 10164.2,3517.94 c -28.5,47.19 -68.8,74.26 -110.6,74.26 h -22.9 v -33.51 h 22.9 c 29.8,0 59.6,-21.16 81.9,-58.05 28.4,-47.19 68.8,-74.26 110.6,-74.26 h 24.9 v 33.51 h -24.9 c -29.8,0 -59.7,21.16 -81.9,58.05"/>
        <path
                style="fill:#ffffff;fill-opacity:1;fill-rule:nonzero;stroke:none"
                d="m 9814.81,3517.94 c -28.45,47.19 -68.77,74.26 -110.63,74.26 h -22.83 v -33.51 h 22.83 c 29.83,0 59.69,-21.16 81.93,-58.05 28.45,-47.2 68.77,-74.26 110.62,-74.26 h 24.88 l -0.01,33.51 h -24.87 c -29.82,0 -59.68,21.16 -81.92,58.05"/>
        <path
                style="fill:#ffffff;fill-opacity:1;fill-rule:nonzero;stroke:none"
                d="m 9465.42,3517.93 c -28.44,47.2 -68.76,74.26 -110.61,74.26 h -22.84 l 0.01,-33.51 h 22.83 c 29.82,0 59.68,-21.15 81.92,-58.05 28.45,-47.19 68.77,-74.26 110.62,-74.26 h 24.87 v 33.51 h -24.87 c -29.82,0 -59.68,21.16 -81.93,58.05"/>
        <path
                style="fill:#ffffff;fill-opacity:1;fill-rule:nonzero;stroke:none"
                d="m 9116.05,3517.93 c -13.36,22.15 -29.35,39.81 -46.87,52.37 v -44.85 c 6.46,-7.22 12.56,-15.51 18.17,-24.82 28.45,-47.2 68.77,-74.26 110.62,-74.26 h 24.87 v 33.51 h -24.87 c -29.82,-0.01 -59.68,21.16 -81.92,58.05"/>
        <path
                style="fill:#ffffff;fill-opacity:1;fill-rule:nonzero;stroke:none"
                d="m 9280.64,3385.62 c -22.23,-36.9 -52.09,-58.06 -81.92,-58.06 h -24.87 v -33.51 h 24.87 c 41.85,0 82.18,27.07 110.62,74.26 22.24,36.9 52.1,58.06 81.93,58.06 h 22.82 v 33.51 h -22.82 c -41.86,0 -82.18,-27.07 -110.63,-74.26"/>
        <path
                style="fill:#ffffff;fill-opacity:1;fill-rule:nonzero;stroke:none"
                d="m 9630.02,3385.62 c -22.23,-36.89 -52.09,-58.05 -81.92,-58.05 h -24.87 v -33.51 h 24.88 c 41.85,0 82.17,27.07 110.61,74.26 22.24,36.89 52.1,58.05 81.93,58.05 h 22.83 v 33.51 h -22.83 c -41.86,0 -82.18,-27.07 -110.63,-74.26"/>
        <path
                style="fill:#ffffff;fill-opacity:1;fill-rule:nonzero;stroke:none"
                d="m 9979.41,3385.62 c -22.24,-36.89 -52.1,-58.05 -81.93,-58.05 h -24.87 v -33.51 h 24.87 c 41.85,0 82.17,27.07 110.62,74.27 22.2,36.89 52.1,58.05 81.9,58.05 h 22.9 v 33.51 h -22.9 c -41.8,0 -82.2,-27.07 -110.59,-74.27"/>
        <path
                style="fill:#ffffff;fill-opacity:1;fill-rule:nonzero;stroke:none"
                d="m 10328.8,3385.63 c -22.3,-36.89 -52.1,-58.05 -81.9,-58.05 h -24.9 v -33.51 h 24.9 c 41.8,0 82.1,27.07 110.6,74.26 22.2,36.9 52.1,58.05 81.9,58.05 h 22.8 v 33.51 h -22.8 c -41.8,0 -82.2,-27.07 -110.6,-74.26"/>
        <path
                style="fill:#ffffff;fill-opacity:1;fill-rule:nonzero;stroke:none"
                d="m 10678.2,3385.63 c -22.3,-36.89 -52.1,-58.05 -82,-58.05 h -24.8 v -33.51 h 24.8 c 41.9,0 82.2,27.07 110.7,74.26 22.2,36.9 52.1,58.06 81.9,58.06 h 22.8 v 33.51 h -22.8 c -41.9,0 -82.2,-27.07 -110.6,-74.27"/>
        <path
                style="fill:#ffffff;fill-opacity:1;fill-rule:nonzero;stroke:none"
                d="m 11027.5,3385.64 c -22.2,-36.89 -52.1,-58.05 -81.9,-58.05 h -24.8 v -33.51 h 24.8 c 41.9,0 82.2,27.07 110.6,74.26 22.3,36.89 52.1,58.05 82,58.05 h 22.8 v 33.51 h -22.8 c -41.9,0 -82.2,-27.07 -110.7,-74.26"/>
        <path
                style="fill:#ffffff;fill-opacity:1;fill-rule:nonzero;stroke:none"
                d="m 11376.9,3385.65 c -22.2,-36.9 -52.1,-58.06 -81.9,-58.06 h -24.9 v -33.51 h 24.9 c 41.9,0 82.2,27.07 110.6,74.27 22.3,36.89 52.1,58.05 81.9,58.05 h 22.9 v 33.51 h -22.9 c -41.8,0 -82.1,-27.07 -110.6,-74.26"/>
        <path
                style="fill:#ffffff;fill-opacity:1;fill-rule:nonzero;stroke:none"
                d="m 11726.3,3385.65 c -22.2,-36.89 -52.1,-58.05 -81.9,-58.05 h -24.9 v -33.51 h 24.9 c 41.8,0 82.2,27.07 110.6,74.26 5.6,9.31 11.7,17.6 18.2,24.82 v 44.86 c -17.5,-12.57 -33.5,-30.22 -46.9,-52.38"/>
        <path
                style="fill:#ffffff;fill-opacity:1;fill-rule:nonzero;stroke:none"
                d="m 11668.5,3138.81 v 33.51 h -24.9 c -29.8,0 -59.6,21.16 -81.9,58.05 -28.4,47.2 -68.8,74.26 -110.6,74.26 h -22.8 v -33.51 h 22.8 c 29.8,0 59.7,-21.16 81.9,-58.05 28.5,-47.19 68.8,-74.26 110.6,-74.26 h 24.9"/>
        <path
                style="fill:#ffffff;fill-opacity:1;fill-rule:nonzero;stroke:none"
                d="m 11212.3,3230.37 c -28.4,47.19 -68.7,74.26 -110.6,74.26 h -22.8 v -33.51 h 22.8 c 29.8,0 59.7,-21.16 81.9,-58.05 28.5,-47.2 68.8,-74.27 110.7,-74.26 h 24.8 v 33.51 h -24.8 c -29.9,0 -59.7,21.16 -82,58.05"/>
        <path
                style="fill:#ffffff;fill-opacity:1;fill-rule:nonzero;stroke:none"
                d="m 10862.9,3230.36 c -28.4,47.19 -68.7,74.26 -110.6,74.26 h -22.8 v -33.51 h 22.8 c 29.9,0 59.7,-21.15 82,-58.05 28.4,-47.19 68.7,-74.26 110.6,-74.26 h 24.8 v 33.51 h -24.8 c -29.8,0 -59.7,21.16 -82,58.05"/>
        <path
                style="fill:#ffffff;fill-opacity:1;fill-rule:nonzero;stroke:none"
                d="m 10513.6,3230.36 c -28.5,47.19 -68.8,74.26 -110.7,74.26 h -22.8 v -33.51 h 22.8 c 29.9,0 59.7,-21.16 82,-58.05 28.4,-47.2 68.7,-74.26 110.6,-74.26 h 24.9 v 33.51 h -24.9 c -29.8,0 -59.7,21.16 -81.9,58.05"/>
        <path
                style="fill:#ffffff;fill-opacity:1;fill-rule:nonzero;stroke:none"
                d="m 10164.2,3230.35 c -28.5,47.2 -68.8,74.26 -110.6,74.26 h -22.9 v -33.51 h 22.9 c 29.8,0 59.7,-21.16 81.9,-58.05 28.4,-47.19 68.8,-74.26 110.6,-74.26 h 24.9 v 33.51 h -24.9 c -29.8,0 -59.7,21.16 -81.9,58.05"/>
        <path
                style="fill:#ffffff;fill-opacity:1;fill-rule:nonzero;stroke:none"
                d="m 9814.81,3230.35 c -28.45,47.19 -68.77,74.26 -110.62,74.26 h -22.83 v -33.51 h 22.83 c 29.82,0 59.68,-21.16 81.92,-58.05 28.45,-47.2 68.77,-74.27 110.62,-74.26 h 24.88 v 33.51 l -24.88,-0.01 c -29.82,0 -59.68,21.16 -81.92,58.06"/>
        <path
                style="fill:#ffffff;fill-opacity:1;fill-rule:nonzero;stroke:none"
                d="m 9465.43,3230.34 c -28.44,47.19 -68.77,74.26 -110.62,74.26 h -22.83 v -33.51 h 22.83 c 29.83,0 59.68,-21.15 81.92,-58.05 28.45,-47.19 68.77,-74.26 110.62,-74.26 h 24.88 l -0.01,33.51 h -24.87 c -29.82,0 -59.68,21.16 -81.92,58.05"/>
        <path
                style="fill:#ffffff;fill-opacity:1;fill-rule:nonzero;stroke:none"
                d="m 9116.05,3230.34 c -13.35,22.15 -29.35,39.81 -46.87,52.37 v -44.85 c 6.46,-7.22 12.56,-15.51 18.17,-24.82 28.45,-47.2 68.77,-74.26 110.63,-74.26 h 24.87 v 33.51 h -24.87 c -29.83,0 -59.69,21.16 -81.93,58.05"/>
        <path
                style="fill:#ffffff;fill-opacity:1;fill-rule:nonzero;stroke:none"
                d="m 9280.65,3098.02 c -22.24,-36.89 -52.1,-58.05 -81.93,-58.05 h -24.87 v -33.51 h 24.87 c 41.86,0 82.19,27.07 110.63,74.27 22.24,36.89 52.1,58.05 81.92,58.05 h 22.83 v 33.51 h -22.83 c -41.85,0 -82.17,-27.07 -110.62,-74.27"/>
        <path
                style="fill:#ffffff;fill-opacity:1;fill-rule:nonzero;stroke:none"
                d="m 9630.03,3098.03 c -22.24,-36.9 -52.09,-58.05 -81.92,-58.05 h -24.88 v -33.51 h 24.88 c 41.85,0 82.17,27.07 110.62,74.26 22.24,36.89 52.1,58.05 81.92,58.05 h 22.83 v 33.51 h -22.83 c -41.85,0 -82.18,-27.07 -110.62,-74.26"/>
        <path
                style="fill:#ffffff;fill-opacity:1;fill-rule:nonzero;stroke:none"
                d="m 9979.41,3098.04 c -22.24,-36.9 -52.1,-58.06 -81.92,-58.06 h -24.88 v -33.51 h 24.88 c 41.85,0 82.17,27.07 110.61,74.26 22.2,36.9 52.1,58.06 81.9,58.06 h 22.9 v 33.51 h -22.9 c -41.8,0 -82.1,-27.07 -110.59,-74.26"/>
        <path
                style="fill:#ffffff;fill-opacity:1;fill-rule:nonzero;stroke:none"
                d="m 10328.8,3098.04 c -22.3,-36.89 -52.1,-58.05 -81.9,-58.05 h -24.9 v -33.51 h 24.9 c 41.8,0 82.1,27.07 110.6,74.26 22.2,36.9 52.1,58.05 81.9,58.05 h 22.8 v 33.51 h -22.8 c -41.8,0 -82.2,-27.07 -110.6,-74.26"/>
        <path
                style="fill:#ffffff;fill-opacity:1;fill-rule:nonzero;stroke:none"
                d="m 10678.2,3098.05 c -22.3,-36.9 -52.1,-58.06 -82,-58.06 h -24.8 v -33.51 h 24.8 c 41.9,0 82.2,27.07 110.7,74.27 22.2,36.89 52.1,58.05 81.9,58.05 h 22.8 v 33.51 h -22.8 c -41.9,0 -82.2,-27.07 -110.6,-74.26"/>
        <path
                style="fill:#ffffff;fill-opacity:1;fill-rule:nonzero;stroke:none"
                d="m 11027.5,3098.05 c -22.2,-36.9 -52,-58.05 -81.9,-58.05 h -24.8 v -33.51 h 24.8 c 41.9,0 82.2,27.07 110.6,74.26 22.3,36.89 52.1,58.05 82,58.05 h 22.8 v 33.51 h -22.8 c -41.9,0 -82.2,-27.07 -110.7,-74.26"/>
        <path
                style="fill:#ffffff;fill-opacity:1;fill-rule:nonzero;stroke:none"
                d="m 11487.6,3138.81 h 22.8 v 33.51 h -22.8 c -41.9,0 -82.2,-27.07 -110.7,-74.27 -22.2,-36.89 -52.1,-58.05 -81.9,-58.05 h -24.9 v -33.51 h 24.9 c 41.9,0 82.2,27.07 110.6,74.27 22.3,36.89 52.1,58.05 82,58.05"/>
        <path
                style="fill:#ffffff;fill-opacity:1;fill-rule:nonzero;stroke:none"
                d="m 11726.3,3098.06 c -22.2,-36.89 -52.1,-58.05 -81.9,-58.05 l -24.9,-0.01 v -33.5 h 24.9 c 41.8,0 82.2,27.07 110.6,74.26 5.6,9.31 11.7,17.6 18.2,24.82 v 44.86 c -17.5,-12.57 -33.5,-30.22 -46.9,-52.38"/>
        <path
                style="fill:#ffffff;fill-opacity:1;fill-rule:nonzero;stroke:none"
                d="m 11668.5,2851.22 v 33.51 h -24.9 c -29.8,0 -59.6,21.16 -81.9,58.05 -28.4,47.19 -68.8,74.26 -110.6,74.26 h -22.8 v -33.51 h 22.8 c 29.8,0 59.7,-21.16 81.9,-58.05 28.5,-47.19 68.8,-74.26 110.6,-74.26 h 24.9"/>
        <path
                style="fill:#ffffff;fill-opacity:1;fill-rule:nonzero;stroke:none"
                d="m 11319.1,2851.22 v 33.51 h -24.8 c -29.9,-0.01 -59.7,21.16 -82,58.05 -28.4,47.19 -68.7,74.26 -110.6,74.26 h -22.8 v -33.51 h 22.8 c 29.8,0 59.7,-21.16 81.9,-58.05 28.5,-47.2 68.8,-74.26 110.7,-74.26 h 24.8"/>
        <path
                style="fill:#ffffff;fill-opacity:1;fill-rule:nonzero;stroke:none"
                d="m 10863,2942.77 c -28.5,47.19 -68.8,74.26 -110.7,74.26 h -22.8 v -33.51 h 22.8 c 29.9,0 59.7,-21.16 82,-58.05 28.4,-47.19 68.7,-74.26 110.6,-74.26 h 24.9 v 33.51 h -24.9 c -29.8,0 -59.7,21.16 -81.9,58.05"/>
        <path
                style="fill:#ffffff;fill-opacity:1;fill-rule:nonzero;stroke:none"
                d="m 10513.6,2942.77 c -28.5,47.19 -68.8,74.26 -110.6,74.26 h -22.9 v -33.51 h 22.9 c 29.8,0 59.6,-21.16 81.9,-58.05 28.4,-47.2 68.7,-74.27 110.6,-74.27 l 24.9,0.01 v 33.5 h -24.9 c -29.8,0 -59.7,21.17 -81.9,58.06"/>
        <path
                style="fill:#ffffff;fill-opacity:1;fill-rule:nonzero;stroke:none"
                d="m 10164.2,2942.76 c -28.5,47.19 -68.8,74.26 -110.6,74.26 h -22.9 v -33.51 h 22.9 c 29.8,0 59.7,-21.16 81.9,-58.05 28.4,-47.19 68.8,-74.26 110.6,-74.26 h 24.9 v 33.51 h -24.9 c -29.8,0 -59.7,21.15 -81.9,58.05"/>
        <path
                style="fill:#ffffff;fill-opacity:1;fill-rule:nonzero;stroke:none"
                d="m 9814.82,2942.76 c -28.46,47.19 -68.78,74.26 -110.63,74.26 h -22.83 v -33.51 h 22.83 c 29.83,0 59.69,-21.16 81.93,-58.05 28.44,-47.2 68.76,-74.26 110.62,-74.26 h 24.87 v 33.51 h -24.87 c -29.83,0 -59.69,21.15 -81.92,58.05"/>
        <path
                style="fill:#ffffff;fill-opacity:1;fill-rule:nonzero;stroke:none"
                d="m 9465.43,2942.75 c -28.45,47.2 -68.76,74.26 -110.62,74.26 h -22.83 v -33.51 h 22.83 c 29.83,0 59.69,-21.16 81.92,-58.05 28.45,-47.19 68.77,-74.26 110.63,-74.26 h 24.87 v 33.51 h -24.87 c -29.82,0 -59.69,21.16 -81.93,58.05"/>
        <path
                style="fill:#ffffff;fill-opacity:1;fill-rule:nonzero;stroke:none"
                d="m 9087.35,2925.45 c 28.45,-47.2 68.78,-74.26 110.63,-74.26 h 24.87 v 33.5 h -24.87 c -29.82,0 -59.68,21.17 -81.93,58.06 -13.35,22.15 -29.34,39.8 -46.86,52.37 v -44.86 c 6.45,-7.21 12.55,-15.51 18.16,-24.81"/>
        <path
                style="fill:#ffffff;fill-opacity:1;fill-rule:nonzero;stroke:none"
                d="m 9173.86,2752.38 v -33.51 h 24.87 c 41.86,0 82.18,27.07 110.62,74.26 22.24,36.9 52.1,58.06 81.93,58.06 h 22.82 v 33.51 h -22.82 c -41.85,0 -82.17,-27.07 -110.63,-74.27 -22.23,-36.89 -52.09,-58.05 -81.92,-58.05 h -24.87"/>
        <path
                style="fill:#ffffff;fill-opacity:1;fill-rule:nonzero;stroke:none"
                d="m 9630.03,2810.44 c -22.23,-36.9 -52.09,-58.05 -81.92,-58.05 h -24.87 v -33.51 h 24.87 c 41.86,0 82.18,27.07 110.62,74.26 22.24,36.89 52.1,58.05 81.92,58.05 h 22.84 l -0.01,33.51 h -22.83 c -41.84,0 -82.17,-27.07 -110.62,-74.26"/>
        <path
                style="fill:#ffffff;fill-opacity:1;fill-rule:nonzero;stroke:none"
                d="m 9979.42,2810.44 c -22.25,-36.89 -52.11,-58.05 -81.93,-58.05 h -24.87 v -33.51 h 24.87 c 41.86,0 82.18,27.07 110.61,74.27 22.3,36.89 52.1,58.05 81.9,58.05 h 22.9 v 33.51 h -22.9 c -41.8,0 -82.1,-27.07 -110.58,-74.27"/>
        <path
                style="fill:#ffffff;fill-opacity:1;fill-rule:nonzero;stroke:none"
                d="m 10328.8,2810.45 c -22.2,-36.89 -52.1,-58.05 -81.9,-58.05 h -24.9 v -33.51 h 24.9 c 41.8,0 82.1,27.07 110.6,74.26 22.2,36.89 52.1,58.05 81.9,58.05 h 22.8 v 33.51 h -22.8 c -41.8,0 -82.2,-27.07 -110.6,-74.26"/>
        <path
                style="fill:#ffffff;fill-opacity:1;fill-rule:nonzero;stroke:none"
                d="m 10678.2,2810.45 c -22.3,-36.89 -52.1,-58.05 -81.9,-58.05 h -24.9 v -33.51 h 24.9 c 41.8,0 82.1,27.07 110.6,74.26 22.2,36.9 52.1,58.06 81.9,58.06 h 22.8 v 33.51 h -22.8 c -41.9,0 -82.2,-27.07 -110.6,-74.27"/>
        <path
                style="fill:#ffffff;fill-opacity:1;fill-rule:nonzero;stroke:none"
                d="m 11027.6,2810.46 c -22.3,-36.9 -52.1,-58.05 -82,-58.06 h -24.8 v -33.5 h 24.8 c 41.9,0 82.2,27.06 110.7,74.26 22.2,36.89 52.1,58.05 81.9,58.05 h 22.8 v 33.51 h -22.8 c -41.9,0 -82.2,-27.07 -110.6,-74.26"/>
        <path
                style="fill:#ffffff;fill-opacity:1;fill-rule:nonzero;stroke:none"
                d="m 11487.6,2851.22 h 22.8 v 33.51 h -22.8 c -41.9,0 -82.2,-27.07 -110.7,-74.27 -22.2,-36.89 -52.1,-58.05 -81.9,-58.05 h -24.9 v -33.51 h 24.9 c 41.9,0 82.2,27.07 110.6,74.26 22.3,36.9 52.1,58.06 82,58.06"/>
        <path
                style="fill:#ffffff;fill-opacity:1;fill-rule:nonzero;stroke:none"
                d="m 11726.3,2810.47 c -22.2,-36.89 -52.1,-58.05 -81.9,-58.05 h -24.9 v -33.51 h 24.9 c 41.8,0 82.2,27.07 110.6,74.26 5.6,9.31 11.7,17.6 18.2,24.82 v 44.85 c -17.5,-12.56 -33.5,-30.21 -46.9,-52.37"/>
        <path
                style="fill:#ffffff;fill-opacity:1;fill-rule:nonzero;stroke:none"
                d="m 11668.5,2563.62 v 33.51 h -24.9 c -29.8,0 -59.6,21.17 -81.9,58.05 -28.4,47.2 -68.7,74.27 -110.6,74.27 h -22.8 v -33.51 h 22.8 c 29.8,0 59.7,-21.17 81.9,-58.05 28.5,-47.2 68.8,-74.27 110.6,-74.27 h 24.9"/>
        <path
                style="fill:#ffffff;fill-opacity:1;fill-rule:nonzero;stroke:none"
                d="m 11294.3,2563.62 h 24.8 v 33.51 h -24.8 c -29.9,0 -59.7,21.16 -82,58.05 -28.4,47.19 -68.7,74.26 -110.6,74.26 h -22.8 v -33.51 h 22.8 c 29.8,0 59.7,-21.16 81.9,-58.05 28.5,-47.19 68.8,-74.26 110.7,-74.26"/>
        <path
                style="fill:#ffffff;fill-opacity:1;fill-rule:nonzero;stroke:none"
                d="m 10944.9,2563.62 h 24.9 v 33.5 h -24.9 c -29.8,0 -59.7,21.16 -81.9,58.06 -28.5,47.19 -68.8,74.26 -110.7,74.26 l -22.8,-0.01 v -33.5 h 22.8 c 29.9,0 59.7,-21.16 82,-58.05 28.4,-47.2 68.7,-74.27 110.6,-74.26"/>
        <path
                style="fill:#ffffff;fill-opacity:1;fill-rule:nonzero;stroke:none"
                d="m 10595.5,2563.61 h 24.9 v 33.51 h -24.9 c -29.8,0 -59.7,21.16 -81.9,58.05 -28.5,47.19 -68.8,74.26 -110.6,74.26 h -22.9 v -33.51 h 22.9 c 29.8,0 59.6,-21.16 81.9,-58.05 28.4,-47.19 68.8,-74.26 110.6,-74.26"/>
        <path
                style="fill:#ffffff;fill-opacity:1;fill-rule:nonzero;stroke:none"
                d="m 10246.1,2563.61 h 24.9 v 33.5 h -24.9 c -29.8,0 -59.7,21.17 -81.9,58.06 -28.4,47.19 -68.8,74.26 -110.6,74.26 h -22.8 v -33.51 h 22.8 c 29.8,0 59.7,-21.16 81.9,-58.06 28.5,-47.19 68.8,-74.26 110.6,-74.25"/>
        <path
                style="fill:#ffffff;fill-opacity:1;fill-rule:nonzero;stroke:none"
                d="m 9896.74,2563.6 h 24.88 v 33.51 h -24.88 c -29.82,0 -59.68,21.16 -81.92,58.05 -28.45,47.19 -68.77,74.26 -110.62,74.26 h -22.83 v -33.51 h 22.83 c 29.82,0 59.68,-21.16 81.92,-58.05 28.45,-47.19 68.77,-74.26 110.62,-74.26"/>
        <path
                style="fill:#ffffff;fill-opacity:1;fill-rule:nonzero;stroke:none"
                d="m 9331.99,2729.42 v -33.51 h 22.83 c 29.83,0 59.68,-21.16 81.92,-58.05 28.45,-47.2 68.77,-74.27 110.62,-74.27 h 24.87 v 33.52 l -24.87,-0.01 c -29.82,0 -59.68,21.16 -81.92,58.06 -28.45,47.19 -68.77,74.26 -110.62,74.26 h -22.83"/>
        <path
                style="fill:#ffffff;fill-opacity:1;fill-rule:nonzero;stroke:none"
                d="m 9087.36,2637.85 c 28.45,-47.19 68.78,-74.26 110.62,-74.26 h 24.87 v 33.51 h -24.87 c -29.82,0 -59.68,21.16 -81.92,58.05 -13.36,22.16 -29.35,39.81 -46.87,52.38 v -44.86 c 6.46,-7.22 12.56,-15.51 18.17,-24.82"/>
        <path
                style="fill:#ffffff;fill-opacity:1;fill-rule:nonzero;stroke:none"
                d="m 9173.86,2464.78 v -33.5 h 24.87 c 41.86,0 82.18,27.07 110.63,74.26 22.24,36.89 52.1,58.05 81.92,58.05 h 22.82 v 33.51 h -22.82 c -41.85,0 -82.18,-27.07 -110.62,-74.26 -22.24,-36.89 -52.1,-58.05 -81.93,-58.05 l -24.87,-0.01"/>
        <path
                style="fill:#ffffff;fill-opacity:1;fill-rule:nonzero;stroke:none"
                d="m 9630.04,2522.84 c -22.24,-36.89 -52.1,-58.05 -81.92,-58.05 h -24.88 v -33.51 h 24.88 c 41.85,0 82.17,27.07 110.61,74.26 22.25,36.9 52.11,58.06 81.93,58.06 h 22.83 v 33.51 h -22.83 c -41.86,0 -82.18,-27.07 -110.62,-74.27"/>
        <path
                style="fill:#ffffff;fill-opacity:1;fill-rule:nonzero;stroke:none"
                d="m 10008.1,2505.55 c 22.3,36.9 52.1,58.05 81.9,58.05 h 22.9 v 33.51 h -22.9 c -41.8,0 -82.1,-27.07 -110.58,-74.26 -22.24,-36.89 -52.1,-58.06 -81.92,-58.06 h -24.88 v -33.51 h 24.88 c 41.85,0.01 82.17,27.08 110.6,74.27"/>
        <path
                style="fill:#ffffff;fill-opacity:1;fill-rule:nonzero;stroke:none"
                d="m 10357.5,2505.55 c 22.2,36.9 52.1,58.06 81.9,58.06 h 22.8 v 33.51 h -22.8 c -41.8,0 -82.2,-27.07 -110.6,-74.27 -22.2,-36.89 -52.1,-58.05 -81.9,-58.05 h -24.9 v -33.51 h 24.9 c 41.8,0 82.1,27.07 110.6,74.26"/>
        <path
                style="fill:#ffffff;fill-opacity:1;fill-rule:nonzero;stroke:none"
                d="m 10706.9,2505.56 c 22.2,36.89 52.1,58.05 81.9,58.05 h 22.8 v 33.51 h -22.8 c -41.9,0 -82.2,-27.07 -110.6,-74.26 -22.3,-36.89 -52.1,-58.05 -81.9,-58.05 l -24.9,-0.01 v -33.5 h 24.9 c 41.8,0 82.1,27.06 110.6,74.26"/>
        <path
                style="fill:#ffffff;fill-opacity:1;fill-rule:nonzero;stroke:none"
                d="m 11056.3,2505.56 c 22.2,36.89 52.1,58.06 81.9,58.06 h 22.8 v 33.51 h -22.8 c -41.9,0 -82.2,-27.07 -110.6,-74.27 -22.3,-36.89 -52.1,-58.05 -82,-58.05 h -24.8 v -33.51 h 24.8 c 41.9,0 82.2,27.07 110.7,74.26"/>
        <path
                style="fill:#ffffff;fill-opacity:1;fill-rule:nonzero;stroke:none"
                d="m 11487.6,2563.62 h 22.8 v 33.51 h -22.8 c -41.9,0 -82.2,-27.07 -110.7,-74.26 -22.2,-36.89 -52.1,-58.05 -81.9,-58.06 h -24.9 v -33.51 h 24.9 c 41.9,0.01 82.2,27.07 110.6,74.27 22.3,36.9 52.1,58.05 82,58.05"/>
        <path
                style="fill:#ffffff;fill-opacity:1;fill-rule:nonzero;stroke:none"
                d="m 11726.3,2522.87 c -22.2,-36.89 -52.1,-58.05 -81.9,-58.05 h -24.9 v -33.51 h 24.9 c 41.8,0 82.2,27.07 110.6,74.26 5.6,9.31 11.7,17.61 18.2,24.82 v 44.86 c -17.5,-12.57 -33.5,-30.22 -46.9,-52.38"/>
        <path
                style="fill:#ffffff;fill-opacity:1;fill-rule:nonzero;stroke:none"
                d="m 11668.5,2276.03 v 33.51 h -24.9 c -29.8,0 -59.6,21.16 -81.9,58.06 -28.4,47.19 -68.7,74.26 -110.6,74.25 h -22.8 v -33.5 h 22.8 c 29.8,0 59.7,-21.16 81.9,-58.06 28.5,-47.19 68.8,-74.26 110.6,-74.26 h 24.9"/>
        <path
                style="fill:#ffffff;fill-opacity:1;fill-rule:nonzero;stroke:none"
                d="m 11294.3,2276.03 h 24.8 v 33.51 h -24.8 c -29.9,0 -59.7,21.16 -82,58.05 -28.4,47.19 -68.7,74.26 -110.6,74.26 h -22.8 v -33.51 h 22.8 c 29.8,0 59.7,-21.16 81.9,-58.05 28.5,-47.19 68.8,-74.26 110.7,-74.26"/>
        <path
                style="fill:#ffffff;fill-opacity:1;fill-rule:nonzero;stroke:none"
                d="m 10944.9,2276.02 h 24.9 v 33.51 h -24.9 c -29.8,0 -59.7,21.16 -81.9,58.05 -28.5,47.2 -68.8,74.27 -110.7,74.27 h -22.8 v -33.51 h 22.8 c 29.9,0 59.7,-21.16 82,-58.06 28.4,-47.19 68.7,-74.26 110.6,-74.26"/>
        <path
                style="fill:#ffffff;fill-opacity:1;fill-rule:nonzero;stroke:none"
                d="m 10595.5,2276.02 h 24.9 v 33.51 h -24.9 c -29.8,0 -59.7,21.16 -81.9,58.05 -28.5,47.19 -68.8,74.26 -110.6,74.26 h -22.9 v -33.51 h 22.9 c 29.8,0 59.6,-21.16 81.9,-58.05 28.4,-47.19 68.8,-74.26 110.6,-74.26"/>
        <path
                style="fill:#ffffff;fill-opacity:1;fill-rule:nonzero;stroke:none"
                d="m 10246.1,2276.01 24.9,0.01 v 33.5 h -24.9 c -29.8,0 -59.7,21.16 -81.9,58.06 -28.4,47.19 -68.8,74.26 -110.6,74.26 h -22.8 v -33.51 h 22.8 c 29.8,0 59.7,-21.17 81.9,-58.05 28.4,-47.2 68.8,-74.27 110.6,-74.27"/>
        <path
                style="fill:#ffffff;fill-opacity:1;fill-rule:nonzero;stroke:none"
                d="m 9896.75,2276.01 h 24.87 v 33.51 h -24.87 c -29.83,0 -59.69,21.15 -81.92,58.05 -28.45,47.19 -68.78,74.26 -110.63,74.26 h -22.83 v -33.51 h 22.83 c 29.82,0 59.68,-21.16 81.93,-58.05 28.44,-47.19 68.76,-74.26 110.62,-74.26"/>
        <path
                style="fill:#ffffff;fill-opacity:1;fill-rule:nonzero;stroke:none"
                d="m 9331.99,2441.82 v -33.5 h 22.83 c 29.83,0 59.69,-21.16 81.92,-58.06 28.45,-47.19 68.77,-74.26 110.63,-74.26 l 24.87,0.01 v 33.5 h -24.87 c -29.83,0 -59.69,21.17 -81.93,58.06 -28.44,47.19 -68.76,74.26 -110.62,74.26 l -22.83,-0.01"/>
        <path
                style="fill:#ffffff;fill-opacity:1;fill-rule:nonzero;stroke:none"
                d="m 9087.36,2350.26 c 28.45,-47.19 68.77,-74.26 110.63,-74.26 h 24.87 v 33.51 h -24.87 c -29.83,0 -59.69,21.16 -81.93,58.05 -13.35,22.16 -29.35,39.81 -46.87,52.38 v -44.86 c 6.46,-7.22 12.56,-15.51 18.17,-24.82"/>
        <path
                style="fill:#ffffff;fill-opacity:1;fill-rule:nonzero;stroke:none"
                d="m 9173.87,2177.19 v -33.5 h 24.87 c 41.86,0 82.18,27.06 110.62,74.26 22.24,36.89 52.1,58.05 81.92,58.05 h 22.83 v 33.51 h -22.83 c -41.85,0 -82.17,-27.07 -110.62,-74.26 -22.23,-36.9 -52.1,-58.06 -81.92,-58.06 h -24.87"/>
        <path
                style="fill:#ffffff;fill-opacity:1;fill-rule:nonzero;stroke:none"
                d="m 9658.74,2217.95 c 22.24,36.89 52.1,58.06 81.92,58.06 h 22.83 v 33.51 h -22.83 c -41.85,0 -82.17,-27.07 -110.62,-74.27 -22.24,-36.89 -52.09,-58.05 -81.92,-58.05 h -24.87 v -33.51 h 24.87 c 41.86,0 82.18,27.07 110.62,74.26"/>
        <path
                style="fill:#ffffff;fill-opacity:1;fill-rule:nonzero;stroke:none"
                d="m 10008.1,2217.96 c 22.3,36.9 52.1,58.05 81.9,58.05 h 22.9 v 33.51 h -22.9 c -41.8,0 -82.1,-27.07 -110.58,-74.26 -22.24,-36.89 -52.1,-58.05 -81.92,-58.06 h -24.88 v -33.51 l 24.88,0.01 c 41.85,0 82.18,27.06 110.6,74.26"/>
        <path
                style="fill:#ffffff;fill-opacity:1;fill-rule:nonzero;stroke:none"
                d="m 10357.5,2217.96 c 22.2,36.9 52.1,58.06 81.9,58.06 h 22.9 v 33.51 h -22.9 c -41.8,0 -82.2,-27.07 -110.6,-74.27 -22.2,-36.89 -52.1,-58.05 -81.9,-58.05 h -24.9 v -33.51 h 24.9 c 41.8,0 82.2,27.07 110.6,74.26"/>
        <path
                style="fill:#ffffff;fill-opacity:1;fill-rule:nonzero;stroke:none"
                d="m 10706.9,2217.97 c 22.2,36.89 52.1,58.05 81.9,58.05 h 22.8 v 33.51 h -22.8 c -41.8,0 -82.2,-27.07 -110.6,-74.26 -22.3,-36.89 -52.1,-58.06 -81.9,-58.06 h -24.9 v -33.51 h 24.9 c 41.8,0 82.1,27.07 110.6,74.27"/>
        <path
                style="fill:#ffffff;fill-opacity:1;fill-rule:nonzero;stroke:none"
                d="m 11056.3,2217.97 c 22.2,36.89 52.1,58.06 81.9,58.06 h 22.8 v 33.51 h -22.8 c -41.9,0 -82.2,-27.07 -110.6,-74.27 -22.3,-36.89 -52.1,-58.05 -82,-58.05 h -24.8 v -33.51 h 24.8 c 41.9,0 82.2,27.07 110.7,74.26"/>
        <path
                style="fill:#ffffff;fill-opacity:1;fill-rule:nonzero;stroke:none"
                d="m 11405.6,2217.98 c 22.3,36.89 52.1,58.05 82,58.05 h 22.8 v 33.51 h -22.8 c -41.9,0 -82.2,-27.07 -110.7,-74.26 -22.2,-36.89 -52.1,-58.06 -81.9,-58.06 h -24.9 v -33.51 l 24.9,0.01 c 41.9,0 82.2,27.06 110.6,74.26"/>
        <path
                style="fill:#ffffff;fill-opacity:1;fill-rule:nonzero;stroke:none"
                d="m 11726.3,2235.28 c -22.2,-36.89 -52.1,-58.05 -81.9,-58.05 h -24.9 v -33.51 h 24.9 c 41.9,0 82.2,27.07 110.6,74.26 5.6,9.31 11.7,17.61 18.2,24.82 v 44.86 c -17.5,-12.57 -33.5,-30.22 -46.9,-52.38"/>
        <path
                style="fill:#ffffff;fill-opacity:1;fill-rule:nonzero;stroke:none"
                d="m 11643.7,1988.44 h 24.8 v 33.51 h -24.9 c -29.8,0 -59.6,21.16 -81.9,58.05 -28.4,47.2 -68.7,74.27 -110.6,74.27 h -22.8 v -33.51 h 22.8 c 29.8,0 59.7,-21.16 81.9,-58.06 28.5,-47.19 68.8,-74.26 110.7,-74.26"/>
        <path
                style="fill:#ffffff;fill-opacity:1;fill-rule:nonzero;stroke:none"
                d="m 11294.3,1988.44 h 24.8 v 33.51 h -24.8 c -29.9,0 -59.7,21.16 -82,58.05 -28.4,47.19 -68.7,74.26 -110.6,74.26 h -22.8 v -33.51 h 22.8 c 29.8,0 59.7,-21.16 82,-58.05 28.4,-47.19 68.7,-74.26 110.6,-74.26"/>
        <path
                style="fill:#ffffff;fill-opacity:1;fill-rule:nonzero;stroke:none"
                d="m 10944.9,1988.43 h 24.9 v 33.51 h -24.9 c -29.8,0 -59.7,21.16 -81.9,58.06 -28.5,47.19 -68.8,74.26 -110.7,74.25 h -22.8 v -33.5 h 22.8 c 29.9,0 59.7,-21.17 82,-58.06 28.4,-47.19 68.7,-74.26 110.6,-74.26"/>
        <path
                style="fill:#ffffff;fill-opacity:1;fill-rule:nonzero;stroke:none"
                d="m 10595.5,1988.43 h 24.9 v 33.51 h -24.9 c -29.8,0 -59.7,21.16 -81.9,58.05 -28.5,47.19 -68.8,74.26 -110.6,74.26 h -22.9 v -33.51 h 22.9 c 29.8,0 59.6,-21.16 81.9,-58.05 28.4,-47.19 68.8,-74.26 110.6,-74.26"/>
        <path
                style="fill:#ffffff;fill-opacity:1;fill-rule:nonzero;stroke:none"
                d="m 10246.1,1988.42 h 24.9 v 33.51 h -24.9 c -29.8,0 -59.7,21.16 -81.9,58.06 -28.4,47.19 -68.8,74.26 -110.6,74.25 h -22.8 v -33.51 l 22.8,0.01 c 29.8,0 59.7,-21.16 81.9,-58.06 28.5,-47.19 68.8,-74.26 110.6,-74.26"/>
        <path
                style="fill:#ffffff;fill-opacity:1;fill-rule:nonzero;stroke:none"
                d="m 9896.75,1988.42 h 24.88 v 33.51 h -24.88 c -29.83,0 -59.68,21.15 -81.92,58.05 -28.45,47.19 -68.78,74.26 -110.63,74.26 h -22.83 v -33.51 h 22.83 c 29.83,0 59.69,-21.16 81.93,-58.05 28.44,-47.19 68.77,-74.26 110.62,-74.26"/>
        <path
                style="fill:#ffffff;fill-opacity:1;fill-rule:nonzero;stroke:none"
                d="m 9547.37,1988.41 h 24.87 v 33.51 h -24.87 c -29.82,0 -59.68,21.16 -81.93,58.05 -28.44,47.2 -68.76,74.27 -110.61,74.27 h -22.84 l 0.01,-33.51 h 22.83 c 29.82,0 59.68,-21.17 81.92,-58.06 28.44,-47.19 68.77,-74.26 110.62,-74.26"/>
        <path
                style="fill:#ffffff;fill-opacity:1;fill-rule:nonzero;stroke:none"
                d="m 9087.37,2062.67 c 28.45,-47.19 68.77,-74.26 110.62,-74.26 h 24.87 v 33.51 h -24.87 c -29.82,0 -59.68,21.16 -81.92,58.05 -13.36,22.16 -29.35,39.81 -46.87,52.37 v -44.85 c 6.46,-7.22 12.56,-15.51 18.17,-24.82"/>
        <path
                style="fill:#ffffff;fill-opacity:1;fill-rule:nonzero;stroke:none"
                d="m 9173.87,1889.6 v -33.51 h 24.87 c 41.86,0 82.18,27.07 110.62,74.27 22.24,36.89 52.11,58.05 81.93,58.05 h 22.82 v 33.51 h -22.82 c -41.85,0 -82.17,-27.07 -110.63,-74.26 -22.23,-36.9 -52.09,-58.06 -81.92,-58.06 h -24.87"/>
        <path
                style="fill:#ffffff;fill-opacity:1;fill-rule:nonzero;stroke:none"
                d="m 9658.74,1930.36 c 22.24,36.89 52.1,58.06 81.93,58.06 h 22.83 v 33.51 h -22.83 c -41.85,0 -82.17,-27.07 -110.63,-74.27 -22.23,-36.89 -52.09,-58.05 -81.91,-58.05 h -24.88 v -33.51 h 24.88 c 41.85,0 82.17,27.07 110.61,74.26"/>
        <path
                style="fill:#ffffff;fill-opacity:1;fill-rule:nonzero;stroke:none"
                d="m 10008.1,1930.37 c 22.3,36.89 52.1,58.05 81.9,58.05 h 22.9 v 33.51 h -22.9 c -41.8,0 -82.1,-27.07 -110.57,-74.26 -22.24,-36.89 -52.1,-58.06 -81.93,-58.06 h -24.87 v -33.51 h 24.87 c 41.86,0.01 82.18,27.07 110.6,74.27"/>
        <path
                style="fill:#ffffff;fill-opacity:1;fill-rule:nonzero;stroke:none"
                d="m 10357.5,1930.37 c 22.2,36.89 52.1,58.06 81.9,58.06 h 22.9 v 33.51 h -22.9 c -41.8,-0.01 -82.1,-27.07 -110.6,-74.27 -22.2,-36.89 -52.1,-58.05 -81.9,-58.05 h -24.9 v -33.51 h 24.9 c 41.8,0 82.2,27.07 110.6,74.26"/>
        <path
                style="fill:#ffffff;fill-opacity:1;fill-rule:nonzero;stroke:none"
                d="m 10706.9,1930.38 c 22.2,36.89 52.1,58.05 81.9,58.05 h 22.8 v 33.51 h -22.8 c -41.8,0 -82.2,-27.07 -110.6,-74.26 -22.3,-36.89 -52.1,-58.06 -81.9,-58.06 h -24.9 v -33.51 h 24.9 c 41.8,0.01 82.1,27.07 110.6,74.27"/>
        <path
                style="fill:#ffffff;fill-opacity:1;fill-rule:nonzero;stroke:none"
                d="m 11056.3,1930.38 c 22.2,36.89 52.1,58.06 81.9,58.06 h 22.8 v 33.51 h -22.8 c -41.9,0 -82.2,-27.07 -110.6,-74.27 -22.3,-36.89 -52.1,-58.05 -82,-58.05 h -24.8 v -33.51 h 24.8 c 41.9,0 82.2,27.07 110.7,74.26"/>
        <path
                style="fill:#ffffff;fill-opacity:1;fill-rule:nonzero;stroke:none"
                d="m 11405.6,1930.39 c 22.3,36.89 52.1,58.05 82,58.05 h 22.8 v 33.51 h -22.8 c -41.9,0 -82.2,-27.07 -110.7,-74.26 -22.2,-36.89 -52.1,-58.06 -81.9,-58.06 h -24.8 v -33.51 h 24.8 c 41.9,0 82.2,27.07 110.6,74.27"/>
        <path
                style="fill:#ffffff;fill-opacity:1;fill-rule:nonzero;stroke:none"
                d="m 11726.3,1947.69 c -22.2,-36.89 -52.1,-58.05 -81.9,-58.05 h -24.9 v -33.51 h 24.9 c 41.9,0 82.2,27.07 110.6,74.26 5.6,9.31 11.7,17.6 18.2,24.82 v 44.86 c -17.5,-12.57 -33.5,-30.22 -46.9,-52.38"/>
        <path
                style="fill:#ffffff;fill-opacity:1;fill-rule:nonzero;stroke:none"
                d="m 11643.7,1700.85 h 24.8 v 33.51 h -24.8 c -29.9,0 -59.7,21.16 -82,58.05 -28.4,47.19 -68.7,74.26 -110.6,74.26 h -22.8 v -33.51 h 22.8 c 29.8,0 59.7,-21.16 81.9,-58.05 28.5,-47.19 68.8,-74.26 110.7,-74.26"/>
        <path
                style="fill:#ffffff;fill-opacity:1;fill-rule:nonzero;stroke:none"
                d="m 11294.3,1700.84 h 24.9 v 33.51 h -24.9 c -29.8,0 -59.7,21.16 -82,58.05 -28.4,47.2 -68.7,74.27 -110.6,74.26 h -22.8 v -33.51 h 22.8 c 29.9,0 59.7,-21.16 82,-58.05 28.4,-47.19 68.7,-74.26 110.6,-74.26"/>
        <path
                style="fill:#ffffff;fill-opacity:1;fill-rule:nonzero;stroke:none"
                d="m 10944.9,1700.84 h 24.9 v 33.51 h -24.9 c -29.8,0 -59.7,21.16 -81.9,58.05 -28.5,47.19 -68.8,74.26 -110.6,74.26 h -22.9 v -33.51 h 22.9 c 29.8,0 59.6,-21.16 81.9,-58.05 28.4,-47.19 68.7,-74.26 110.6,-74.26"/>
        <path
                style="fill:#ffffff;fill-opacity:1;fill-rule:nonzero;stroke:none"
                d="m 10595.5,1700.83 h 24.9 v 33.51 h -24.9 c -29.8,0 -59.7,21.16 -81.9,58.05 -28.5,47.2 -68.8,74.27 -110.6,74.26 h -22.9 v -33.51 l 22.9,0.01 c 29.8,0 59.7,-21.17 81.9,-58.06 28.4,-47.19 68.8,-74.26 110.6,-74.26"/>
        <path
                style="fill:#ffffff;fill-opacity:1;fill-rule:nonzero;stroke:none"
                d="m 10246.1,1700.83 h 24.9 v 33.51 h -24.9 c -29.8,0 -59.7,21.16 -81.9,58.05 -28.4,47.19 -68.8,74.26 -110.6,74.26 h -22.8 v -33.51 h 22.8 c 29.8,0 59.7,-21.16 81.9,-58.05 28.5,-47.2 68.8,-74.26 110.6,-74.26"/>
        <path
                style="fill:#ffffff;fill-opacity:1;fill-rule:nonzero;stroke:none"
                d="m 9896.75,1700.82 h 24.88 v 33.51 h -24.88 c -29.82,0 -59.68,21.16 -81.92,58.05 -28.45,47.2 -68.77,74.26 -110.62,74.26 h -22.83 v -33.51 h 22.83 c 29.82,0 59.68,-21.16 81.92,-58.05 28.45,-47.19 68.77,-74.26 110.62,-74.26"/>
        <path
                style="fill:#ffffff;fill-opacity:1;fill-rule:nonzero;stroke:none"
                d="m 9547.38,1700.82 h 24.87 l -0.01,33.51 h -24.87 c -29.82,0 -59.68,21.16 -81.92,58.05 -28.44,47.19 -68.77,74.26 -110.62,74.26 H 9332 v -33.51 h 22.83 c 29.83,0 59.68,-21.15 81.92,-58.05 28.45,-47.19 68.78,-74.26 110.63,-74.26"/>
        <path
                style="fill:#ffffff;fill-opacity:1;fill-rule:nonzero;stroke:none"
                d="m 9198,1700.81 h 24.87 v 33.51 H 9198 c -29.83,0 -59.69,21.16 -81.93,58.05 -13.35,22.16 -29.35,39.81 -46.87,52.38 v -44.86 c 6.46,-7.21 12.56,-15.51 18.17,-24.82 28.46,-47.19 68.78,-74.26 110.63,-74.26"/>
        <path
                style="fill:#ffffff;fill-opacity:1;fill-rule:nonzero;stroke:none"
                d="m 9309.37,1642.76 c 22.24,36.89 52.1,58.05 81.92,58.06 h 22.83 v 33.51 l -22.83,-0.01 c -41.85,0 -82.17,-27.06 -110.62,-74.26 -22.24,-36.89 -52.1,-58.05 -81.93,-58.05 h -24.87 v -33.51 h 24.88 c 41.85,0 82.17,27.07 110.62,74.26"/>
        <path
                style="fill:#ffffff;fill-opacity:1;fill-rule:nonzero;stroke:none"
                d="m 9658.75,1642.77 c 22.24,36.89 52.1,58.05 81.92,58.05 h 22.83 v 33.51 h -22.83 c -41.85,0 -82.17,-27.07 -110.62,-74.26 -22.24,-36.89 -52.1,-58.06 -81.92,-58.06 h -24.88 v -33.51 h 24.88 c 41.85,0 82.17,27.07 110.62,74.27"/>
        <path
                style="fill:#ffffff;fill-opacity:1;fill-rule:nonzero;stroke:none"
                d="m 10008.1,1642.77 c 22.3,36.9 52.1,58.06 82,58.06 h 22.8 v 33.51 h -22.8 c -41.9,0 -82.2,-27.07 -110.67,-74.27 -22.24,-36.89 -52.1,-58.05 -81.92,-58.05 h -24.88 v -33.51 h 24.88 c 41.85,0 82.17,27.07 110.59,74.26"/>
        <path
                style="fill:#ffffff;fill-opacity:1;fill-rule:nonzero;stroke:none"
                d="m 10357.5,1642.78 c 22.2,36.89 52.1,58.05 81.9,58.05 h 22.9 v 33.51 h -22.9 c -41.8,0 -82.1,-27.07 -110.6,-74.26 -22.2,-36.9 -52.1,-58.06 -81.9,-58.06 h -24.9 v -33.51 h 24.9 c 41.8,0 82.2,27.07 110.6,74.27"/>
        <path
                style="fill:#ffffff;fill-opacity:1;fill-rule:nonzero;stroke:none"
                d="m 10706.9,1642.78 c 22.2,36.89 52.1,58.05 81.9,58.06 h 22.8 v 33.51 h -22.8 c -41.8,0 -82.2,-27.07 -110.6,-74.27 -22.3,-36.89 -52.1,-58.05 -81.9,-58.05 h -24.9 v -33.51 h 24.9 c 41.8,0 82.1,27.07 110.6,74.26"/>
        <path
                style="fill:#ffffff;fill-opacity:1;fill-rule:nonzero;stroke:none"
                d="m 11056.3,1642.79 c 22.2,36.89 52.1,58.05 81.9,58.05 h 22.8 v 33.51 h -22.8 c -41.9,0 -82.2,-27.07 -110.6,-74.26 -22.3,-36.89 -52.1,-58.06 -81.9,-58.06 h -24.9 v -33.51 h 24.9 c 41.8,0 82.1,27.07 110.6,74.27"/>
        <path
                style="fill:#ffffff;fill-opacity:1;fill-rule:nonzero;stroke:none"
                d="m 11405.7,1642.79 c 22.2,36.9 52,58.06 81.9,58.06 h 22.8 v 33.5 h -22.8 c -41.9,0 -82.2,-27.06 -110.6,-74.26 -22.3,-36.89 -52.1,-58.05 -82,-58.05 h -24.8 v -33.51 h 24.8 c 41.9,0 82.2,27.07 110.7,74.26"/>
        <path
                style="fill:#ffffff;fill-opacity:1;fill-rule:nonzero;stroke:none"
                d="m 11726.3,1660.1 c -22.2,-36.9 -52.1,-58.06 -81.9,-58.06 h -24.9 v -33.51 h 24.9 c 41.9,0 82.2,27.07 110.6,74.27 5.6,9.31 11.7,17.6 18.2,24.82 v 44.85 c -17.5,-12.56 -33.5,-30.22 -46.9,-52.37"/>
        <path
                style="fill:#ffffff;fill-opacity:1;fill-rule:nonzero;stroke:none"
                d="m 11643.7,1413.26 h 24.8 v 33.51 h -24.8 c -29.9,0 -59.7,21.15 -82,58.05 -28.4,47.19 -68.7,74.26 -110.6,74.26 h -22.8 v -33.51 h 22.8 c 29.8,0 59.7,-21.16 81.9,-58.05 28.5,-47.2 68.8,-74.26 110.7,-74.26"/>
        <path
                style="fill:#ffffff;fill-opacity:1;fill-rule:nonzero;stroke:none"
                d="m 11294.3,1413.25 h 24.9 v 33.51 h -24.9 c -29.8,0 -59.7,21.16 -81.9,58.05 -28.5,47.2 -68.8,74.26 -110.7,74.26 h -22.8 v -33.51 h 22.8 c 29.9,0.01 59.7,-21.16 82,-58.05 28.4,-47.19 68.7,-74.26 110.6,-74.26"/>
        <path
                style="fill:#ffffff;fill-opacity:1;fill-rule:nonzero;stroke:none"
                d="m 10944.9,1413.25 h 24.9 v 33.51 h -24.9 c -29.8,0 -59.7,21.16 -81.9,58.05 -28.5,47.19 -68.8,74.26 -110.6,74.26 h -22.9 v -33.51 h 22.9 c 29.8,0 59.6,-21.16 81.9,-58.05 28.4,-47.2 68.7,-74.26 110.6,-74.26"/>
        <path
                style="fill:#ffffff;fill-opacity:1;fill-rule:nonzero;stroke:none"
                d="m 10595.5,1413.24 h 24.9 v 33.51 h -24.9 c -29.8,0 -59.7,21.16 -81.9,58.05 -28.5,47.2 -68.8,74.26 -110.6,74.26 h -22.9 v -33.51 h 22.9 c 29.8,0 59.7,-21.16 81.9,-58.05 28.4,-47.19 68.8,-74.26 110.6,-74.26"/>
        <path
                style="fill:#ffffff;fill-opacity:1;fill-rule:nonzero;stroke:none"
                d="m 10246.1,1413.24 h 24.9 v 33.51 h -24.9 c -29.8,0 -59.6,21.15 -81.9,58.05 -28.4,47.19 -68.8,74.26 -110.6,74.26 h -22.8 v -33.51 h 22.8 c 29.8,0 59.7,-21.16 81.9,-58.05 28.5,-47.19 68.8,-74.26 110.6,-74.26"/>
        <path
                style="fill:#ffffff;fill-opacity:1;fill-rule:nonzero;stroke:none"
                d="m 9896.76,1413.23 h 24.87 v 33.51 h -24.87 c -29.83,0 -59.69,21.16 -81.92,58.05 -28.45,47.2 -68.77,74.26 -110.63,74.26 h -22.83 v -33.51 h 22.83 c 29.83,0.01 59.69,-21.16 81.93,-58.05 28.44,-47.19 68.76,-74.26 110.62,-74.26"/>
        <path
                style="fill:#ffffff;fill-opacity:1;fill-rule:nonzero;stroke:none"
                d="m 9547.38,1413.23 h 24.87 v 33.51 h -24.87 c -29.82,0 -59.68,21.16 -81.93,58.05 -28.44,47.19 -68.76,74.26 -110.62,74.26 H 9332 v -33.51 h 22.83 c 29.83,0 59.69,-21.16 81.92,-58.05 28.45,-47.2 68.78,-74.26 110.63,-74.26"/>
        <path
                style="fill:#ffffff;fill-opacity:1;fill-rule:nonzero;stroke:none"
                d="m 9198,1413.22 h 24.87 v 33.51 H 9198 c -29.82,0 -59.68,21.16 -81.93,58.05 -13.35,22.16 -29.34,39.81 -46.86,52.38 v -44.86 c 6.46,-7.22 12.56,-15.51 18.17,-24.82 28.44,-47.19 68.77,-74.26 110.62,-74.26"/>
        <path
                style="fill:#ffffff;fill-opacity:1;fill-rule:nonzero;stroke:none"
                d="m 9309.37,1355.17 c 22.24,36.89 52.1,58.06 81.93,58.06 h 22.82 v 33.51 h -22.82 c -41.86,-0.01 -82.18,-27.08 -110.63,-74.27 -22.23,-36.9 -52.09,-58.05 -81.92,-58.05 h -24.87 v -33.51 h 24.87 c 41.86,0 82.18,27.07 110.62,74.26"/>
        <path
                style="fill:#ffffff;fill-opacity:1;fill-rule:nonzero;stroke:none"
                d="m 9658.75,1355.18 c 22.24,36.89 52.1,58.05 81.93,58.05 h 22.83 v 33.51 h -22.84 c -41.85,0 -82.17,-27.07 -110.62,-74.26 -22.23,-36.9 -52.09,-58.06 -81.92,-58.06 h -24.87 v -33.51 h 24.87 c 41.86,0 82.18,27.07 110.62,74.27"/>
        <path
                style="fill:#ffffff;fill-opacity:1;fill-rule:nonzero;stroke:none"
                d="m 10008.1,1355.18 c 22.3,36.9 52.1,58.05 82,58.05 l 22.8,0.01 v 33.5 h -22.8 c -41.9,0 -82.2,-27.06 -110.66,-74.26 -22.24,-36.89 -52.11,-58.05 -81.93,-58.05 h -24.87 v -33.51 h 24.87 c 41.86,0 82.18,27.07 110.59,74.26"/>
        <path
                style="fill:#ffffff;fill-opacity:1;fill-rule:nonzero;stroke:none"
                d="m 10357.5,1355.19 c 22.2,36.89 52.1,58.05 81.9,58.05 h 22.9 v 33.51 h -22.9 c -41.8,0 -82.1,-27.07 -110.6,-74.26 -22.2,-36.89 -52.1,-58.06 -81.9,-58.06 h -24.9 v -33.51 h 24.9 c 41.8,0 82.2,27.07 110.6,74.27"/>
        <path
                style="fill:#ffffff;fill-opacity:1;fill-rule:nonzero;stroke:none"
                d="m 10706.9,1355.19 c 22.2,36.89 52.1,58.06 81.9,58.06 h 22.8 v 33.5 h -22.8 c -41.8,0 -82.2,-27.06 -110.6,-74.26 -22.2,-36.89 -52.1,-58.05 -81.9,-58.05 h -24.9 v -33.51 h 24.9 c 41.8,0 82.1,27.07 110.6,74.26"/>
        <path
                style="fill:#ffffff;fill-opacity:1;fill-rule:nonzero;stroke:none"
                d="m 11056.3,1355.2 c 22.2,36.89 52.1,58.05 81.9,58.05 h 22.8 v 33.51 h -22.8 c -41.9,0 -82.2,-27.07 -110.6,-74.26 -22.3,-36.9 -52.1,-58.06 -81.9,-58.06 h -24.9 v -33.51 h 24.9 c 41.8,0 82.1,27.07 110.6,74.27"/>
        <path
                style="fill:#ffffff;fill-opacity:1;fill-rule:nonzero;stroke:none"
                d="m 11405.7,1355.2 c 22.2,36.9 52,58.06 81.9,58.06 h 22.8 v 33.51 h -22.8 c -41.9,-0.01 -82.2,-27.08 -110.6,-74.27 -22.3,-36.89 -52.1,-58.05 -82,-58.05 h -24.8 v -33.51 h 24.8 c 41.9,0 82.2,27.07 110.7,74.26"/>
        <path
                style="fill:#ffffff;fill-opacity:1;fill-rule:nonzero;stroke:none"
                d="m 11755,1355.21 c 5.6,9.3 11.7,17.6 18.2,24.82 v 44.85 c -17.5,-12.56 -33.5,-30.22 -46.9,-52.37 -22.2,-36.89 -52.1,-58.06 -81.9,-58.06 h -24.9 v -33.51 h 24.9 c 41.9,0 82.2,27.07 110.6,74.27"/>
        <path
                style="fill:#ffffff;fill-opacity:1;fill-rule:nonzero;stroke:none"
                d="m 11643.7,1125.67 h 24.8 v 33.51 h -24.8 c -29.9,0 -59.7,21.15 -82,58.05 -28.4,47.19 -68.7,74.26 -110.6,74.26 h -22.8 v -33.51 h 22.8 c 29.8,0 59.7,-21.16 81.9,-58.05 28.5,-47.2 68.8,-74.26 110.7,-74.26"/>
        <path
                style="fill:#ffffff;fill-opacity:1;fill-rule:nonzero;stroke:none"
                d="m 11294.3,1125.66 h 24.9 v 33.51 h -24.9 c -29.8,0 -59.7,21.16 -81.9,58.05 -28.5,47.2 -68.8,74.26 -110.7,74.26 h -22.8 v -33.51 h 22.8 c 29.9,0 59.7,-21.16 82,-58.05 28.4,-47.19 68.7,-74.26 110.6,-74.26"/>
        <path
                style="fill:#ffffff;fill-opacity:1;fill-rule:nonzero;stroke:none"
                d="m 10944.9,1125.66 h 24.9 v 33.51 h -24.9 c -29.8,0 -59.7,21.16 -81.9,58.05 -28.5,47.19 -68.8,74.26 -110.6,74.26 h -22.9 v -33.51 h 22.9 c 29.8,0 59.6,-21.16 81.9,-58.05 28.4,-47.2 68.8,-74.26 110.6,-74.26"/>
        <path
                style="fill:#ffffff;fill-opacity:1;fill-rule:nonzero;stroke:none"
                d="m 10595.5,1125.65 h 24.9 v 33.51 h -24.9 c -29.8,0 -59.7,21.16 -81.9,58.05 -28.5,47.2 -68.8,74.26 -110.6,74.26 h -22.8 v -33.51 h 22.8 c 29.8,0 59.7,-21.16 81.9,-58.05 28.4,-47.19 68.8,-74.26 110.6,-74.26"/>
        <path
                style="fill:#ffffff;fill-opacity:1;fill-rule:nonzero;stroke:none"
                d="m 10246.1,1125.65 h 24.9 v 33.51 h -24.9 c -29.8,0 -59.6,21.15 -81.9,58.05 -28.4,47.19 -68.8,74.26 -110.6,74.26 h -22.8 v -33.51 h 22.8 c 29.8,0 59.7,-21.16 81.9,-58.05 28.5,-47.2 68.8,-74.26 110.6,-74.26"/>
        <path
                style="fill:#ffffff;fill-opacity:1;fill-rule:nonzero;stroke:none"
                d="m 9896.76,1125.64 h 24.88 v 33.51 h -24.88 c -29.83,0 -59.68,21.16 -81.92,58.05 -28.45,47.2 -68.77,74.26 -110.62,74.26 h -22.83 v -33.51 h 22.83 c 29.82,0 59.68,-21.16 81.92,-58.05 28.45,-47.19 68.77,-74.26 110.62,-74.26"/>
        <path
                style="fill:#ffffff;fill-opacity:1;fill-rule:nonzero;stroke:none"
                d="m 9547.38,1125.64 h 24.87 v 33.51 h -24.87 c -29.82,0 -59.68,21.16 -81.92,58.05 -28.45,47.19 -68.77,74.26 -110.62,74.26 h -22.83 v -33.51 h 22.83 c 29.82,0 59.68,-21.16 81.92,-58.05 28.45,-47.2 68.77,-74.26 110.62,-74.26"/>
        <path
                style="fill:#ffffff;fill-opacity:1;fill-rule:nonzero;stroke:none"
                d="m 9198,1125.63 h 24.87 v 33.51 H 9198 c -29.82,0 -59.68,21.16 -81.92,58.05 -13.36,22.16 -29.35,39.81 -46.87,52.38 v -44.86 c 6.46,-7.22 12.56,-15.51 18.17,-24.82 28.45,-47.19 68.77,-74.26 110.62,-74.26"/>
        <path
                style="fill:#ffffff;fill-opacity:1;fill-rule:nonzero;stroke:none"
                d="m 9309.38,1067.58 c 22.24,36.89 52.1,58.05 81.92,58.05 h 22.83 l -0.01,33.51 h -22.82 c -41.85,0 -82.17,-27.06 -110.62,-74.26 -22.24,-36.9 -52.1,-58.05 -81.93,-58.05 h -24.87 v -33.51 h 24.87 c 41.86,0 82.18,27.07 110.63,74.26"/>
        <path
                style="fill:#ffffff;fill-opacity:1;fill-rule:nonzero;stroke:none"
                d="m 9658.76,1067.59 c 22.24,36.89 52.1,58.05 81.92,58.05 h 22.83 v 33.51 h -22.83 c -41.85,0 -82.17,-27.07 -110.62,-74.26 -22.24,-36.9 -52.09,-58.06 -81.92,-58.06 h -24.88 v -33.51 h 24.88 c 41.85,0 82.17,27.07 110.62,74.27"/>
        <path
                style="fill:#ffffff;fill-opacity:1;fill-rule:nonzero;stroke:none"
                d="m 10008.1,1067.59 c 22.3,36.89 52.1,58.06 82,58.06 h 22.8 v 33.51 l -22.8,-0.01 c -41.9,0 -82.2,-27.07 -110.66,-74.26 -22.24,-36.89 -52.1,-58.05 -81.92,-58.05 h -24.88 v -33.508 h 24.88 c 41.85,0 82.17,27.068 110.58,74.258"/>
        <path
                style="fill:#ffffff;fill-opacity:1;fill-rule:nonzero;stroke:none"
                d="m 10357.5,1067.6 c 22.3,36.89 52.1,58.05 81.9,58.05 h 22.9 v 33.51 h -22.9 c -41.8,0 -82.1,-27.07 -110.6,-74.26 -22.2,-36.9 -52.1,-58.06 -81.9,-58.06 h -24.9 v -33.508 h 24.9 c 41.9,0 82.2,27.068 110.6,74.268"/>
        <path
                style="fill:#ffffff;fill-opacity:1;fill-rule:nonzero;stroke:none"
                d="m 10706.9,1067.6 c 22.2,36.89 52.1,58.05 81.9,58.05 h 22.8 v 33.52 l -22.8,-0.01 c -41.8,0 -82.1,-27.06 -110.6,-74.26 -22.2,-36.89 -52.1,-58.05 -81.9,-58.05 h -24.9 v -33.51 h 24.9 c 41.8,0 82.2,27.07 110.6,74.26"/>
        <path
                style="fill:#ffffff;fill-opacity:1;fill-rule:nonzero;stroke:none"
                d="m 11056.3,1067.61 c 22.2,36.89 52.1,58.05 81.9,58.05 h 22.8 v 33.51 h -22.8 c -41.8,0 -82.2,-27.07 -110.6,-74.26 -22.3,-36.9 -52.1,-58.06 -81.9,-58.06 h -24.9 v -33.51 h 24.9 c 41.8,0 82.1,27.07 110.6,74.27"/>
        <path
                style="fill:#ffffff;fill-opacity:1;fill-rule:nonzero;stroke:none"
                d="m 11405.7,1067.61 c 22.2,36.89 52.1,58.05 81.9,58.06 h 22.8 v 33.5 h -22.8 c -41.9,0 -82.2,-27.06 -110.6,-74.26 -22.3,-36.89 -52.1,-58.05 -82,-58.05 h -24.8 v -33.508 h 24.8 c 41.9,0 82.2,27.068 110.7,74.258"/>
        <path
                style="fill:#ffffff;fill-opacity:1;fill-rule:nonzero;stroke:none"
                d="m 11755,1067.62 c 5.6,9.3 11.7,17.59 18.2,24.81 v 44.86 c -17.5,-12.57 -33.5,-30.22 -46.9,-52.37 -22.2,-36.9 -52.1,-58.06 -81.9,-58.06 h -24.9 v -33.508 h 24.9 c 41.9,0 82.2,27.068 110.6,74.268"/>
        <path
                style="fill:#ffffff;fill-opacity:1;fill-rule:nonzero;stroke:none"
                d="m 11643.7,838.07 h 24.8 v 33.512 h -24.8 c -29.9,0 -59.7,21.16 -82,58.047 -28.4,47.191 -68.7,74.261 -110.6,74.261 h -22.8 v -33.511 h 22.8 c 29.8,0 59.7,-21.16 81.9,-58.047 28.5,-47.191 68.8,-74.262 110.7,-74.262"/>
        <path
                style="fill:#ffffff;fill-opacity:1;fill-rule:nonzero;stroke:none"
                d="m 11294.3,838.07 h 24.9 v 33.512 h -24.9 c -29.8,0 -59.7,21.16 -81.9,58.047 -28.5,47.191 -68.8,74.261 -110.7,74.261 h -22.8 v -33.511 h 22.8 c 29.9,0 59.7,-21.16 82,-58.047 28.4,-47.203 68.7,-74.262 110.6,-74.262"/>
        <path
                style="fill:#ffffff;fill-opacity:1;fill-rule:nonzero;stroke:none"
                d="m 10944.9,838.063 h 24.9 v 33.507 h -24.9 c -29.8,0 -59.7,21.16 -81.9,58.051 -28.5,47.199 -68.8,74.259 -110.6,74.259 h -22.9 v -33.509 h 22.9 c 29.8,0 59.6,-21.152 81.9,-58.051 28.4,-47.191 68.8,-74.257 110.6,-74.257"/>
        <path
                style="fill:#ffffff;fill-opacity:1;fill-rule:nonzero;stroke:none"
                d="m 10595.5,838.063 h 24.9 v 33.507 h -24.9 c -29.8,-0.007 -59.7,21.16 -81.9,58.051 -28.4,47.192 -68.8,74.259 -110.6,74.259 h -22.8 v -33.509 h 22.8 c 29.8,0 59.7,-21.16 81.9,-58.051 28.5,-47.199 68.8,-74.257 110.6,-74.257"/>
        <path
                style="fill:#ffffff;fill-opacity:1;fill-rule:nonzero;stroke:none"
                d="m 10246.2,838.051 h 24.8 v 33.512 h -24.8 c -29.9,0 -59.7,21.156 -82,58.046 -28.4,47.192 -68.7,74.261 -110.6,74.261 h -22.8 v -33.511 h 22.8 c 29.8,0 59.7,-21.16 81.9,-58.046 28.5,-47.192 68.8,-74.262 110.7,-74.262"/>
        <path
                style="fill:#ffffff;fill-opacity:1;fill-rule:nonzero;stroke:none"
                d="m 9896.77,838.051 h 24.87 v 33.512 h -24.87 c -29.83,0 -59.69,21.156 -81.92,58.046 -28.45,47.192 -68.78,74.261 -110.63,74.261 h -22.83 v -33.511 h 22.83 c 29.82,0 59.68,-21.16 81.93,-58.046 28.45,-47.204 68.76,-74.262 110.62,-74.262"/>
        <path
                style="fill:#ffffff;fill-opacity:1;fill-rule:nonzero;stroke:none"
                d="m 9547.39,838.039 h 24.87 v 33.512 h -24.87 c -29.83,0 -59.69,21.16 -81.93,58.051 -28.44,47.199 -68.76,74.258 -110.62,74.258 h -22.83 v -33.508 h 22.83 c 29.83,0 59.69,-21.153 81.92,-58.051 28.46,-47.192 68.78,-74.262 110.63,-74.262"/>
        <path
                style="fill:#ffffff;fill-opacity:1;fill-rule:nonzero;stroke:none"
                d="m 9222.88,838.039 v 33.512 h -24.87 c -29.82,0 -59.69,21.16 -81.93,58.051 -13.35,22.148 -29.35,39.808 -46.87,52.371 l 0.01,-44.852 c 6.45,-7.219 12.55,-15.512 18.16,-24.82 28.46,-47.199 68.78,-74.262 110.63,-74.262 h 24.87"/>
        <path
                style="fill:#ffffff;fill-opacity:1;fill-rule:nonzero;stroke:none"
                d="m 9309.38,779.992 c 22.24,36.887 52.1,58.047 81.92,58.047 h 22.83 v 33.512 h -22.83 c -41.85,0 -82.17,-27.071 -110.62,-74.262 -22.23,-36.898 -52.1,-58.059 -81.92,-58.059 h -24.87 v -33.507 h 24.87 c 41.85,0 82.17,27.066 110.62,74.269"/>
        <path
                style="fill:#ffffff;fill-opacity:1;fill-rule:nonzero;stroke:none"
                d="m 9658.76,779.992 c 22.24,36.887 52.1,58.047 81.92,58.047 h 22.83 v 33.512 h -22.83 c -41.85,0 -82.17,-27.071 -110.62,-74.262 -22.24,-36.891 -52.1,-58.047 -81.92,-58.047 h -24.87 V 705.73 h 24.87 c 41.86,0 82.17,27.071 110.62,74.262"/>
        <path
                style="fill:#ffffff;fill-opacity:1;fill-rule:nonzero;stroke:none"
                d="m 10008.1,780 c 22.3,36.891 52.1,58.051 82,58.051 h 22.8 v 33.512 h -22.8 c -41.9,0 -82.2,-27.071 -110.66,-74.274 -22.24,-36.891 -52.1,-58.047 -81.92,-58.047 h -24.88 l 0.01,-33.512 h 24.87 c 41.85,0 82.17,27.071 110.58,74.27"/>
        <path
                style="fill:#ffffff;fill-opacity:1;fill-rule:nonzero;stroke:none"
                d="m 10357.5,780 c 22.3,36.902 52.1,58.051 81.9,58.051 h 22.9 v 33.512 h -22.9 c -41.8,0 -82.1,-27.071 -110.6,-74.262 -22.2,-36.891 -52.1,-58.051 -81.9,-58.051 h -24.9 v -33.508 h 24.9 c 41.8,0 82.2,27.071 110.6,74.258"/>
        <path
                style="fill:#ffffff;fill-opacity:1;fill-rule:nonzero;stroke:none"
                d="m 10706.9,780 c 22.2,36.902 52.1,58.063 81.9,58.063 h 22.9 v 33.507 h -22.9 c -41.8,0 -82.2,-27.07 -110.6,-74.257 -22.2,-36.903 -52.1,-58.063 -81.9,-58.063 h -24.9 v -33.508 h 24.9 c 41.8,0 82.1,27.071 110.6,74.258"/>
        <path
                style="fill:#ffffff;fill-opacity:1;fill-rule:nonzero;stroke:none"
                d="m 11056.3,780.012 c 22.2,36.89 52.1,58.051 81.9,58.051 h 22.8 v 33.507 h -22.8 c -41.8,0 -82.2,-27.07 -110.6,-74.257 -22.3,-36.891 -52.1,-58.051 -81.9,-58.051 h -24.9 V 705.75 h 24.9 c 41.8,0 82.1,27.07 110.6,74.262"/>
        <path
                style="fill:#ffffff;fill-opacity:1;fill-rule:nonzero;stroke:none"
                d="m 11405.7,780.02 c 22.2,36.89 52.1,58.05 81.9,58.05 h 22.8 v 33.512 h -22.8 c -41.9,0 -82.2,-27.07 -110.6,-74.262 -22.3,-36.898 -52.1,-58.058 -82,-58.058 h -24.8 V 705.75 h 24.8 c 41.9,0 82.2,27.07 110.7,74.27"/>
        <path
                style="fill:#ffffff;fill-opacity:1;fill-rule:nonzero;stroke:none"
                d="m 11755,780.02 c 5.7,9.312 11.8,17.601 18.2,24.82 v 44.859 c -17.5,-12.57 -33.5,-30.219 -46.9,-52.379 -22.2,-36.89 -52.1,-58.05 -81.9,-58.05 h -24.8 v -33.508 h 24.8 c 41.9,0 82.2,27.07 110.6,74.258"/>
        <path
                style="fill:#ffffff;fill-opacity:1;fill-rule:nonzero;stroke:none"
                d="m 11451.1,716.301 h -22.8 v -33.512 h 22.8 c 16.9,0 33.8,-7.008 49.4,-19.637 l 46.6,0.008 c -26.8,34.02 -60.8,53.141 -96,53.141"/>
        <path
                style="fill:#ffffff;fill-opacity:1;fill-rule:nonzero;stroke:none"
                d="m 11101.7,716.301 h -22.8 v -33.512 h 22.8 c 17,0 33.8,-7.019 49.4,-19.637 h 46.6 c -26.8,34.02 -60.8,53.149 -96,53.149"/>
        <path
                style="fill:#ffffff;fill-opacity:1;fill-rule:nonzero;stroke:none"
                d="m 10752.4,716.289 h -22.9 v -33.508 h 22.9 c 16.9,0 33.8,-7.011 49.3,-19.629 h 46.7 c -26.9,34.02 -60.9,53.137 -96,53.137"/>
        <path
                style="fill:#ffffff;fill-opacity:1;fill-rule:nonzero;stroke:none"
                d="m 10403,716.289 h -22.8 v -33.508 h 22.8 c 16.9,0 33.8,-7.019 49.3,-19.64 h 46.7 c -26.9,34.019 -60.9,53.148 -96,53.148"/>
        <path
                style="fill:#ffffff;fill-opacity:1;fill-rule:nonzero;stroke:none"
                d="m 10053.6,716.281 h -22.8 V 682.77 h 22.8 c 16.9,0 33.8,-7.008 49.3,-19.629 h 46.7 c -26.9,34.019 -60.9,53.14 -96,53.14"/>
        <path
                style="fill:#ffffff;fill-opacity:1;fill-rule:nonzero;stroke:none"
                d="m 9704.22,716.281 h -22.83 V 682.77 h 22.84 c 16.91,0 33.78,-7.02 49.32,-19.641 h 46.67 c -26.86,34.023 -60.87,53.152 -96,53.152"/>
        <path
                style="fill:#ffffff;fill-opacity:1;fill-rule:nonzero;stroke:none"
                d="m 9354.85,716.27 h -22.83 v -33.508 h 22.83 c 16.91,0 33.79,-7.012 49.33,-19.633 h 46.66 c -26.85,34.023 -60.87,53.141 -95.99,53.141"/>
    </g>
</svg>
