<?xml version="1.0" encoding="UTF-8" standalone="no"?>
<svg
        xmlns="http://www.w3.org/2000/svg"
        viewBox="514 57 150 402"
        height="500"
        width="300"
        version="1.1">
    <g
            transform="scale(0.084, 0.1)">
        <path
                style="fill:#d3d2d2;fill-opacity:1;fill-rule:nonzero;stroke:none"
                d="M 8298.97,568.152 H 5735.34 c -91.22,0 -165.17,73.95 -165.17,165.168 v 3694.09 c 0,91.22 73.95,165.17 165.17,165.17 h 2563.63 c 91.22,0 165.17,-73.95 165.17,-165.17 V 733.32 c 0,-91.218 -73.95,-165.168 -165.17,-165.168"/>
        <path
                style="fill:#de1d25;fill-opacity:1;fill-rule:nonzero;stroke:none"
                d="m 5735.34,663.141 c -38.7,0 -70.18,31.48 -70.18,70.179 v 3694.09 c 0,38.7 31.48,70.18 70.18,70.18 h 2563.64 c 38.69,0 70.17,-31.48 70.17,-70.18 V 733.32 c 0,-38.699 -31.48,-70.179 -70.17,-70.179 H 5735.34"/>
        <path
                style="fill:#ffffff;fill-opacity:1;fill-rule:nonzero;stroke:none"
                d="m 5861.55,4497.59 h -60.59 l 30.29,-56.7 z"/>
        <path
                style="fill:#ffffff;fill-opacity:1;fill-rule:nonzero;stroke:none"
                d="m 6125.08,4497.59 h -60.58 l 30.29,-56.69 z"/>
        <path
                style="fill:#ffffff;fill-opacity:1;fill-rule:nonzero;stroke:none"
                d="m 6388.61,4497.59 h -60.58 l 30.29,-56.69 z"/>
        <path
                style="fill:#ffffff;fill-opacity:1;fill-rule:nonzero;stroke:none"
                d="m 6652.15,4497.59 h -60.59 l 30.3,-56.69 z"/>
        <path
                style="fill:#ffffff;fill-opacity:1;fill-rule:nonzero;stroke:none"
                d="m 6915.68,4497.59 h -60.58 l 30.29,-56.69 z"/>
        <path
                style="fill:#ffffff;fill-opacity:1;fill-rule:nonzero;stroke:none"
                d="m 7179.22,4497.59 h -60.59 l 30.29,-56.7 z"/>
        <path
                style="fill:#ffffff;fill-opacity:1;fill-rule:nonzero;stroke:none"
                d="m 7442.75,4497.59 h -60.58 l 30.29,-56.69 z"/>
        <path
                style="fill:#ffffff;fill-opacity:1;fill-rule:nonzero;stroke:none"
                d="m 7706.28,4497.59 h -60.58 l 30.29,-56.69 z"/>
        <path
                style="fill:#ffffff;fill-opacity:1;fill-rule:nonzero;stroke:none"
                d="m 7969.82,4497.59 h -60.59 l 30.3,-56.69 z"/>
        <path
                style="fill:#ffffff;fill-opacity:1;fill-rule:nonzero;stroke:none"
                d="m 8233.35,4497.59 h -60.58 l 30.29,-56.69 z"/>
        <path
                style="fill:#ffffff;fill-opacity:1;fill-rule:nonzero;stroke:none"
                d="m 5891.23,4059.94 -59.98,112.22 -59.97,-112.22 59.97,-112.24 59.98,112.24"/>
        <path
                style="fill:#ffffff;fill-opacity:1;fill-rule:nonzero;stroke:none"
                d="m 6154.76,4059.94 -59.97,112.22 -59.97,-112.22 59.97,-112.23 59.97,112.23"/>
        <path
                style="fill:#ffffff;fill-opacity:1;fill-rule:nonzero;stroke:none"
                d="m 6418.29,4059.94 -59.97,112.22 -59.97,-112.22 59.97,-112.23 59.97,112.23"/>
        <path
                style="fill:#ffffff;fill-opacity:1;fill-rule:nonzero;stroke:none"
                d="m 6681.82,4059.94 -59.96,112.22 -59.98,-112.22 59.98,-112.23 59.96,112.23"/>
        <path
                style="fill:#ffffff;fill-opacity:1;fill-rule:nonzero;stroke:none"
                d="m 6945.36,4059.94 -59.97,112.22 -59.97,-112.22 59.97,-112.23 59.97,112.23"/>
        <path
                style="fill:#ffffff;fill-opacity:1;fill-rule:nonzero;stroke:none"
                d="m 7208.9,4059.94 -59.98,112.22 -59.97,-112.22 59.97,-112.24 59.98,112.24"/>
        <path
                style="fill:#ffffff;fill-opacity:1;fill-rule:nonzero;stroke:none"
                d="m 7472.43,4059.94 -59.97,112.22 -59.97,-112.22 59.97,-112.23 59.97,112.23"/>
        <path
                style="fill:#ffffff;fill-opacity:1;fill-rule:nonzero;stroke:none"
                d="m 7735.96,4059.94 -59.97,112.22 -59.97,-112.22 59.97,-112.23 59.97,112.23"/>
        <path
                style="fill:#ffffff;fill-opacity:1;fill-rule:nonzero;stroke:none"
                d="m 7999.49,4059.94 -59.96,112.22 -59.98,-112.22 59.98,-112.23 59.96,112.23"/>
        <path
                style="fill:#ffffff;fill-opacity:1;fill-rule:nonzero;stroke:none"
                d="m 8143.09,4059.94 59.97,-112.23 59.97,112.23 -59.97,112.22 -59.97,-112.22"/>
        <path
                style="fill:#ffffff;fill-opacity:1;fill-rule:nonzero;stroke:none"
                d="m 8203.06,3837.04 -119.11,222.9 119.11,222.89 119.1,-222.89 z m 119.1,-270.29 -119.1,-222.9 -119.11,222.9 119.11,222.89 z m 0,-493.19 -119.1,-222.9 -119.11,222.9 119.11,222.88 z m 0,-493.2 -119.1,-222.89 -119.11,222.89 119.11,222.89 z m 0,-493.19 -119.1,-222.89 -119.11,222.89 119.11,222.89 z m 0,-493.19 -119.1,-222.89 -119.11,222.89 119.11,222.89 z m 0,-493.19 -119.1,-222.892 -119.11,222.892 119.11,222.9 z m -382.63,-222.892 -119.11,222.892 119.11,222.9 119.1,-222.9 z m -263.54,0 -119.1,222.892 119.1,222.9 119.1,-222.9 z m -263.53,0 -119.1,222.892 119.1,222.9 119.1,-222.9 z m -263.54,0 v 0 0 l -119.1,222.892 119.1,222.9 119.11,-222.9 z m -263.53,0 -119.1,222.892 119.1,222.9 119.1,-222.9 z m -263.53,0 -119.11,222.892 119.11,222.9 119.1,-222.9 z m -263.54,0 -119.1,222.892 119.1,222.9 119.1,-222.9 z m -263.53,0 -119.1,222.892 119.1,222.9 119.1,-222.9 z m -263.53,0 h -0.01 v 0 l -119.1,222.892 119.1,222.9 119.11,-222.9 z m -119.11,716.082 119.1,222.89 119.11,-222.89 -119.11,-222.89 z m 119.1,716.09 v -0.01 l 0.01,0.01 119.1,-222.9 -119.11,-222.89 -119.1,222.89 z m 0,493.18 119.11,-222.89 -119.11,-222.89 -119.1,222.89 z m 0,493.2 v -0.01 l 0.01,0.01 119.1,-222.89 -119.11,-222.9 -119.1,222.9 z m 0,493.19 119.11,-222.89 -119.11,-222.9 -119.1,222.9 z m 0,493.19 v 0 h 0.01 l 119.1,-222.89 -119.11,-222.9 -119.1,222.9 z m 263.54,0 119.1,-222.89 -119.1,-222.9 -119.1,222.9 z m 263.53,0 119.1,-222.89 -119.1,-222.9 -119.1,222.9 z m 263.54,0 119.1,-222.89 -119.1,-222.9 -119.11,222.9 z m 263.53,0 119.1,-222.89 -119.1,-222.9 -119.1,222.9 z m 263.53,0 v 0 0 l 119.11,-222.89 -119.11,-222.9 -119.1,222.9 z m 263.54,0 119.1,-222.89 -119.1,-222.9 -119.1,222.9 z m 263.53,0 119.1,-222.89 -119.1,-222.9 -119.1,222.9 z m 276.2,-469.49 119.1,222.9 119.1,-222.9 -119.1,-222.89 z m -12.66,-469.49 -119.11,222.9 119.11,222.89 119.1,-222.89 z m 12.66,-23.7 119.1,222.89 119.1,-222.89 -119.1,-222.89 z m -12.66,-469.49 -119.11,222.9 119.11,222.88 119.1,-222.88 z m 12.66,-23.7 119.1,222.89 119.1,-222.89 -119.1,-222.9 z m -12.66,-469.49 -119.11,222.89 119.11,222.89 119.1,-222.89 z m 12.66,-23.7 119.1,222.89 119.1,-222.89 -119.1,-222.9 z m -12.66,-469.49 -119.11,222.89 119.11,222.89 119.1,-222.89 z m 12.66,-23.7 119.1,222.89 119.1,-222.89 -119.1,-222.9 z m -144.43,-270.3 119.1,-222.89 -119.1,-222.9 -119.11,222.9 z m -250.87,23.7 119.1,222.89 119.1,-222.89 -119.1,-222.89 z m -12.67,-23.7 119.1,-222.89 -119.1,-222.9 -119.1,222.9 z m -250.86,23.7 119.1,222.89 119.1,-222.89 -119.1,-222.89 z m -12.67,-23.7 119.1,-222.89 -119.1,-222.9 -119.1,222.9 z m -263.54,0 119.11,-222.89 -119.11,-222.9 -119.1,222.9 z m -250.86,23.7 119.1,222.89 119.1,-222.89 -119.1,-222.89 z m -12.67,-23.7 119.1,-222.89 -119.1,-222.9 -119.1,222.9 z m -250.87,23.7 119.11,222.89 119.1,-222.89 -119.1,-222.89 z m -12.66,-23.7 119.1,-222.89 -119.1,-222.9 -119.11,222.9 z m -250.87,23.7 119.1,222.89 119.1,-222.89 -119.1,-222.89 z m -12.66,-23.7 119.09,-222.89 -119.09,-222.9 -119.11,222.9 z m -144.44,270.3 -119.1,-222.9 -119.1,222.89 119.1,222.9 z m 12.67,469.48 119.1,-222.89 -119.1,-222.89 -119.1,222.89 z m -12.67,23.71 -119.1,-222.9 -119.1,222.89 119.1,222.9 z m 12.67,469.48 119.1,-222.89 -119.1,-222.89 -119.1,222.89 z m -12.67,23.71 -119.1,-222.9 -119.1,222.89 119.1,222.9 z m 12.67,469.48 119.1,-222.88 -119.1,-222.9 -119.1,222.9 z m -12.67,23.71 -119.1,-222.89 -119.1,222.89 119.1,222.89 z m 144.44,270.3 -119.11,222.89 119.11,222.9 119.09,-222.9 z m 250.86,-23.7 -119.1,-222.9 -119.1,222.9 119.1,222.89 z m 12.67,23.7 -119.11,222.89 119.11,222.9 119.1,-222.9 z m 250.87,-23.7 -119.1,-222.9 -119.11,222.9 119.11,222.89 z m 12.66,23.7 -119.1,222.89 119.1,222.9 119.1,-222.9 z m 250.87,-23.7 -119.1,-222.9 -119.1,222.9 119.1,222.89 z m 12.66,23.7 -119.1,222.89 119.1,222.9 119.11,-222.9 z m 263.54,0 -119.1,222.89 119.1,222.9 119.1,-222.9 z m 250.87,-23.7 -119.1,-222.9 -119.1,222.9 119.1,222.89 z m 12.66,23.7 -119.1,222.89 119.1,222.9 119.1,-222.9 z m 144.43,-270.3 119.11,222.9 119.1,-222.9 -119.1,-222.89 z m -12.66,-469.49 -119.1,222.9 119.1,222.88 119.1,-222.88 z m 12.66,-23.7 119.11,222.9 119.1,-222.9 -119.1,-222.9 z m -12.66,-469.49 -119.1,222.89 119.1,222.89 119.1,-222.89 z m 12.66,-23.7 119.11,222.89 119.1,-222.89 -119.1,-222.9 z m -144.43,-270.3 119.1,-222.89 -119.1,-222.9 -119.1,222.9 z m -250.86,23.7 119.1,222.89 119.1,-222.89 -119.1,-222.89 z m -131.77,-246.6 119.1,222.9 119.1,-222.89 -119.1,-222.9 z m -12.67,-23.7 119.11,-222.89 -119.11,-222.89 -119.1,222.89 z m -131.77,246.6 119.11,-222.9 -119.11,-222.89 -119.1,222.9 z m -250.86,23.7 119.1,222.89 119.1,-222.89 -119.1,-222.89 z m -12.67,-23.7 119.1,-222.89 -119.1,-222.9 -119.1,222.9 z m -250.87,23.7 119.11,222.89 119.1,-222.89 -119.1,-222.89 z m -12.66,-23.7 119.1,-222.89 -119.1,-222.9 -119.11,222.9 z m -144.44,270.3 -119.09,-222.9 -119.11,222.9 119.11,222.89 z m 12.67,469.48 119.1,-222.89 -119.1,-222.89 -119.1,222.89 z m -12.67,23.71 -119.09,-222.9 -119.11,222.9 119.11,222.89 z m 144.44,270.3 -119.11,222.89 119.11,222.9 119.1,-222.9 z m 250.87,-23.7 -119.1,-222.9 -119.11,222.9 119.11,222.88 z m 12.66,23.7 -119.1,222.89 119.1,222.89 119.1,-222.89 z m 250.87,-23.7 -119.1,-222.9 -119.1,222.9 119.1,222.88 z m 131.77,246.59 -119.11,-222.89 -119.1,222.89 119.1,222.89 z m 12.66,23.7 -119.1,222.9 119.1,222.89 119.11,-222.89 z m 131.77,-246.59 -119.1,222.89 119.1,222.89 119.1,-222.89 z m 144.43,-270.3 119.1,222.89 119.1,-222.89 -119.1,-222.9 z m -263.53,-493.2 119.1,222.9 119.1,-222.89 -119.1,-222.9 z m -144.44,222.9 119.11,-222.9 -119.11,-222.89 -119.1,222.9 z m 119.11,270.29 -119.11,-222.89 -119.1,222.9 119.1,222.89 z m 25.33,0 119.1,222.9 119.1,-222.89 -119.1,-222.9 z m -131.77,-246.59 119.1,222.89 119.11,-222.89 -119.11,-222.89 z m 119.1,716.08 v 0.01 l 119.11,-222.89 -119.11,-222.9 -119.1,222.9 119.1,222.89 z m -382.63,-716.08 119.1,222.89 119.1,-222.89 -119.1,-222.89 z m -12.67,-23.7 119.1,-222.89 -119.1,-222.9 -119.1,222.9 z m -119.1,270.3 119.1,222.89 119.1,-222.89 -119.1,-222.9 z m -144.43,-222.9 -119.11,222.9 119.11,222.9 119.1,-222.9 z m 119.1,-270.29 -119.1,-222.9 -119.11,222.9 119.11,222.89 z m -106.44,246.59 119.11,222.89 119.1,-222.89 -119.1,-222.89 z m 527.07,-493.19 119.1,222.9 v -0.01 0.01 l 119.11,-222.9 -119.11,-222.89 z m 382.64,270.3 -119.1,222.89 119.1,222.89 119.1,-222.89 z m 131.76,199.19 119.1,-222.89 -119.1,-222.9 -119.1,222.9 z m -119.1,763.49 119.1,222.89 119.1,-222.89 -119.1,-222.89 z m 106.44,-246.59 -119.1,-222.9 -119.1,222.9 119.1,222.88 z m -1173.24,222.88 119.1,-222.88 -119.1,-222.9 -119.1,222.9 z m -131.76,-199.18 -119.11,222.89 119.11,222.89 119.09,-222.89 z m 119.09,-1256.68 -119.09,-222.9 -119.11,222.9 119.11,222.89 z m -106.43,246.59 119.1,222.89 119.1,-222.89 -119.1,-222.89 z m 1436.77,-222.89 -119.1,222.89 119.1,222.89 119.1,-222.89 z m 131.77,199.19 119.1,-222.89 -119.1,-222.9 -119.11,222.9 z m -119.11,1749.87 119.11,222.9 119.1,-222.9 -119.1,-222.89 z m 106.44,-246.59 -119.1,-222.9 -119.1,222.9 119.1,222.89 z m -1700.3,222.89 119.1,-222.89 -119.1,-222.9 -119.1,222.9 z m -131.77,-199.19 -119.1,222.89 119.1,222.9 119.1,-222.9 z m 119.1,-2243.06 -119.1,-222.9 -119.1,222.9 119.1,222.89 z m -106.43,246.59 119.1,222.89 119.1,-222.89 -119.1,-222.89 z m 1963.84,-222.89 -119.11,222.89 119.11,222.89 119.1,-222.89 z m 131.76,199.19 119.1,-222.89 -119.1,-222.9 -119.1,222.9 z m -131.76,2712.55 119.1,-222.89 -119.1,-222.9 -119.11,222.9 z m 407.96,-222.89 21.66,40.54 v 47.4 l -34.33,-64.24 -119.1,222.89 100.85,188.74 c -5.63,1.46 -11.51,2.32 -17.59,2.32 h -6.5 l -89.42,-167.36 -89.43,167.36 h -25.33 l 102.09,-191.06 -119.1,-222.89 -119.1,222.89 102.09,191.06 h -25.33 l -89.42,-167.36 -89.43,167.36 h -25.33 l 102.09,-191.06 -119.1,-222.89 -119.11,222.89 102.09,191.06 h -25.32 l -89.43,-167.36 -89.43,167.36 h -25.32 l 102.08,-191.06 -119.1,-222.89 -119.1,222.89 102.09,191.06 h -25.33 l -89.42,-167.36 -89.43,167.36 h -25.33 l 102.09,-191.06 -119.1,-222.89 -119.1,222.89 102.09,191.06 h -25.33 l -89.43,-167.36 -89.42,167.36 h -25.33 l 102.09,-191.06 -119.11,-222.89 -119.1,222.89 102.09,191.06 h -25.33 l -89.42,-167.36 -89.43,167.36 h -25.33 l 102.09,-191.06 -119.1,-222.89 -119.1,222.89 102.09,191.06 h -25.33 l -89.42,-167.36 -89.43,167.36 h -25.33 l 102.09,-191.06 -119.1,-222.89 -119.11,222.89 102.1,191.06 h -25.33 l -89.43,-167.36 -89.42,167.36 h -25.33 l 102.08,-191.06 -119.09,-222.89 -119.11,222.89 102.09,191.06 h -25.33 l -89.42,-167.36 -89.43,167.36 h -25.33 l 102.09,-191.06 -119.1,-222.89 -119.1,222.89 102.09,191.06 h -25.33 l -89.43,-167.36 -89.42,167.36 h -6.49 c -6.09,0 -11.97,-0.86 -17.6,-2.33 l 100.85,-188.73 -119.1,-222.89 -34.33,64.24 v -47.41 l 21.66,-40.53 -21.66,-40.54 V 3972 l 34.32,64.24 119.11,-222.9 -119.1,-222.89 -34.33,64.24 v -47.41 l 21.66,-40.53 -21.66,-40.54 v -47.41 l 34.32,64.24 119.11,-222.89 -119.1,-222.89 -34.33,64.24 v -47.41 l 21.66,-40.53 -21.66,-40.54 v -47.41 l 34.32,64.24 119.11,-222.9 -119.1,-222.89 -34.33,64.24 v -47.4 l 21.66,-40.54 -21.66,-40.53 v -47.41 l 34.32,64.24 119.11,-222.9 -119.1,-222.89 -34.33,64.24 v -47.4 l 21.66,-40.54 -21.66,-40.53 v -47.41 l 34.32,64.24 119.11,-222.9 -119.1,-222.89 -34.33,64.24 v -47.4 l 21.66,-40.54 -21.66,-40.53 v -47.41 l 34.33,64.24 119.1,-222.89 -119.11,-222.9 -34.32,64.24 v -47.4 l 21.66,-40.54 -21.66,-40.53 v -47.41 l 34.33,64.24 119.1,-222.891 -100.85,-188.738 c 5.63,-1.461 11.51,-2.32 17.6,-2.32 h 6.49 l 89.42,167.359 89.43,-167.359 h 25.33 l -102.09,191.058 119.1,222.891 119.1,-222.891 -102.09,-191.058 h 25.33 l 89.43,167.359 89.42,-167.359 h 25.33 l -102.09,191.058 119.11,222.891 119.09,-222.891 -102.08,-191.058 h 25.33 l 89.42,167.359 89.43,-167.359 h 25.33 l -102.1,191.058 119.11,222.891 119.1,-222.891 -102.09,-191.058 h 25.33 l 89.43,167.359 89.42,-167.359 h 25.33 l -102.09,191.058 119.1,222.891 119.1,-222.891 -102.09,-191.058 h 25.33 l 89.43,167.359 89.42,-167.359 h 25.33 l -102.09,191.058 119.1,222.891 119.11,-222.891 -102.09,-191.058 h 25.32 l 89.43,167.359 89.43,-167.359 h 25.33 l -102.09,191.058 119.1,222.891 119.1,-222.891 -102.09,-191.058 h 25.33 l 89.43,167.359 89.42,-167.359 h 25.33 l -102.09,191.058 119.1,222.891 119.1,-222.891 -102.09,-191.058 h 25.33 l 89.43,167.359 89.43,-167.359 h 25.33 l -102.1,191.058 119.11,222.891 119.1,-222.891 -102.09,-191.058 h 25.33 l 89.43,167.359 89.42,-167.359 h 25.33 l -102.09,191.058 119.1,222.891 119.1,-222.891 -102.09,-191.058 h 25.33 l 89.43,167.359 89.42,-167.359 h 6.5 c 6.08,0 11.96,0.859 17.59,2.32 l -100.85,188.738 119.1,222.891 34.33,-64.24 v 47.4 l -21.66,40.54 21.66,40.55 v 47.4 l -34.33,-64.25 -119.1,222.9 119.1,222.89 34.33,-64.24 v 47.4 l -21.66,40.54 21.66,40.55 v 47.4 l -34.33,-64.25 -119.1,222.9 119.1,222.89 34.33,-64.24 v 47.4 l -21.66,40.54 21.66,40.55 v 47.4 l -34.33,-64.25 -119.1,222.9 119.1,222.89 34.33,-64.24 v 47.4 l -21.66,40.54 21.66,40.55 v 47.4 l -34.33,-64.25 -119.1,222.9 119.1,222.89 34.33,-64.24 v 47.4 l -21.66,40.55 21.66,40.54 v 47.4 l -34.33,-64.24 -119.1,222.89 119.1,222.89 34.33,-64.24 v 47.4 l -21.66,40.55 21.66,40.54 v 47.4 l -34.33,-64.24 -119.1,222.89 119.1,222.9 34.33,-64.25 v 47.4 l -21.66,40.55"/>
        <path
                style="fill:#ffffff;fill-opacity:1;fill-rule:nonzero;stroke:none"
                d="m 5891.23,3566.75 -59.98,112.22 -59.97,-112.22 59.97,-112.24 59.98,112.24"/>
        <path
                style="fill:#ffffff;fill-opacity:1;fill-rule:nonzero;stroke:none"
                d="m 6154.76,3566.75 -59.97,112.22 -59.97,-112.22 59.97,-112.23 59.97,112.23"/>
        <path
                style="fill:#ffffff;fill-opacity:1;fill-rule:nonzero;stroke:none"
                d="m 6358.32,3454.52 59.97,112.23 -59.97,112.22 -59.97,-112.22 59.97,-112.23"/>
        <path
                style="fill:#ffffff;fill-opacity:1;fill-rule:nonzero;stroke:none"
                d="m 6621.86,3454.52 59.96,112.23 -59.96,112.22 -59.98,-112.22 59.98,-112.23"/>
        <path
                style="fill:#ffffff;fill-opacity:1;fill-rule:nonzero;stroke:none"
                d="m 6885.39,3454.52 59.97,112.23 -59.97,112.22 -59.97,-112.22 59.97,-112.23"/>
        <path
                style="fill:#ffffff;fill-opacity:1;fill-rule:nonzero;stroke:none"
                d="m 7088.95,3566.75 59.97,-112.24 59.98,112.24 -59.98,112.22 -59.97,-112.22"/>
        <path
                style="fill:#ffffff;fill-opacity:1;fill-rule:nonzero;stroke:none"
                d="m 7412.46,3454.52 59.97,112.23 -59.97,112.22 -59.97,-112.22 59.97,-112.23"/>
        <path
                style="fill:#ffffff;fill-opacity:1;fill-rule:nonzero;stroke:none"
                d="m 7675.99,3454.52 59.97,112.23 -59.97,112.22 -59.97,-112.22 59.97,-112.23"/>
        <path
                style="fill:#ffffff;fill-opacity:1;fill-rule:nonzero;stroke:none"
                d="m 7879.55,3566.75 59.98,-112.23 59.96,112.23 -59.96,112.22 -59.98,-112.22"/>
        <path
                style="fill:#ffffff;fill-opacity:1;fill-rule:nonzero;stroke:none"
                d="m 8203.06,3454.52 59.97,112.23 -59.97,112.22 -59.97,-112.22 59.97,-112.23"/>
        <path
                style="fill:#ffffff;fill-opacity:1;fill-rule:nonzero;stroke:none"
                d="m 5891.23,3073.56 -59.98,112.22 -59.97,-112.22 59.97,-112.24 59.98,112.24"/>
        <path
                style="fill:#ffffff;fill-opacity:1;fill-rule:nonzero;stroke:none"
                d="m 6154.76,3073.56 -59.97,112.22 -59.97,-112.22 59.97,-112.23 59.97,112.23"/>
        <path
                style="fill:#ffffff;fill-opacity:1;fill-rule:nonzero;stroke:none"
                d="m 6418.29,3073.56 -59.97,112.22 -59.97,-112.22 59.97,-112.23 59.97,112.23"/>
        <path
                style="fill:#ffffff;fill-opacity:1;fill-rule:nonzero;stroke:none"
                d="m 6621.86,2961.33 59.96,112.23 -59.96,112.22 -59.98,-112.22 59.98,-112.23"/>
        <path
                style="fill:#ffffff;fill-opacity:1;fill-rule:nonzero;stroke:none"
                d="m 6885.39,2961.33 59.97,112.23 -59.97,112.22 -59.97,-112.22 59.97,-112.23"/>
        <path
                style="fill:#ffffff;fill-opacity:1;fill-rule:nonzero;stroke:none"
                d="m 7148.92,2961.32 59.98,112.24 -59.98,112.22 -59.97,-112.22 59.97,-112.24"/>
        <path
                style="fill:#ffffff;fill-opacity:1;fill-rule:nonzero;stroke:none"
                d="m 7412.46,2961.33 59.97,112.23 -59.97,112.22 -59.97,-112.22 59.97,-112.23"/>
        <path
                style="fill:#ffffff;fill-opacity:1;fill-rule:nonzero;stroke:none"
                d="m 7616.02,3073.56 59.97,-112.23 59.97,112.23 -59.97,112.22 -59.97,-112.22"/>
        <path
                style="fill:#ffffff;fill-opacity:1;fill-rule:nonzero;stroke:none"
                d="m 7879.55,3073.56 59.98,-112.23 59.96,112.23 -59.96,112.22 -59.98,-112.22"/>
        <path
                style="fill:#ffffff;fill-opacity:1;fill-rule:nonzero;stroke:none"
                d="m 8203.06,2961.33 59.97,112.23 -59.97,112.22 -59.97,-112.22 59.97,-112.23"/>
        <path
                style="fill:#ffffff;fill-opacity:1;fill-rule:nonzero;stroke:none"
                d="m 5891.23,2580.36 -59.98,112.23 -59.97,-112.23 59.97,-112.23 59.98,112.23"/>
        <path
                style="fill:#ffffff;fill-opacity:1;fill-rule:nonzero;stroke:none"
                d="m 6154.76,2580.36 -59.97,112.23 -59.97,-112.23 59.97,-112.22 59.97,112.22"/>
        <path
                style="fill:#ffffff;fill-opacity:1;fill-rule:nonzero;stroke:none"
                d="m 6418.29,2580.36 -59.97,112.23 -59.97,-112.23 59.97,-112.22 59.97,112.22"/>
        <path
                style="fill:#ffffff;fill-opacity:1;fill-rule:nonzero;stroke:none"
                d="m 6621.86,2692.59 -59.98,-112.23 59.98,-112.22 59.96,112.22 -59.96,112.23"/>
        <path
                style="fill:#ffffff;fill-opacity:1;fill-rule:nonzero;stroke:none"
                d="m 6885.39,2692.59 -59.97,-112.23 59.97,-112.22 59.97,112.22 -59.97,112.23"/>
        <path
                style="fill:#ffffff;fill-opacity:1;fill-rule:nonzero;stroke:none"
                d="m 7148.92,2692.59 -59.97,-112.23 59.97,-112.23 59.98,112.23 -59.98,112.23"/>
        <path
                style="fill:#ffffff;fill-opacity:1;fill-rule:nonzero;stroke:none"
                d="m 7352.49,2580.36 59.97,-112.22 59.97,112.22 -59.97,112.23 -59.97,-112.23"/>
        <path
                style="fill:#ffffff;fill-opacity:1;fill-rule:nonzero;stroke:none"
                d="m 7616.02,2580.36 59.97,-112.22 59.97,112.22 -59.97,112.23 -59.97,-112.23"/>
        <path
                style="fill:#ffffff;fill-opacity:1;fill-rule:nonzero;stroke:none"
                d="m 7879.55,2580.36 59.98,-112.22 59.96,112.22 -59.96,112.23 -59.98,-112.23"/>
        <path
                style="fill:#ffffff;fill-opacity:1;fill-rule:nonzero;stroke:none"
                d="m 8203.06,2468.14 59.97,112.22 -59.97,112.23 -59.97,-112.23 59.97,-112.22"/>
        <path
                style="fill:#ffffff;fill-opacity:1;fill-rule:nonzero;stroke:none"
                d="m 5891.23,2087.17 -59.98,112.23 -59.97,-112.23 59.97,-112.23 59.98,112.23"/>
        <path
                style="fill:#ffffff;fill-opacity:1;fill-rule:nonzero;stroke:none"
                d="m 6154.76,2087.17 -59.97,112.23 -59.97,-112.23 59.97,-112.22 59.97,112.22"/>
        <path
                style="fill:#ffffff;fill-opacity:1;fill-rule:nonzero;stroke:none"
                d="m 6358.32,2199.4 -59.97,-112.23 59.97,-112.22 59.97,112.22 -59.97,112.23"/>
        <path
                style="fill:#ffffff;fill-opacity:1;fill-rule:nonzero;stroke:none"
                d="m 6621.86,2199.4 -59.98,-112.23 59.98,-112.22 59.96,112.22 -59.96,112.23"/>
        <path
                style="fill:#ffffff;fill-opacity:1;fill-rule:nonzero;stroke:none"
                d="m 6885.39,2199.4 -59.97,-112.23 59.97,-112.22 59.97,112.22 -59.97,112.23"/>
        <path
                style="fill:#ffffff;fill-opacity:1;fill-rule:nonzero;stroke:none"
                d="m 7148.92,2199.4 -59.97,-112.23 59.97,-112.23 59.98,112.23 -59.98,112.23"/>
        <path
                style="fill:#ffffff;fill-opacity:1;fill-rule:nonzero;stroke:none"
                d="m 7412.46,2199.4 -59.97,-112.23 59.97,-112.22 59.97,112.22 -59.97,112.23"/>
        <path
                style="fill:#ffffff;fill-opacity:1;fill-rule:nonzero;stroke:none"
                d="m 7616.02,2087.17 59.97,-112.22 59.97,112.22 -59.97,112.23 -59.97,-112.23"/>
        <path
                style="fill:#ffffff;fill-opacity:1;fill-rule:nonzero;stroke:none"
                d="m 7879.55,2087.17 59.98,-112.22 59.96,112.22 -59.96,112.23 -59.98,-112.23"/>
        <path
                style="fill:#ffffff;fill-opacity:1;fill-rule:nonzero;stroke:none"
                d="m 8203.06,1974.95 59.97,112.22 -59.97,112.23 -59.97,-112.23 59.97,-112.22"/>
        <path
                style="fill:#ffffff;fill-opacity:1;fill-rule:nonzero;stroke:none"
                d="m 5831.25,1706.21 -59.97,-112.23 59.97,-112.22 59.98,112.22 -59.98,112.23"/>
        <path
                style="fill:#ffffff;fill-opacity:1;fill-rule:nonzero;stroke:none"
                d="m 6094.79,1706.21 -59.97,-112.23 59.97,-112.22 59.97,112.22 -59.97,112.23"/>
        <path
                style="fill:#ffffff;fill-opacity:1;fill-rule:nonzero;stroke:none"
                d="m 6358.32,1706.21 -59.97,-112.23 59.97,-112.22 59.97,112.22 -59.97,112.23"/>
        <path
                style="fill:#ffffff;fill-opacity:1;fill-rule:nonzero;stroke:none"
                d="m 6621.86,1706.21 -59.98,-112.23 59.98,-112.22 59.96,112.22 -59.96,112.23"/>
        <path
                style="fill:#ffffff;fill-opacity:1;fill-rule:nonzero;stroke:none"
                d="m 6885.39,1706.21 -59.97,-112.23 59.97,-112.22 59.97,112.22 -59.97,112.23"/>
        <path
                style="fill:#ffffff;fill-opacity:1;fill-rule:nonzero;stroke:none"
                d="m 7208.9,1593.98 -59.98,112.23 -59.97,-112.23 59.97,-112.22 59.98,112.22"/>
        <path
                style="fill:#ffffff;fill-opacity:1;fill-rule:nonzero;stroke:none"
                d="m 7412.46,1706.21 -59.97,-112.23 59.97,-112.22 59.97,112.22 -59.97,112.23"/>
        <path
                style="fill:#ffffff;fill-opacity:1;fill-rule:nonzero;stroke:none"
                d="m 7675.99,1706.21 -59.97,-112.23 59.97,-112.22 59.97,112.22 -59.97,112.23"/>
        <path
                style="fill:#ffffff;fill-opacity:1;fill-rule:nonzero;stroke:none"
                d="m 7879.55,1593.98 59.98,-112.22 59.96,112.22 -59.96,112.23 -59.98,-112.23"/>
        <path
                style="fill:#ffffff;fill-opacity:1;fill-rule:nonzero;stroke:none"
                d="m 8203.06,1481.76 59.97,112.22 -59.97,112.23 -59.97,-112.23 59.97,-112.22"/>
        <path
                style="fill:#ffffff;fill-opacity:1;fill-rule:nonzero;stroke:none"
                d="m 5771.28,1100.79 59.97,-112.22 59.98,112.22 -59.98,112.24 -59.97,-112.24"/>
        <path
                style="fill:#ffffff;fill-opacity:1;fill-rule:nonzero;stroke:none"
                d="m 6034.82,1100.79 59.97,-112.22 59.97,112.22 -59.97,112.23 -59.97,-112.23"/>
        <path
                style="fill:#ffffff;fill-opacity:1;fill-rule:nonzero;stroke:none"
                d="m 6298.35,1100.79 59.97,-112.22 59.97,112.22 -59.97,112.23 -59.97,-112.23"/>
        <path
                style="fill:#ffffff;fill-opacity:1;fill-rule:nonzero;stroke:none"
                d="m 6561.88,1100.79 59.98,-112.22 59.96,112.22 -59.96,112.23 -59.98,-112.23"/>
        <path
                style="fill:#ffffff;fill-opacity:1;fill-rule:nonzero;stroke:none"
                d="m 6825.42,1100.79 59.97,-112.22 59.97,112.22 -59.97,112.23 -59.97,-112.23"/>
        <path
                style="fill:#ffffff;fill-opacity:1;fill-rule:nonzero;stroke:none"
                d="m 7088.95,1100.79 59.97,-112.22 59.98,112.22 -59.98,112.24 -59.97,-112.24"/>
        <path
                style="fill:#ffffff;fill-opacity:1;fill-rule:nonzero;stroke:none"
                d="m 7352.49,1100.79 59.97,-112.22 59.97,112.22 -59.97,112.23 -59.97,-112.23"/>
        <path
                style="fill:#ffffff;fill-opacity:1;fill-rule:nonzero;stroke:none"
                d="m 7616.02,1100.79 59.97,-112.22 59.97,112.22 -59.97,112.23 -59.97,-112.23"/>
        <path
                style="fill:#ffffff;fill-opacity:1;fill-rule:nonzero;stroke:none"
                d="m 7879.55,1100.79 59.98,-112.22 59.96,112.22 -59.96,112.23 -59.98,-112.23"/>
        <path
                style="fill:#ffffff;fill-opacity:1;fill-rule:nonzero;stroke:none"
                d="m 8203.06,988.57 59.97,112.22 -59.97,112.23 -59.97,-112.23 59.97,-112.22"/>
        <path
                style="fill:#ffffff;fill-opacity:1;fill-rule:nonzero;stroke:none"
                d="m 5800.96,663.141 h 60.59 l -30.3,56.699 z"/>
        <path
                style="fill:#ffffff;fill-opacity:1;fill-rule:nonzero;stroke:none"
                d="m 6064.49,663.141 h 60.59 l -30.29,56.691 z"/>
        <path
                style="fill:#ffffff;fill-opacity:1;fill-rule:nonzero;stroke:none"
                d="m 6328.03,663.141 h 60.58 l -30.29,56.691 z"/>
        <path
                style="fill:#ffffff;fill-opacity:1;fill-rule:nonzero;stroke:none"
                d="m 6591.56,663.141 h 60.59 l -30.29,56.691 z"/>
        <path
                style="fill:#ffffff;fill-opacity:1;fill-rule:nonzero;stroke:none"
                d="m 6855.1,663.141 h 60.58 l -30.29,56.691 z"/>
        <path
                style="fill:#ffffff;fill-opacity:1;fill-rule:nonzero;stroke:none"
                d="m 7118.63,663.141 h 60.59 l -30.3,56.699 z"/>
        <path
                style="fill:#ffffff;fill-opacity:1;fill-rule:nonzero;stroke:none"
                d="m 7382.16,663.141 h 60.59 l -30.29,56.691 z"/>
        <path
                style="fill:#ffffff;fill-opacity:1;fill-rule:nonzero;stroke:none"
                d="m 7645.7,663.141 h 60.58 l -30.29,56.691 z"/>
        <path
                style="fill:#ffffff;fill-opacity:1;fill-rule:nonzero;stroke:none"
                d="m 7909.23,663.141 h 60.59 l -30.29,56.691 z"/>
        <path
                style="fill:#ffffff;fill-opacity:1;fill-rule:nonzero;stroke:none"
                d="m 8172.76,663.141 h 60.59 l -30.29,56.691 z"/>
        <path
                style="fill:#ffffff;fill-opacity:1;fill-rule:nonzero;stroke:none"
                d="m 5759.46,4312.98 -59.97,112.22 -34.33,-64.23 v -95.99 l 34.33,-64.24 59.97,112.24"/>
        <path
                style="fill:#ffffff;fill-opacity:1;fill-rule:nonzero;stroke:none"
                d="m 6022.99,4312.98 -59.97,112.22 -59.97,-112.22 59.97,-112.23 59.97,112.23"/>
        <path
                style="fill:#ffffff;fill-opacity:1;fill-rule:nonzero;stroke:none"
                d="m 6286.52,4312.98 -59.97,112.22 -59.96,-112.22 59.96,-112.23 59.97,112.23"/>
        <path
                style="fill:#ffffff;fill-opacity:1;fill-rule:nonzero;stroke:none"
                d="m 6550.06,4312.98 -59.97,112.22 -59.97,-112.22 59.97,-112.23 59.97,112.23"/>
        <path
                style="fill:#ffffff;fill-opacity:1;fill-rule:nonzero;stroke:none"
                d="m 6813.59,4312.98 -59.97,112.22 -59.97,-112.22 59.97,-112.23 59.97,112.23"/>
        <path
                style="fill:#ffffff;fill-opacity:1;fill-rule:nonzero;stroke:none"
                d="m 7077.13,4312.98 -59.97,112.22 -59.98,-112.22 59.98,-112.24 59.97,112.24"/>
        <path
                style="fill:#ffffff;fill-opacity:1;fill-rule:nonzero;stroke:none"
                d="m 7340.66,4312.98 -59.97,112.22 -59.97,-112.22 59.97,-112.23 59.97,112.23"/>
        <path
                style="fill:#ffffff;fill-opacity:1;fill-rule:nonzero;stroke:none"
                d="m 7604.19,4312.98 -59.97,112.22 -59.97,-112.22 59.97,-112.23 59.97,112.23"/>
        <path
                style="fill:#ffffff;fill-opacity:1;fill-rule:nonzero;stroke:none"
                d="m 7867.73,4312.98 -59.97,112.22 -59.97,-112.22 59.97,-112.23 59.97,112.23"/>
        <path
                style="fill:#ffffff;fill-opacity:1;fill-rule:nonzero;stroke:none"
                d="m 8131.26,4312.98 -59.97,112.22 -59.97,-112.22 59.97,-112.23 59.97,112.23"/>
        <path
                style="fill:#ffffff;fill-opacity:1;fill-rule:nonzero;stroke:none"
                d="m 8274.85,4312.98 59.97,-112.24 34.33,64.25 v 95.97 l -34.33,64.24 -59.97,-112.22"/>
        <path
                style="fill:#ffffff;fill-opacity:1;fill-rule:nonzero;stroke:none"
                d="m 5759.46,3819.79 -59.97,112.22 -34.33,-64.23 v -95.99 l 34.33,-64.24 59.97,112.24"/>
        <path
                style="fill:#ffffff;fill-opacity:1;fill-rule:nonzero;stroke:none"
                d="m 5963.02,3932.01 -59.97,-112.22 59.97,-112.23 59.97,112.23 -59.97,112.22"/>
        <path
                style="fill:#ffffff;fill-opacity:1;fill-rule:nonzero;stroke:none"
                d="m 6166.59,3819.79 59.96,-112.23 59.97,112.23 -59.97,112.22 -59.96,-112.22"/>
        <path
                style="fill:#ffffff;fill-opacity:1;fill-rule:nonzero;stroke:none"
                d="m 6430.12,3819.79 59.97,-112.23 59.97,112.23 -59.97,112.22 -59.97,-112.22"/>
        <path
                style="fill:#ffffff;fill-opacity:1;fill-rule:nonzero;stroke:none"
                d="m 6693.65,3819.79 59.97,-112.23 59.97,112.23 -59.97,112.22 -59.97,-112.22"/>
        <path
                style="fill:#ffffff;fill-opacity:1;fill-rule:nonzero;stroke:none"
                d="m 6957.18,3819.79 59.98,-112.24 59.97,112.24 -59.97,112.22 -59.98,-112.22"/>
        <path
                style="fill:#ffffff;fill-opacity:1;fill-rule:nonzero;stroke:none"
                d="m 7220.72,3819.79 59.97,-112.23 59.97,112.23 -59.97,112.22 -59.97,-112.22"/>
        <path
                style="fill:#ffffff;fill-opacity:1;fill-rule:nonzero;stroke:none"
                d="m 7484.25,3819.79 59.97,-112.23 59.97,112.23 -59.97,112.22 -59.97,-112.22"/>
        <path
                style="fill:#ffffff;fill-opacity:1;fill-rule:nonzero;stroke:none"
                d="m 7867.73,3819.79 -59.97,112.22 -59.97,-112.22 59.97,-112.23 59.97,112.23"/>
        <path
                style="fill:#ffffff;fill-opacity:1;fill-rule:nonzero;stroke:none"
                d="m 8071.29,3932.01 -59.97,-112.22 59.97,-112.23 59.97,112.23 -59.97,112.22"/>
        <path
                style="fill:#ffffff;fill-opacity:1;fill-rule:nonzero;stroke:none"
                d="m 8274.85,3819.79 59.97,-112.24 34.33,64.24 v 95.98 l -34.33,64.24 -59.97,-112.22"/>
        <path
                style="fill:#ffffff;fill-opacity:1;fill-rule:nonzero;stroke:none"
                d="m 5759.46,3326.59 -59.97,112.23 -34.33,-64.24 v -95.98 l 34.33,-64.24 59.97,112.23"/>
        <path
                style="fill:#ffffff;fill-opacity:1;fill-rule:nonzero;stroke:none"
                d="m 5963.02,3214.37 59.97,112.22 -59.97,112.23 -59.97,-112.23 59.97,-112.22"/>
        <path
                style="fill:#ffffff;fill-opacity:1;fill-rule:nonzero;stroke:none"
                d="m 6226.55,3438.82 -59.96,-112.23 59.96,-112.22 59.97,112.22 -59.97,112.23"/>
        <path
                style="fill:#ffffff;fill-opacity:1;fill-rule:nonzero;stroke:none"
                d="m 6430.12,3326.59 59.97,-112.22 59.97,112.22 -59.97,112.23 -59.97,-112.23"/>
        <path
                style="fill:#ffffff;fill-opacity:1;fill-rule:nonzero;stroke:none"
                d="m 6693.65,3326.59 59.97,-112.22 59.97,112.22 -59.97,112.23 -59.97,-112.23"/>
        <path
                style="fill:#ffffff;fill-opacity:1;fill-rule:nonzero;stroke:none"
                d="m 7017.16,3214.36 59.97,112.23 -59.97,112.23 -59.98,-112.23 59.98,-112.23"/>
        <path
                style="fill:#ffffff;fill-opacity:1;fill-rule:nonzero;stroke:none"
                d="m 7220.72,3326.59 59.97,-112.22 59.97,112.22 -59.97,112.23 -59.97,-112.23"/>
        <path
                style="fill:#ffffff;fill-opacity:1;fill-rule:nonzero;stroke:none"
                d="m 7604.19,3326.59 -59.97,112.23 -59.97,-112.23 59.97,-112.22 59.97,112.22"/>
        <path
                style="fill:#ffffff;fill-opacity:1;fill-rule:nonzero;stroke:none"
                d="m 7807.76,3438.82 -59.97,-112.23 59.97,-112.22 59.97,112.22 -59.97,112.23"/>
        <path
                style="fill:#ffffff;fill-opacity:1;fill-rule:nonzero;stroke:none"
                d="m 8071.29,3438.82 -59.97,-112.23 59.97,-112.22 59.97,112.22 -59.97,112.23"/>
        <path
                style="fill:#ffffff;fill-opacity:1;fill-rule:nonzero;stroke:none"
                d="m 8274.85,3326.59 59.97,-112.23 34.33,64.24 v 95.98 l -34.33,64.24 -59.97,-112.23"/>
        <path
                style="fill:#ffffff;fill-opacity:1;fill-rule:nonzero;stroke:none"
                d="m 5759.46,2833.4 -59.97,112.23 -34.33,-64.24 v -95.98 l 34.33,-64.24 59.97,112.23"/>
        <path
                style="fill:#ffffff;fill-opacity:1;fill-rule:nonzero;stroke:none"
                d="m 5963.02,2721.18 59.97,112.22 -59.97,112.23 -59.97,-112.23 59.97,-112.22"/>
        <path
                style="fill:#ffffff;fill-opacity:1;fill-rule:nonzero;stroke:none"
                d="m 6226.55,2721.18 59.97,112.22 -59.97,112.23 -59.96,-112.23 59.96,-112.22"/>
        <path
                style="fill:#ffffff;fill-opacity:1;fill-rule:nonzero;stroke:none"
                d="m 6490.09,2945.63 -59.97,-112.23 59.97,-112.22 59.97,112.22 -59.97,112.23"/>
        <path
                style="fill:#ffffff;fill-opacity:1;fill-rule:nonzero;stroke:none"
                d="m 6813.59,2833.4 -59.97,112.23 -59.97,-112.23 59.97,-112.22 59.97,112.22"/>
        <path
                style="fill:#ffffff;fill-opacity:1;fill-rule:nonzero;stroke:none"
                d="m 7017.16,2721.17 59.97,112.23 -59.97,112.23 -59.98,-112.23 59.98,-112.23"/>
        <path
                style="fill:#ffffff;fill-opacity:1;fill-rule:nonzero;stroke:none"
                d="m 7280.69,2945.63 -59.97,-112.23 59.97,-112.22 59.97,112.22 -59.97,112.23"/>
        <path
                style="fill:#ffffff;fill-opacity:1;fill-rule:nonzero;stroke:none"
                d="m 7544.22,2945.63 -59.97,-112.23 59.97,-112.22 59.97,112.22 -59.97,112.23"/>
        <path
                style="fill:#ffffff;fill-opacity:1;fill-rule:nonzero;stroke:none"
                d="m 7807.76,2945.63 -59.97,-112.23 59.97,-112.22 59.97,112.22 -59.97,112.23"/>
        <path
                style="fill:#ffffff;fill-opacity:1;fill-rule:nonzero;stroke:none"
                d="m 8071.29,2945.63 -59.97,-112.23 59.97,-112.22 59.97,112.22 -59.97,112.23"/>
        <path
                style="fill:#ffffff;fill-opacity:1;fill-rule:nonzero;stroke:none"
                d="m 8274.85,2833.4 59.97,-112.23 34.33,64.24 v 95.98 l -34.33,64.24 -59.97,-112.23"/>
        <path
                style="fill:#ffffff;fill-opacity:1;fill-rule:nonzero;stroke:none"
                d="m 5759.46,2340.21 -59.97,112.23 -34.33,-64.24 v -95.98 l 34.33,-64.24 59.97,112.23"/>
        <path
                style="fill:#ffffff;fill-opacity:1;fill-rule:nonzero;stroke:none"
                d="m 5963.02,2227.99 59.97,112.22 -59.97,112.23 -59.97,-112.23 59.97,-112.22"/>
        <path
                style="fill:#ffffff;fill-opacity:1;fill-rule:nonzero;stroke:none"
                d="m 6226.55,2227.99 59.97,112.22 -59.97,112.23 -59.96,-112.23 59.96,-112.22"/>
        <path
                style="fill:#ffffff;fill-opacity:1;fill-rule:nonzero;stroke:none"
                d="m 6430.12,2340.21 59.97,-112.22 59.97,112.22 -59.97,112.23 -59.97,-112.23"/>
        <path
                style="fill:#ffffff;fill-opacity:1;fill-rule:nonzero;stroke:none"
                d="m 6813.59,2340.21 -59.97,112.23 -59.97,-112.23 59.97,-112.22 59.97,112.22"/>
        <path
                style="fill:#ffffff;fill-opacity:1;fill-rule:nonzero;stroke:none"
                d="m 7077.13,2340.21 -59.97,112.23 -59.98,-112.23 59.98,-112.23 59.97,112.23"/>
        <path
                style="fill:#ffffff;fill-opacity:1;fill-rule:nonzero;stroke:none"
                d="m 7280.69,2452.44 -59.97,-112.23 59.97,-112.22 59.97,112.22 -59.97,112.23"/>
        <path
                style="fill:#ffffff;fill-opacity:1;fill-rule:nonzero;stroke:none"
                d="m 7544.22,2227.99 59.97,112.22 -59.97,112.23 -59.97,-112.23 59.97,-112.22"/>
        <path
                style="fill:#ffffff;fill-opacity:1;fill-rule:nonzero;stroke:none"
                d="m 7807.76,2452.44 -59.97,-112.23 59.97,-112.22 59.97,112.22 -59.97,112.23"/>
        <path
                style="fill:#ffffff;fill-opacity:1;fill-rule:nonzero;stroke:none"
                d="m 8071.29,2452.44 -59.97,-112.23 59.97,-112.22 59.97,112.22 -59.97,112.23"/>
        <path
                style="fill:#ffffff;fill-opacity:1;fill-rule:nonzero;stroke:none"
                d="m 8274.85,2340.21 59.97,-112.23 34.33,64.24 v 95.98 l -34.33,64.24 -59.97,-112.23"/>
        <path
                style="fill:#ffffff;fill-opacity:1;fill-rule:nonzero;stroke:none"
                d="m 5759.46,1847.02 -59.97,112.23 -34.33,-64.24 v -95.98 l 34.33,-64.24 59.97,112.23"/>
        <path
                style="fill:#ffffff;fill-opacity:1;fill-rule:nonzero;stroke:none"
                d="m 5963.02,1734.79 59.97,112.23 -59.97,112.23 -59.97,-112.23 59.97,-112.23"/>
        <path
                style="fill:#ffffff;fill-opacity:1;fill-rule:nonzero;stroke:none"
                d="m 6166.59,1847.02 59.96,-112.23 59.97,112.23 -59.97,112.23 -59.96,-112.23"/>
        <path
                style="fill:#ffffff;fill-opacity:1;fill-rule:nonzero;stroke:none"
                d="m 6550.06,1847.02 -59.97,112.23 -59.97,-112.23 59.97,-112.23 59.97,112.23"/>
        <path
                style="fill:#ffffff;fill-opacity:1;fill-rule:nonzero;stroke:none"
                d="m 6813.59,1847.02 -59.97,112.23 -59.97,-112.23 59.97,-112.23 59.97,112.23"/>
        <path
                style="fill:#ffffff;fill-opacity:1;fill-rule:nonzero;stroke:none"
                d="m 7077.13,1847.02 -59.97,112.23 -59.98,-112.23 59.98,-112.23 59.97,112.23"/>
        <path
                style="fill:#ffffff;fill-opacity:1;fill-rule:nonzero;stroke:none"
                d="m 7280.69,1959.25 -59.97,-112.23 59.97,-112.23 59.97,112.23 -59.97,112.23"/>
        <path
                style="fill:#ffffff;fill-opacity:1;fill-rule:nonzero;stroke:none"
                d="m 7604.19,1847.02 -59.97,112.23 -59.97,-112.23 59.97,-112.23 59.97,112.23"/>
        <path
                style="fill:#ffffff;fill-opacity:1;fill-rule:nonzero;stroke:none"
                d="m 7807.76,1734.79 59.97,112.23 -59.97,112.23 -59.97,-112.23 59.97,-112.23"/>
        <path
                style="fill:#ffffff;fill-opacity:1;fill-rule:nonzero;stroke:none"
                d="m 8071.29,1959.25 -59.97,-112.23 59.97,-112.23 59.97,112.23 -59.97,112.23"/>
        <path
                style="fill:#ffffff;fill-opacity:1;fill-rule:nonzero;stroke:none"
                d="m 8274.85,1847.02 59.97,-112.23 34.33,64.24 v 95.98 l -34.33,64.24 -59.97,-112.23"/>
        <path
                style="fill:#ffffff;fill-opacity:1;fill-rule:nonzero;stroke:none"
                d="m 5759.46,1353.83 -59.97,112.23 -34.33,-64.24 v -95.98 l 34.33,-64.23 59.97,112.22"/>
        <path
                style="fill:#ffffff;fill-opacity:1;fill-rule:nonzero;stroke:none"
                d="m 5903.05,1353.83 59.97,-112.22 59.97,112.22 -59.97,112.23 -59.97,-112.23"/>
        <path
                style="fill:#ffffff;fill-opacity:1;fill-rule:nonzero;stroke:none"
                d="m 6286.52,1353.83 -59.97,112.23 -59.96,-112.23 59.96,-112.22 59.97,112.22"/>
        <path
                style="fill:#ffffff;fill-opacity:1;fill-rule:nonzero;stroke:none"
                d="m 6550.06,1353.83 -59.97,112.23 -59.97,-112.23 59.97,-112.22 59.97,112.22"/>
        <path
                style="fill:#ffffff;fill-opacity:1;fill-rule:nonzero;stroke:none"
                d="m 6813.59,1353.83 -59.97,112.23 -59.97,-112.23 59.97,-112.22 59.97,112.22"/>
        <path
                style="fill:#ffffff;fill-opacity:1;fill-rule:nonzero;stroke:none"
                d="m 7077.13,1353.83 -59.97,112.23 -59.98,-112.23 59.98,-112.22 59.97,112.22"/>
        <path
                style="fill:#ffffff;fill-opacity:1;fill-rule:nonzero;stroke:none"
                d="m 7340.66,1353.83 -59.97,112.23 -59.97,-112.23 59.97,-112.22 59.97,112.22"/>
        <path
                style="fill:#ffffff;fill-opacity:1;fill-rule:nonzero;stroke:none"
                d="m 7604.19,1353.83 -59.97,112.23 -59.97,-112.23 59.97,-112.22 59.97,112.22"/>
        <path
                style="fill:#ffffff;fill-opacity:1;fill-rule:nonzero;stroke:none"
                d="m 7867.73,1353.83 -59.97,112.23 -59.97,-112.23 59.97,-112.22 59.97,112.22"/>
        <path
                style="fill:#ffffff;fill-opacity:1;fill-rule:nonzero;stroke:none"
                d="m 8071.29,1241.61 59.97,112.22 -59.97,112.23 -59.97,-112.23 59.97,-112.22"/>
        <path
                style="fill:#ffffff;fill-opacity:1;fill-rule:nonzero;stroke:none"
                d="m 8274.85,1353.83 59.97,-112.22 34.33,64.23 v 95.98 l -34.33,64.24 -59.97,-112.23"/>
        <path
                style="fill:#ffffff;fill-opacity:1;fill-rule:nonzero;stroke:none"
                d="m 5699.49,972.871 -34.33,-64.23 v -95.989 l 34.33,-64.242 59.97,112.231 -59.97,112.23"/>
        <path
                style="fill:#ffffff;fill-opacity:1;fill-rule:nonzero;stroke:none"
                d="m 5903.05,860.641 59.97,-112.231 59.97,112.231 -59.97,112.23 -59.97,-112.23"/>
        <path
                style="fill:#ffffff;fill-opacity:1;fill-rule:nonzero;stroke:none"
                d="m 6166.59,860.641 59.96,-112.231 59.97,112.231 -59.97,112.23 -59.96,-112.23"/>
        <path
                style="fill:#ffffff;fill-opacity:1;fill-rule:nonzero;stroke:none"
                d="m 6430.12,860.641 59.97,-112.231 59.97,112.231 -59.97,112.23 -59.97,-112.23"/>
        <path
                style="fill:#ffffff;fill-opacity:1;fill-rule:nonzero;stroke:none"
                d="m 6693.65,860.641 59.97,-112.231 59.97,112.231 -59.97,112.23 -59.97,-112.23"/>
        <path
                style="fill:#ffffff;fill-opacity:1;fill-rule:nonzero;stroke:none"
                d="m 6957.18,860.641 59.98,-112.231 59.97,112.231 -59.97,112.23 -59.98,-112.23"/>
        <path
                style="fill:#ffffff;fill-opacity:1;fill-rule:nonzero;stroke:none"
                d="m 7220.72,860.641 59.97,-112.231 59.97,112.231 -59.97,112.23 -59.97,-112.23"/>
        <path
                style="fill:#ffffff;fill-opacity:1;fill-rule:nonzero;stroke:none"
                d="m 7484.25,860.641 59.97,-112.231 59.97,112.231 -59.97,112.23 -59.97,-112.23"/>
        <path
                style="fill:#ffffff;fill-opacity:1;fill-rule:nonzero;stroke:none"
                d="m 7747.79,860.641 59.97,-112.231 59.97,112.231 -59.97,112.23 -59.97,-112.23"/>
        <path
                style="fill:#ffffff;fill-opacity:1;fill-rule:nonzero;stroke:none"
                d="m 8011.32,860.641 59.97,-112.231 59.97,112.231 -59.97,112.23 -59.97,-112.23"/>
        <path
                style="fill:#ffffff;fill-opacity:1;fill-rule:nonzero;stroke:none"
                d="m 8274.85,860.641 59.97,-112.231 34.33,64.242 v 95.977 l -34.33,64.242 -59.97,-112.23"/>
        </g>
</svg>
