<?xml version="1.0" encoding="UTF-8" standalone="no"?>
<svg
        xmlns="http://www.w3.org/2000/svg"
        viewBox="225 521 150 402"
        height="500"
        width="300"
        version="1.1">
    <g
            transform="scale(0.084, 0.1)"
            id="g12"><path
            id="path14"
            style="fill:#d3d2d2;fill-opacity:1;fill-rule:nonzero;stroke:none"
            d="M 4860.6,5207.44 H 2296.97 c -91.22,0 -165.17,73.95 -165.17,165.17 V 9066.7 c 0,91.22 73.95,165.17 165.17,165.17 H 4860.6 c 91.22,0 165.17,-73.95 165.17,-165.17 V 5372.61 c 0,-91.22 -73.95,-165.17 -165.17,-165.17" /><path
            id="path16"
            style="fill:#de1d25;fill-opacity:1;fill-rule:nonzero;stroke:none"
            d="m 2296.96,5302.43 c -38.69,0 -70.17,31.48 -70.17,70.18 V 9066.7 c 0,38.7 31.48,70.18 70.17,70.18 H 4860.6 c 38.7,0 70.18,-31.48 70.18,-70.18 V 5372.61 c 0,-38.7 -31.48,-70.18 -70.18,-70.18 H 2296.96"/><path
            id="path18"
            style="fill:#ffffff;fill-opacity:1;fill-rule:nonzero;stroke:none"
            d="m 4684.46,5328.1 -170.33,170.33 172.77,172.78 170.33,-170.33 z m -372.26,372.26 172.78,172.77 170.33,-170.33 -172.77,-172.78 z m -34.03,-374.71 -170.34,170.34 172.78,172.78 170.34,-170.34 z m -372.25,372.26 172.77,172.78 170.33,-170.33 -172.77,-172.78 z m -34.04,-374.7 -170.33,170.33 172.78,172.78 170.33,-170.33 z m -372.26,372.25 172.78,172.78 170.34,-170.33 -172.78,-172.78 z m -34.03,-374.7 -170.33,170.34 172.77,172.77 170.34,-170.33 z m -372.25,372.26 172.78,172.77 170.33,-170.33 -172.78,-172.77 z m -34.04,-374.7 -170.33,170.33 172.78,172.78 170.33,-170.33 z m -372.25,372.25 172.78,172.77 170.33,-170.32 -172.78,-172.78 z m -34.04,-374.7 -170.33,170.33 172.78,172.78 170.33,-170.33 z m -372.25,372.25 172.78,172.78 170.33,-170.33 -172.77,-172.78 z m 2.45,406.29 172.78,172.78 170.33,-170.33 -172.78,-172.78 z m 2.44,406.29 172.78,172.78 170.34,-170.34 -172.78,-172.77 z m 2.45,406.29 172.78,172.77 170.33,-170.32 -172.78,-172.78 z m 2.45,406.28 172.78,172.78 170.33,-170.33 -172.78,-172.78 z m 2.44,406.29 172.78,172.78 170.34,-170.33 -172.78,-172.78 z m 2.45,406.29 172.78,172.78 170.33,-170.33 -172.78,-172.78 z m 2.45,406.29 172.77,172.78 170.34,-170.34 -172.78,-172.77 z m 2.45,406.29 172.77,172.78 170.33,-170.33 -172.78,-172.78 z m 545.03,-199.48 -172.78,-172.77 -170.34,170.33 172.78,172.78 z m 34.03,374.71 170.33,-170.34 -172.77,-172.78 -170.34,170.34 z m 372.25,-372.26 -172.78,-172.78 -170.32,170.33 172.77,172.78 z m 34.04,374.7 170.33,-170.33 -172.78,-172.78 -170.33,170.33 z m 372.25,-372.26 -172.77,-172.77 -170.34,170.33 172.78,172.78 z m 34.04,374.71 170.33,-170.34 -172.78,-172.77 -170.33,170.33 z m 372.25,-372.26 -172.78,-172.77 -170.33,170.32 172.78,172.79 z m 34.04,374.7 170.33,-170.33 -172.78,-172.78 -170.33,170.33 z m 372.25,-372.25 -172.78,-172.78 -170.33,170.33 172.78,172.78 z m 34.03,374.7 170.33,-170.33 -172.77,-172.78 -170.33,170.33 z m 372.26,-372.25 -172.78,-172.78 -170.33,170.33 172.77,172.78 z m -2.45,-406.29 -172.78,-172.78 -170.33,170.33 172.78,172.78 z m -2.44,-406.29 -172.78,-172.78 -170.34,170.34 172.78,172.77 z m -2.45,-406.29 -172.78,-172.78 -170.33,170.33 172.78,172.78 z m -2.45,-406.28 -172.78,-172.78 -170.33,170.33 172.78,172.78 z m -2.45,-406.3 -172.77,-172.77 -170.34,170.33 172.78,172.78 z m -2.44,-406.28 -172.78,-172.78 -170.33,170.33 172.78,172.78 z m -547.48,-206.82 172.78,172.78 170.33,-170.33 -172.78,-172.78 z m -31.59,-31.59 170.33,-170.33 -172.78,-172.77 -170.33,170.32 z m -374.7,29.15 172.78,172.78 170.33,-170.34 -172.78,-172.78 z m -31.59,-31.59 170.33,-170.34 -172.77,-172.77 -170.34,170.33 z m -374.7,29.14 172.78,172.78 170.33,-170.33 -172.78,-172.78 z m -31.59,-31.59 170.33,-170.33 -172.78,-172.78 -170.32,170.33 z m -374.69,29.14 172.78,172.78 170.32,-170.33 -172.77,-172.78 z m -31.59,-31.59 170.33,-170.33 -172.78,-172.78 -170.33,170.33 z m -374.7,29.15 172.77,172.78 170.34,-170.34 -172.78,-172.78 z m 138.74,-201.93 -172.78,-172.77 -170.33,170.33 172.78,172.78 z m 2.44,406.29 -172.77,-172.77 -170.33,170.33 172.77,172.77 z m 2.45,406.29 -172.78,-172.78 -170.33,170.34 172.78,172.78 z m 2.45,406.29 -172.78,-172.77 -170.33,170.32 172.78,172.78 z m 2.44,406.29 -172.77,-172.78 -170.33,170.33 172.78,172.78 z m 2.45,406.29 -172.77,-172.78 -170.34,170.33 172.78,172.78 z m 2.45,406.29 -172.78,-172.78 -170.33,170.33 172.78,172.78 z m 31.59,31.59 -170.33,170.32 172.78,172.78 170.32,-170.33 z m 374.7,-29.15 -172.78,-172.78 -170.33,170.34 172.77,172.78 z m 31.59,31.59 -170.34,170.33 172.78,172.78 170.34,-170.33 z m 374.7,-29.14 -172.78,-172.78 -170.33,170.33 172.78,172.78 z m 31.58,31.59 -170.32,170.33 172.77,172.78 170.33,-170.33 z m 374.7,-29.14 -172.78,-172.78 -170.33,170.33 172.78,172.78 z m 31.59,31.59 -170.33,170.33 172.78,172.77 170.33,-170.33 z m 374.7,-29.15 -172.77,-172.78 -170.34,170.34 172.78,172.78 z m -138.74,201.92 172.78,172.78 170.33,-170.33 -172.78,-172.78 z m -2.45,-406.29 172.78,172.78 170.33,-170.33 -172.78,-172.78 z m -2.44,-406.28 172.77,172.78 170.34,-170.34 -172.78,-172.78 z m -2.45,-406.29 172.78,172.77 170.33,-170.32 -172.78,-172.78 z m -2.45,-406.29 172.78,172.78 170.33,-170.33 -172.78,-172.78 z m -2.45,-406.29 172.78,172.78 170.34,-170.33 -172.78,-172.78 z m -31.58,-31.59 170.33,-170.33 -172.78,-172.78 -170.33,170.34 z m -374.7,29.14 172.78,172.78 170.33,-170.33 -172.78,-172.77 z m -31.59,-31.59 170.33,-170.32 -172.78,-172.78 -170.33,170.33 z m -374.7,29.15 172.78,172.77 170.33,-170.33 -172.78,-172.77 z m -31.59,-31.59 170.33,-170.33 -172.78,-172.78 -170.33,170.33 z m -374.7,29.14 172.78,172.78 170.33,-170.33 -172.77,-172.78 z m -31.59,-31.59 170.34,-170.33 -172.78,-172.78 -170.34,170.33 z m -31.59,31.59 -172.78,-172.78 -170.33,170.33 172.78,172.78 z m 2.45,406.29 -172.78,-172.78 -170.33,170.34 172.78,172.77 z m 2.44,406.29 -172.77,-172.78 -170.33,170.33 172.77,172.78 z m 2.45,406.29 -172.78,-172.78 -170.32,170.33 172.77,172.78 z m -170.33,233.51 -170.33,170.33 172.78,172.78 170.33,-170.34 z m 374.7,-29.15 -172.78,-172.77 -170.33,170.33 172.78,172.77 z m 31.59,31.59 -170.33,170.33 172.78,172.78 170.33,-170.33 z m 374.7,-29.14 -172.78,-172.77 -170.33,170.32 172.78,172.78 z m 31.59,31.59 -170.33,170.33 172.77,172.78 170.33,-170.33 z m 374.7,-29.14 -172.78,-172.78 -170.33,170.33 172.77,172.78 z m 31.59,31.59 -170.34,170.33 172.78,172.78 170.34,-170.34 z m 31.59,-31.59 172.78,172.77 170.32,-170.32 -172.77,-172.78 z m -2.45,-406.29 172.78,172.78 170.33,-170.34 -172.78,-172.77 z m -2.45,-406.29 172.78,172.78 170.33,-170.33 -172.78,-172.78 z m 170.33,-233.51 170.33,-170.33 -172.77,-172.78 -170.33,170.33 z m -374.69,29.14 172.78,172.78 170.32,-170.33 -172.77,-172.78 z m -31.59,-31.59 170.33,-170.33 -172.78,-172.78 -170.33,170.33 z m -374.7,29.15 172.77,172.78 170.34,-170.34 -172.78,-172.78 z m -31.59,-31.59 170.33,-170.34 -172.78,-172.78 -170.33,170.34 z m -374.7,29.14 172.78,172.78 170.33,-170.33 -172.78,-172.78 z m 138.74,-201.92 -172.78,-172.78 -170.33,170.33 172.78,172.78 z m 2.45,406.29 -172.78,-172.78 -170.33,170.33 172.77,172.78 z m 2.44,406.29 -172.78,-172.78 -170.33,170.33 172.78,172.78 z m 31.59,31.59 -170.33,170.33 172.78,172.77 170.33,-170.32 z m 374.7,-29.15 -172.78,-172.78 -170.33,170.34 172.78,172.78 z m 31.59,31.59 -170.33,170.34 172.78,172.77 170.33,-170.33 z m 374.7,-29.14 -172.78,-172.78 -170.33,170.33 172.78,172.78 z m -138.74,201.92 172.78,172.78 170.33,-170.33 -172.78,-172.78 z m -2.45,-406.29 172.78,172.78 170.33,-170.33 -172.77,-172.78 z m -31.59,-31.59 170.34,-170.33 -172.78,-172.78 -170.34,170.34 z m -374.7,29.14 172.78,172.78 170.33,-170.33 -172.78,-172.77 z m -235.95,-172.77 -170.34,170.33 172.78,172.78 170.34,-170.34 z m 204.36,141.18 170.33,-170.32 -172.77,-172.78 -170.33,170.33 z m 1381.86,-1381.85 -172.78,-172.78 -170.33,170.33 172.78,172.78 z m 71.1,-332.74 -41.96,-41.96 -170.33,170.33 172.78,172.78 39.51,-39.51 v 63.18 l -7.92,7.92 7.92,7.92 v 63.18 l -39.51,-39.51 -170.33,170.33 172.78,172.78 37.06,-37.07 v 63.18 l -5.47,5.48 5.47,5.47 v 63.18 l -37.06,-37.06 -170.33,170.33 172.77,172.78 34.62,-34.62 v 63.18 l -3.03,3.02 3.03,3.03 v 63.18 l -34.62,-34.62 -170.33,170.34 172.78,172.78 32.17,-32.18 v 63.18 l -0.58,0.59 0.58,0.58 v 63.18 l -32.17,-32.17 -170.33,170.33 172.78,172.77 29.72,-29.72 v 122.63 l -29.72,-29.73 -170.33,170.33 172.78,172.78 27.27,-27.28 v 117.73 l -27.27,-27.27 -170.34,170.33 172.78,172.78 24.83,-24.83 v 112.84 l -24.83,-24.83 -170.33,170.33 172.78,172.78 22.38,-22.39 v 107.95 l -22.38,-22.38 -170.34,170.33 167.46,167.45 c -12.19,10.18 -27.84,16.32 -44.92,16.32 h -1.95 L 4706.47,8984.7 4554.3,9136.88 h -99.49 l -154.62,-154.63 -154.63,154.63 h -94.58 L 3893.9,8979.8 3736.83,9136.88 h -89.7 l -159.52,-159.52 -159.52,159.52 h -84.8 l -161.97,-161.97 -161.96,161.97 h -79.92 l -164.41,-164.41 -164.41,164.41 h -75.01 l -166.86,-166.86 -41.96,41.96 v -63.18 l 10.37,-10.37 -10.37,-10.37 v -63.18 l 41.96,41.96 170.32,-170.33 -172.77,-172.78 -39.51,39.51 v -63.18 l 7.92,-7.92 -7.92,-7.92 v -63.18 l 39.51,39.51 170.33,-170.33 -172.78,-172.78 -37.06,37.07 v -63.18 l 5.47,-5.48 -5.47,-5.47 v -63.19 l 37.06,37.07 170.33,-170.33 -172.78,-172.78 -34.61,34.62 v -63.18 l 3.02,-3.03 -3.02,-3.02 v -63.18 l 34.61,34.61 170.34,-170.33 -172.78,-172.78 -32.17,32.18 v -63.18 l 0.58,-0.59 -0.58,-0.58 v -63.18 l 32.17,32.17 170.33,-170.33 -172.78,-172.77 -29.72,29.72 v -122.63 l 29.72,29.73 170.33,-170.33 -172.78,-172.78 -27.27,27.28 v -117.73 l 27.27,27.27 170.34,-170.33 -172.78,-172.78 -24.83,24.83 v -112.84 l 24.83,24.83 170.33,-170.33 -172.78,-172.78 -22.38,22.39 v -107.95 l 22.38,22.38 170.34,-170.33 -167.46,-167.45 c 12.18,-10.18 27.84,-16.32 44.91,-16.32 h 1.96 l 152.18,152.18 152.17,-152.18 h 99.48 l 154.63,154.63 154.63,-154.63 h 94.58 l 157.08,157.08 157.07,-157.08 h 89.7 l 159.52,159.52 159.52,-159.52 h 84.8 l 161.97,161.97 161.96,-161.97 h 79.92 l 164.41,164.41 164.41,-164.41 h 75.01 l 166.86,166.86 41.96,-41.96 v 63.18 l -10.37,10.37 10.37,10.37 v 63.18"/></g></svg>
