<?xml version="1.0" standalone="no"?>
<!DOCTYPE svg PUBLIC "-//W3C//DTD SVG 20010904//EN"
 "http://www.w3.org/TR/2001/REC-SVG-20010904/DTD/svg10.dtd">
<svg version="1.0" xmlns="http://www.w3.org/2000/svg"
 width="968.000000pt" height="968.000000pt" viewBox="0 0 968.000000 968.000000"
 preserveAspectRatio="xMidYMid meet">
<metadata>
Created by potrace 1.11, written by Peter Selinger 2001-2013
</metadata>
<g transform="translate(0.000000,968.000000) scale(0.100000,-0.100000)"
fill="#000000" stroke="none">
<path d="M4828 9645 c-2 -2 -62 -7 -133 -10 -126 -5 -160 -9 -235 -21 -19 -3
-49 -7 -66 -9 -113 -16 -316 -78 -424 -131 -39 -19 -75 -34 -80 -34 -6 0 -10
-4 -10 -9 0 -5 -8 -11 -17 -15 -51 -16 -154 -96 -248 -191 -96 -96 -103 -105
-150 -175 -81 -122 -172 -331 -199 -460 -3 -14 -10 -45 -16 -70 -17 -79 -18
-84 -24 -132 -15 -116 -17 -138 -21 -221 -2 -48 -7 -92 -10 -97 -3 -6 -2 -10
3 -10 5 0 6 -20 2 -45 -4 -25 -4 -45 -1 -45 4 0 4 -27 1 -60 -3 -33 -3 -60 0
-60 6 0 2 -139 -4 -157 -3 -7 -2 -13 3 -13 5 0 5 -18 1 -40 -4 -22 -4 -40 0
-40 4 0 4 -18 0 -40 -4 -22 -4 -40 0 -40 4 0 4 -18 0 -40 -4 -22 -4 -40 0 -40
4 0 4 -18 0 -40 -4 -22 -4 -40 0 -40 4 0 4 -18 0 -40 -4 -22 -4 -40 0 -40 4 0
4 -18 0 -40 -4 -22 -4 -40 0 -40 4 0 4 -18 0 -40 -4 -22 -4 -40 0 -40 4 0 4
-18 0 -40 -4 -22 -4 -40 0 -40 4 0 4 -18 0 -40 -4 -22 -4 -40 0 -40 4 0 4 -18
0 -40 -4 -22 -4 -40 0 -40 4 0 4 -18 0 -40 -4 -22 -4 -40 0 -40 4 0 4 -18 0
-40 -4 -22 -4 -40 0 -40 4 0 4 -18 0 -40 -4 -22 -4 -40 0 -40 4 0 4 -18 0 -40
-4 -22 -4 -40 1 -40 5 0 6 -6 3 -13 -6 -18 -10 -157 -4 -157 3 0 3 -27 0 -60
-3 -33 -3 -65 1 -71 3 -6 3 -26 -1 -44 -4 -18 -4 -38 0 -45 4 -7 4 -26 0 -44
-3 -17 -4 -42 0 -56 4 -14 4 -34 0 -45 -4 -11 -4 -34 0 -51 4 -18 4 -37 0 -44
-4 -7 -4 -27 0 -45 4 -18 4 -38 0 -45 -4 -7 -4 -27 0 -45 4 -18 4 -38 0 -45
-4 -7 -4 -27 0 -46 4 -18 5 -35 3 -38 -7 -7 -7 -186 0 -192 3 -3 2 -18 -2 -32
-5 -15 -5 -36 -1 -46 3 -11 3 -39 0 -63 -4 -23 -4 -43 -1 -43 7 0 4 -138 -3
-157 -3 -7 -2 -13 3 -13 5 0 5 -18 1 -40 -4 -22 -4 -40 0 -40 4 0 4 -18 0 -40
-4 -22 -4 -40 0 -40 4 0 4 -17 0 -38 -3 -20 -3 -49 1 -65 4 -15 4 -27 0 -27
-4 0 -6 -13 -3 -29 5 -35 -4 -42 -71 -46 -121 -7 -293 -38 -311 -56 -6 -5 -17
-9 -26 -9 -19 0 -176 -79 -209 -105 -72 -58 -137 -126 -177 -186 -38 -58 -81
-140 -91 -174 -60 -211 -62 -225 -73 -450 -4 -85 11 -266 31 -380 6 -33 13
-71 15 -85 3 -14 8 -34 11 -45 4 -11 8 -24 9 -30 8 -42 63 -186 99 -260 39
-80 117 -212 134 -225 3 -3 19 -23 36 -45 135 -184 446 -404 707 -501 24 -9
52 -20 63 -24 30 -13 196 -67 230 -75 17 -4 37 -9 45 -11 63 -17 230 -54 264
-58 22 -3 66 -10 96 -16 118 -20 284 -38 473 -49 21 -1 38 -40 27 -60 -4 -8
-4 -27 0 -43 5 -15 5 -30 0 -33 -5 -3 -5 -18 0 -34 4 -15 4 -34 0 -41 -4 -6
-4 -26 -1 -44 4 -17 4 -46 0 -64 -3 -18 -3 -35 1 -37 5 -3 5 -19 0 -35 -5 -18
-5 -32 1 -36 5 -3 7 -9 4 -14 -3 -5 -7 -51 -10 -102 -6 -138 -28 -230 -68
-289 -20 -29 -101 -87 -187 -131 -14 -7 -30 -17 -36 -23 -6 -5 -26 -21 -44
-35 -19 -14 -43 -36 -54 -49 -12 -13 -34 -38 -51 -56 -16 -18 -52 -58 -79 -89
-27 -31 -61 -70 -75 -85 -14 -16 -53 -59 -86 -95 -32 -37 -68 -78 -80 -90 -11
-13 -45 -51 -75 -86 -30 -34 -68 -77 -85 -95 -59 -65 -140 -158 -148 -171 -6
-10 -1 -14 15 -15 13 -1 26 -1 31 0 4 1 75 3 157 6 83 2 153 6 158 8 4 3 38 8
77 12 38 4 73 9 78 12 4 3 26 7 49 10 23 2 59 10 82 18 23 8 52 16 66 19 65
13 197 65 285 113 33 17 75 39 93 49 17 9 32 20 32 25 0 5 5 9 11 9 6 0 23 10
38 23 15 12 42 33 61 47 39 30 145 139 190 195 109 136 225 367 266 528 1 4 2
8 4 10 1 1 3 9 5 17 1 8 7 33 13 55 19 71 48 226 56 305 3 30 8 67 11 82 4 22
16 232 16 291 0 12 8 17 27 18 15 0 41 2 57 4 17 3 59 7 95 9 75 6 154 14 190
21 14 2 45 7 70 10 25 4 59 9 75 12 17 3 39 7 50 9 11 1 31 6 45 9 14 3 43 8
65 11 22 3 45 10 52 16 7 6 13 8 13 5 0 -3 33 3 73 15 39 11 79 21 87 23 45
10 159 52 265 97 362 154 612 367 790 673 43 73 74 142 67 149 -3 3 0 6 6 6 7
0 12 7 12 16 0 9 7 30 15 47 12 27 48 154 59 207 23 113 42 258 41 323 0 26 3
47 7 47 4 0 3 12 -1 28 -5 15 -5 36 -1 47 4 11 5 24 3 28 -3 4 -6 47 -8 95 -2
48 -6 102 -9 120 -3 18 -8 52 -11 75 -18 129 -91 309 -163 404 -62 83 -138
146 -231 195 -36 18 -106 44 -106 38 0 -2 -10 2 -21 8 -12 6 -36 14 -55 17
-19 3 -41 8 -49 10 -8 3 -48 7 -89 10 -40 3 -77 8 -82 11 -5 3 -9 1 -9 -4 0
-17 -48 0 -53 19 -3 10 -2 21 2 23 4 3 5 29 1 58 -3 30 -3 68 1 84 3 17 3 38
-1 48 -3 10 -3 42 0 71 3 29 3 61 0 71 -4 9 -3 37 0 61 4 24 3 46 -2 49 -4 3
-6 10 -3 15 4 5 6 30 5 56 0 27 -1 55 -1 63 0 8 0 35 0 60 1 74 1 82 0 155 0
39 -1 77 0 85 0 8 0 42 0 75 0 33 1 85 1 115 1 30 1 62 1 70 -1 8 0 40 0 70 1
30 1 62 0 70 -3 44 0 114 5 121 3 5 1 9 -5 9 -5 0 -6 11 -2 27 4 15 5 45 1 68
-3 22 -3 56 0 75 3 19 3 49 -1 67 -4 18 -4 35 -1 38 3 3 4 35 3 73 -2 37 -3
74 -3 82 1 48 2 130 1 160 0 19 1 58 1 85 1 28 1 55 0 60 -1 6 -1 15 0 20 2
12 2 128 -1 141 -1 5 0 14 1 19 1 6 1 33 1 60 -1 28 -1 75 0 105 0 30 0 63 0
73 0 9 0 49 0 87 0 39 0 78 -1 88 0 9 1 42 1 72 1 30 1 62 0 70 -3 42 0 103 4
110 3 5 1 11 -5 15 -6 4 -8 11 -4 16 9 15 1 421 -10 479 -3 14 -8 48 -11 75
-11 86 -13 96 -30 169 -26 109 -82 272 -121 350 -40 80 -93 167 -109 178 -5 4
-7 8 -2 8 4 0 -1 8 -10 18 -10 10 -27 30 -38 44 -91 118 -232 231 -384 308
-64 33 -222 97 -256 104 -5 1 -19 5 -30 9 -11 3 -31 8 -45 11 -14 3 -54 12
-90 19 -58 13 -135 25 -210 33 -14 1 -83 5 -154 9 -71 3 -132 8 -136 10 -4 2
-9 2 -12 0z"/>
</g>
</svg>
